<svg xmlns="http://www.w3.org/2000/svg" xmlns:xlink="http://www.w3.org/1999/xlink" version="1.1" id="Layer_1" x="0px" y="0px" width="368px" height="72.427px" viewBox="0 0 368 72.427" enable-background="new 0 0 368 72.427" xml:space="preserve" class="svg lazy loaded replaced-svg">
<g>
	<polygon points="310.012,23.114 307.141,23.114 307.141,50.366 308.636,52.372 303.012,52.372 304.505,50.366 304.505,23.114    301.636,23.114 299.591,25.868 299.591,21.306 312.057,21.306 312.057,25.868  " style="fill: rgb(35, 119, 113);"></polygon>
</g>
<g>
	<path d="M331.91,22.468h7.559v0.801c-0.442,0.165-0.884,0.308-1.325,0.427c-0.441,0.12-0.883,0.208-1.323,0.263l0.149,27.042h6.343   l1.627-4.441h0.717c0.055,0.387,0.105,0.833,0.151,1.338c0.046,0.507,0.082,1.031,0.109,1.573c0.028,0.542,0.043,1.072,0.043,1.586   c0,0.514-0.01,0.975-0.027,1.378H332.06v-0.8c0.441-0.202,0.846-0.35,1.214-0.442c0.367-0.09,0.716-0.165,1.048-0.22l-0.149-27.015   c-0.424-0.074-0.828-0.171-1.214-0.29c-0.387-0.12-0.735-0.251-1.049-0.4V22.468z" style="fill: rgb(35, 119, 113);"></path>
</g>
<g>
	<path d="M328.392,26.949c-0.013,0.56-0.039,1.123-0.073,1.688c-0.036,0.567-0.088,1.136-0.158,1.709h-0.544l-0.86-2.306h-4.569   v5.554h3.415l0.819-1.552h0.524c0.084,1.385,0.084,2.796,0,4.234h-0.524l-0.819-1.593h-3.415v5.849h4.821l1.027-2.515h0.525   c0.096,0.586,0.167,1.181,0.209,1.781c0.042,0.602,0.048,1.209,0.021,1.824h-10.335v-0.607c0.489-0.224,1.062-0.392,1.721-0.503   v-12.43c-0.282-0.057-0.567-0.13-0.861-0.222c-0.293-0.09-0.581-0.19-0.86-0.303v-0.608H328.392z" style="fill: rgb(35, 119, 113);"></path>
</g>
<g>
	<path d="M282.84,34.286c0-1.184,0.163-2.281,0.49-3.291c0.325-1.009,0.797-1.882,1.412-2.618c0.614-0.737,1.369-1.311,2.265-1.72   s1.913-0.614,3.052-0.614c1.14,0,2.157,0.204,3.052,0.614s1.651,0.983,2.266,1.72c0.614,0.736,1.085,1.609,1.412,2.618   c0.326,1.01,0.489,2.107,0.489,3.291c0,1.183-0.164,2.281-0.489,3.29c-0.327,1.011-0.797,1.883-1.412,2.618   c-0.615,0.738-1.371,1.31-2.266,1.72c-0.895,0.411-1.912,0.616-3.052,0.616c-1.139,0-2.156-0.205-3.052-0.616   c-0.896-0.41-1.651-0.982-2.265-1.72c-0.615-0.735-1.087-1.607-1.412-2.618C283.003,36.567,282.84,35.469,282.84,34.286    M285.277,34.286c0,0.972,0.103,1.886,0.308,2.743c0.205,0.858,0.512,1.606,0.922,2.244c0.41,0.637,0.925,1.143,1.548,1.514   c0.623,0.373,1.359,0.559,2.209,0.559c0.774,0,1.45-0.187,2.026-0.559c0.577-0.371,1.052-0.877,1.424-1.514   c0.371-0.638,0.652-1.385,0.842-2.244c0.189-0.857,0.284-1.771,0.284-2.743s-0.099-1.887-0.296-2.745   c-0.197-0.856-0.502-1.604-0.911-2.243c-0.41-0.638-0.927-1.142-1.549-1.514c-0.622-0.372-1.359-0.558-2.208-0.558   c-0.835,0-1.545,0.186-2.129,0.558c-0.584,0.373-1.06,0.876-1.423,1.514c-0.365,0.638-0.63,1.386-0.798,2.243   C285.36,32.399,285.277,33.314,285.277,34.286" style="fill: rgb(35, 119, 113);"></path>
</g>
<g>
	<polygon points="277.901,49.258 279.737,51.721 272.829,51.721 274.665,49.258 274.665,37.57 258.646,37.57 258.646,49.258    260.481,51.721 253.575,51.721 255.41,49.258 255.41,25.688 253.575,23.225 260.481,23.225 258.646,25.688 258.646,35.396    274.665,35.396 274.665,25.688 272.829,23.225 279.737,23.225 277.901,25.688  " style="fill: rgb(35, 119, 113);"></polygon>
</g>
<g>
	<polygon points="35.828,23.146 32.958,23.146 32.958,50.397 34.452,52.403 28.829,52.403 30.324,50.397 30.324,23.146    27.453,23.146 25.407,25.899 25.407,21.337 37.874,21.337 37.874,25.899  " style="fill: rgb(35, 119, 113);"></polygon>
</g>
<g>
	<polygon points="56.411,44.46 57.659,46.135 52.961,46.135 54.209,44.46 54.209,36.511 43.315,36.511 43.315,44.46 44.563,46.135    39.866,46.135 41.114,44.46 41.114,28.43 39.866,26.754 44.563,26.754 43.315,28.43 43.315,35.032 54.209,35.032 54.209,28.43    52.961,26.754 57.659,26.754 56.411,28.43  " style="fill: rgb(35, 119, 113);"></polygon>
</g>
<g>
	<path d="M65.233,23.147v9.517c0.3,0.036,3.584-0.037,3.584-0.037l1.498-2.085v5.896l-1.498-2.037l-3.584-0.06v16.252h4.71   l2.05-2.757v4.567H61.098l1.498-2.001V23.339l-1.498-2.002h10.895v4.567l-2.05-2.757H65.233z" style="fill: rgb(35, 119, 113);"></path>
</g>
<g>
	<path d="M119.547,27.983h5.744v0.608c-0.335,0.125-0.671,0.234-1.007,0.324c-0.334,0.092-0.67,0.158-1.005,0.201v12.451h4.822   l1.236-3.376h0.545c0.042,0.294,0.08,0.633,0.115,1.018c0.035,0.385,0.062,0.783,0.083,1.195c0.021,0.412,0.032,0.814,0.032,1.206   c0,0.391-0.008,0.741-0.021,1.047h-10.544v-0.608c0.335-0.153,0.642-0.266,0.922-0.335c0.279-0.068,0.545-0.125,0.797-0.167v-12.43   c-0.322-0.057-0.628-0.13-0.922-0.221c-0.293-0.091-0.56-0.191-0.796-0.304V27.983z" style="fill: rgb(35, 119, 113);"></path>
</g>
<g>
	<path d="M140.038,42.782h-4.654v-0.608c0.503-0.223,1.006-0.391,1.51-0.503l5.303-13.814h0.608l5.303,13.814   c0.28,0.056,0.556,0.12,0.828,0.188c0.273,0.071,0.527,0.176,0.766,0.314v0.608h-5.409v-0.608c0.28-0.112,0.566-0.209,0.86-0.293   c0.293-0.085,0.579-0.154,0.858-0.21l-1.418-3.835h-4.983l-1.376,3.835c0.587,0.085,1.188,0.251,1.803,0.503V42.782z    M140.027,36.745h4.212l-1.647-4.444l-0.396-1.803h-0.042l-0.521,1.845L140.027,36.745z" style="fill: rgb(35, 119, 113);"></path>
</g>
<g>
	<path d="M164.563,48.656l-0.478-1.243l-4.468-11.629h-1.776v6.013l1.065,1.394h-3.934l1.038-1.394V29.251l-1.038-1.393h4.508   c2.05,0,5.994,0.958,5.994,3.963c0,1.667-2.77,2.925-4.081,3.499l3.035,7.622l2.759,5.714h-1.418H164.563z M159.481,29.061h-1.639   v5.522h1.639c1.147,0,3.89-0.958,3.89-2.761C163.371,29.963,160.656,29.061,159.481,29.061" style="fill: rgb(35, 119, 113);"></path>
</g>
<g>
	<path d="M182.394,29.408c-0.013,0.56-0.038,1.123-0.073,1.688c-0.035,0.566-0.088,1.135-0.157,1.708h-0.544l-0.86-2.306h-4.569   v5.555h3.416l0.818-1.552h0.524c0.083,1.385,0.083,2.796,0,4.234h-0.524l-0.818-1.593h-3.416v5.849h4.821l1.027-2.515h0.525   c0.097,0.587,0.167,1.181,0.209,1.782c0.042,0.602,0.048,1.208,0.021,1.823h-10.335v-0.608c0.489-0.223,1.062-0.39,1.72-0.502   v-12.43c-0.281-0.057-0.567-0.13-0.86-0.222c-0.293-0.09-0.581-0.191-0.859-0.303v-0.608H182.394z" style="fill: rgb(35, 119, 113);"></path>
</g>
<g>
	<path d="M197.681,29.408h4.527v0.608c-0.586,0.391-1.159,0.67-1.718,0.838v13.479h-1.195l-7.61-11.55l-0.816-1.635h-0.063   l0.188,1.635v9.958c0.574,0.154,1.112,0.397,1.615,0.733v0.608h-4.528v-0.608c0.251-0.153,0.521-0.29,0.807-0.408   c0.286-0.12,0.59-0.227,0.912-0.325V30.729c-0.28-0.113-0.555-0.231-0.828-0.357c-0.273-0.126-0.527-0.251-0.765-0.377v-0.587   h3.542l6.603,9.958l0.965,1.802h0.084l-0.105-1.802v-8.512c-0.293-0.125-0.577-0.259-0.848-0.398   c-0.273-0.139-0.528-0.287-0.766-0.44V29.408z" style="fill: rgb(35, 119, 113);"></path>
</g>
<g>
	<path d="M217.836,40.267h0.545c0.07,0.391,0.133,0.884,0.189,1.477c0.056,0.595,0.069,1.171,0.042,1.73   c-0.21,0.167-0.461,0.304-0.754,0.408c-0.293,0.105-0.604,0.192-0.934,0.263c-0.328,0.07-0.664,0.118-1.004,0.146   c-0.344,0.029-0.669,0.042-0.976,0.042c-1.174,0-2.222-0.15-3.145-0.451c-0.922-0.301-1.701-0.757-2.337-1.373   c-0.637-0.614-1.125-1.401-1.467-2.357c-0.343-0.958-0.515-2.093-0.515-3.407c0-1.369,0.19-2.533,0.567-3.49   c0.376-0.957,0.887-1.741,1.53-2.348c0.643-0.607,1.39-1.051,2.243-1.331s1.747-0.419,2.684-0.419c0.921,0,1.698,0.059,2.326,0.178   c0.629,0.118,1.181,0.297,1.657,0.534c0,0.225-0.008,0.486-0.021,0.787c-0.014,0.301-0.035,0.618-0.064,0.954   c-0.027,0.334-0.062,0.663-0.104,0.985c-0.041,0.323-0.083,0.615-0.125,0.88h-0.546l-1.09-3.018   c-0.152-0.084-0.407-0.14-0.762-0.168c-0.356-0.028-0.708-0.042-1.056-0.042c-0.698,0-1.355,0.128-1.976,0.387   c-0.62,0.258-1.164,0.657-1.63,1.194c-0.466,0.539-0.84,1.217-1.118,2.034c-0.279,0.818-0.418,1.779-0.418,2.883   c0,0.992,0.125,1.891,0.376,2.693c0.251,0.804,0.613,1.488,1.087,2.055c0.474,0.566,1.052,0.999,1.735,1.3   c0.682,0.3,1.456,0.45,2.32,0.45c0.459,0,0.842-0.035,1.15-0.105c0.306-0.069,0.508-0.161,0.606-0.273L217.836,40.267z" style="fill: rgb(35, 119, 113);"></path>
</g>
<g>
	<path d="M228.032,23.147v9.516c0.301,0.036,3.584-0.036,3.584-0.036l1.498-2.085v5.896l-1.498-2.037l-3.584-0.06v16.252h4.71   l2.05-2.757v4.567h-10.895l1.498-2.001V23.339l-1.498-2.001h10.895v4.566l-2.05-2.756H228.032z" style="fill: rgb(35, 119, 113);"></path>
</g>
<g>
	<path d="M114.276,49.5c-1.63,0.609-3.144,1.047-4.539,1.325c-1.396,0.273-2.783,0.412-4.165,0.412   c-4.311,0-7.854-1.328-10.631-3.98c-2.776-2.653-4.166-6.041-4.166-10.157c0-4.038,1.384-7.423,4.151-10.16   c2.769-2.734,6.173-4.103,10.214-4.103c2.575,0,4.968,0.51,7.183,1.535v-1.87h1.952v7.059h-1.952v-2.034   c-2.326-1.717-4.677-2.575-7.059-2.575c-3.073,0-5.571,1.114-7.494,3.338c-1.924,2.223-2.886,5.079-2.886,8.558   c0,3.454,1.051,6.356,3.156,8.705c2.104,2.349,4.719,3.524,7.846,3.524c1.053,0,2.056-0.149,3.01-0.45   c0.955-0.297,2.097-0.828,3.426-1.585v-3.03h1.952V49.5z" style="fill: rgb(35, 119, 113);"></path>
</g>
<g>
	<path d="M364.524,67.427H6.843V6.314h357.681V67.427z M8.316,65.954h354.736V7.788H8.316V65.954z" style="fill: rgb(35, 119, 113);"></path>
</g>
<rect fill="none" width="807.41" height="380.427"></rect>
</svg>