<?xml version="1.0" encoding="utf-8"?>
<!-- Generator: Adobe Illustrator 16.0.1, SVG Export Plug-In . SVG Version: 6.00 Build 0)  -->
<!DOCTYPE svg PUBLIC "-//W3C//DTD SVG 1.1//EN" "http://www.w3.org/Graphics/SVG/1.1/DTD/svg11.dtd">
<svg version="1.1" id="Layer_1" xmlns="http://www.w3.org/2000/svg" xmlns:xlink="http://www.w3.org/1999/xlink" x="0px" y="0px"
	 width="369.495px" height="102.66px" viewBox="0 0 369.495 102.66" enable-background="new 0 0 369.495 102.66"
	 xml:space="preserve">
<g>
	<path fill="#F16362" d="M53.597,66.232l7.482-18.992c-0.777,6.3-1.508,20.613,6.047,29.812c4.442,5.408,10.852,8.149,19.055,8.149
		h0.055c0.115,0.005,0.27,0.009,0.456,0.009c2.456,0,10.806-0.67,18.911-9.054c3.513,8.261,9.242,9.003,14.416,9.003
		c3.875,0,7.152-1.064,10.017-3.252c2.586-1.975,4.817-4.848,7.021-9.036l2.83-6.274l0.132-0.322c1.267-3.6,1.333-6.912,0.269-9.783
		c4.318,0.117,9.152,0.014,12.877-0.688l-6.13,15.719c-1.833,4.218-4.274,10.954-4.341,11.158h9.34l2.651-7.956
		c0.989-2.269,2.224-4.871,3.668-7.453c4.532-8.105,9.286-12.641,13.035-12.42c4.335,0.246,7.155,3.721,7.185,5.455
		c0.064,4.09-2.369,10.116-4.509,12.571c-0.982,1.125-2.907,2.985-4.823,2.82c-1.898-0.167-4.162-2.278-6.373-5.947l-7.101,4.279
		c3.72,6.173,8.011,9.513,12.751,9.927c0.333,0.029,0.664,0.045,0.996,0.045c3.833,0,7.549-1.947,10.797-5.676
		c2.592-2.973,4.807-7.849,5.873-12.482c0.471-0.338,0.939-0.716,1.394-1.123c0.444,0.559,0.897,1.08,1.359,1.567
		c-0.772,5.259,0.841,8.981,2.515,11.309c3.129,4.354,8.658,6.915,15.18,7.026c0.02,0.001,0.052,0.001,0.096,0.001
		c0.992,0,9.852-0.739,17.385-5.102l-1.46,3.686l7.688,0.116l5.705-16.66l3.87-11.264c0.421-0.908,1.161-1.937,1.681-2.141
		c0.168-0.066,0.57,0.123,0.689,0.182c3.072,1.541,5.871,2.857,8.48,3.529l-3.169,8.045l-0.027,0.072
		c-0.11,0.295-1.066,2.963-0.966,6.229c0.146,4.867,2.529,8.728,6.713,10.87c3.25,1.664,6.722,2.506,10.184,2.505
		c2.408,0,4.812-0.405,7.132-1.224c2.36-0.832,4.502-2.043,6.374-3.57c0.008,0.012,0.018,0.023,0.025,0.035
		c1.898,2.451,4.9,4.025,8.689,4.549c2.428,0.336,4.768,0.169,5.746-0.025c2.627-0.521,4.857-1.951,6.758-3.879
		c0.62,0.717,1.338,1.362,2.145,1.912c4.018,2.75,9.08,2.355,12.895-1.004l0.324-0.286l16.429-22.038
		c0.318-0.309,0.631-0.604,0.937-0.891c1.221,3.365,3.98,6.959,8.307,10.849c1.102,0.989,2.854,2.863,2.227,4.297
		c-0.727,1.667-3.937,3.311-7.139,3.019c-3.377-0.308-3.893-2.514-4.062-3.238l-8.588,0.076c1.283,5.482,4.783,10.984,11.896,11.419
		c0.505,0.03,1.006,0.069,1.508,0.069c6.072-0.002,11.912-3.283,13.984-8.027c0.936-2.145,2.393-7.777-4.284-13.779
		c-6.772-6.09-6.313-8.756-6.237-9.039c0.281-1.076,2.428-2.11,3.773-2.409l3.306-0.683V42.64l-4.212,0.069
		c-2.779,0.044-7.607,1.207-17.426,10.731l-0.238,0.23l-16.271,21.827c-0.873,0.659-1.641,0.7-2.445,0.148
		c-0.958-0.653-1.674-2.071-1.221-3.31l0.744-2.035c1.125-2.657,3.734-9.939,3.734-9.939l-8.885-0.098l-2.462,6.718
		c-0.509,1.199-1.078,2.417-1.706,3.572c-2.457,4.524-4.403,5.555-5.364,5.761c-1.408,0.21-5.167,0.08-6.328-1.49
		c-1.069-1.44-0.435-4.934,1.692-9.345l3.787-8.078c2.08-2.597,4.125-3.924,6.082-3.946c0.018,0,0.033,0,0.051,0
		c2.635,0,5.115,2.357,5.854,3.272l3.246-2.578l3.264-2.556c-0.516-0.66-5.239-6.429-12.361-6.429h-0.051
		c-4.744,0.019-9.092,2.548-12.922,7.52l-0.275,0.358l-4.15,8.855c-1.238,2.57-2.092,4.954-2.568,7.147
		c-1.48,3.112-4.071,5.451-7.336,6.601c-3.49,1.23-7.317,0.934-10.781-0.839c-1.018-0.522-2.076-1.354-2.197-3.563
		c-0.09-1.625,0.387-3.1,0.438-3.252l12.374-31.407h43.481v-8.29h-40.215l8.785-22.346h-8.908l-8.789,22.346h-83.633l-3.06,8.29
		h83.426l-4.946,12.555c-2.092-0.225-6.311-2.341-7.848-3.111c-3.184-1.595-5.838-1.132-7.503-0.461
		c-0.901,0.362-1.694,0.854-2.39,1.412c-0.006-0.004-0.012-0.008-0.016-0.011c-1.281-0.899-3.439-1.828-6.452-1.144
		c0,0,1.972,8.09,2.042,8.254l-3.964,9.169c-7.854,12.925-20.376,13.085-20.952,13.085h-0.006c-3.811-0.066-7.018-1.402-8.58-3.576
		c-0.256-0.357-0.472-0.74-0.643-1.148c3.791,1.1,7.592,0.918,10.826,0.283c8.297-1.629,9.814-4.91,12.205-11.588l0.023-0.068
		c1.889-5.279-0.51-10.335-6.109-12.879c-6.729-3.057-16.469-1.78-20.25,4.991c-0.834,1.496-1.537,2.918-2.123,4.208
		c-0.09-0.153-0.174-0.294-0.264-0.433l-1.229-1.871l-4.768,0.003l-0.485,0.597c-2.485-4.487-7.765-7.952-13.511-8.277
		c-2.273-0.128-4.518,0.319-6.717,1.341l16.441-41.883l-8.948-0.151l-18.448,47.306l-1.538-5.757
		c-5.409,1.447-17.692,0.591-21.97,0.14l-3.949-0.235l-4.211,0.312c-10.443,0.773-15.453,11.29-16.006,12.526
		C98.431,76.992,87.5,76.956,86.639,76.922l-0.095-0.012l-0.234,0.001c-0.044,0-0.088,0-0.131,0c-5.672,0-9.804-1.672-12.633-5.107
		c-3.473-4.215-4.502-10.367-4.635-15.635c5.725,3.787,13.016,4.107,17.357,3.405l0.203-0.032l0.199-0.053
		c10.213-2.713,17.409-7.81,21.381-15.147c5.99-11.06,2.166-22.984,2-23.487l-0.121-0.322c-3.969-9.344-9.705-14.855-17.049-16.38
		c-10.716-2.226-21.27,5.123-25.447,8.516c-2.861-1.163-7.484-2.995-11.447-4.356c-7.588-2.607-12.062-1.938-23.592,7.167
		c-4.122,3.255-8.201,4.658-12.123,4.17c-6.416-0.797-10.755-6.357-10.799-6.413l-3.299,2.508L2.86,18.237
		c0.256,0.34,6.383,8.344,16.285,9.627c0.904,0.117,1.811,0.176,2.713,0.176c5.318,0,10.578-2.029,15.676-6.055
		c9.925-7.837,11.512-7.292,15.758-5.832c3.192,1.097,6.928,2.553,9.686,3.659L45.94,63.044
		c-3.508,8.252-8.039,13.033-13.465,14.213c-9.51,2.068-19.592-7.043-19.691-7.135l-5.621,6.092
		c0.476,0.441,10.568,9.636,22.439,9.636c1.504,0,3.041-0.149,4.586-0.48C42.433,83.597,48.962,77.157,53.597,66.232 M201.474,56.39
		c1.398-2.508,6.438-2.914,9.581-1.485c2.272,1.031,1.933,1.975,1.733,2.538l-0.024,0.068c-0.841,2.346-1.447,4.04-2.116,4.778
		c-0.361,0.399-1.129,0.927-3.879,1.466c-2.391,0.469-5.408,0.722-8.379-0.684C198.98,61.469,199.977,59.067,201.474,56.39
		 M115.188,62.551c0.206-0.354,0.4-0.686,0.57-0.989c2.686-4.777,6.936-5.425,7.393-5.481l3.814-0.163L128.505,56
		c4.503,1.96,4.799,4.278,3.746,7.364l-2.59,5.758c-3.428,6.475-6.137,7.746-9.643,7.746c-3.724,0-5.59,0-7.396-5.607
		C111.728,68.481,113.812,64.912,115.188,62.551 M91.194,12.269c4.48,0.932,8.188,4.735,11.021,11.308
		c0.338,1.176,2.523,9.549-1.488,16.883c-2.824,5.165-8.189,8.849-15.954,10.953c-1.616,0.209-12.429,1.644-15.214-7.125
		l-7.303-0.037l9.664-24.521C74.356,17.659,83.333,10.638,91.194,12.269"/>
	<path fill="#231F20" d="M29.603,86.519c-12.148,0-22.461-9.412-22.894-9.812l-0.49-0.453l6.524-7.072l0.491,0.447
		c0.1,0.09,9.967,8.961,19.097,6.977c5.205-1.131,9.577-5.781,12.996-13.822l16.785-42.597c-2.582-1.027-6.054-2.374-9.037-3.4
		c-4.107-1.411-5.488-1.886-15.127,5.725c-5.209,4.113-10.621,6.198-16.09,6.198c-0.927,0-1.867-0.061-2.801-0.181
		c-10.17-1.316-16.467-9.539-16.73-9.889l-0.402-0.534l3.848-2.893l3.825-2.908l0.405,0.525c0.041,0.053,4.261,5.401,10.352,6.159
		c3.74,0.465,7.65-0.893,11.627-4.032c5.936-4.688,9.977-7.109,13.508-8.095c3.812-1.064,7.042-0.441,10.715,0.821
		c3.736,1.285,8.044,2.977,11.117,4.221c4.354-3.474,14.928-10.642,25.695-8.404c7.572,1.573,13.469,7.216,17.53,16.774l0.011,0.025
		l0.129,0.348c0.17,0.514,4.078,12.706-2.046,24.015c-4.063,7.507-11.398,12.714-21.8,15.475l-0.264,0.067l-0.203,0.031
		c-4.356,0.706-11.187,0.338-16.745-2.84c0.318,6.021,1.842,10.84,4.433,13.984c2.693,3.273,6.658,4.865,12.117,4.865l0.406-0.002
		l0.106,0.014c0.74,0.018,11.343,0.016,19.215-16.373c0.547-1.221,5.72-12.099,16.56-12.902l4.254-0.316l4.025,0.241
		c4.244,0.448,16.417,1.299,21.727-0.121l0.646-0.173l1.183,4.431l17.876-45.839l10.377,0.176l-16.225,41.33
		c1.828-0.639,3.69-0.909,5.564-0.803c5.395,0.305,10.716,3.392,13.553,7.782l0.086-0.104l5.447-0.004l1.041,1.587
		c0.512-1.069,1.059-2.124,1.63-3.146c3.96-7.094,14.112-8.455,21.11-5.275c5.941,2.699,8.477,8.082,6.461,13.713l-0.023,0.069
		c-2.41,6.731-4.07,10.323-12.705,12.019c-3.389,0.664-6.597,0.695-9.561,0.092c1.51,1.842,4.406,2.967,7.84,3.023
		c0.509,0,12.681-0.145,20.352-12.723l3.854-8.914c-0.16-0.605-0.615-2.42-1.984-8.044l-0.162-0.659l0.662-0.15
		c2.957-0.671,5.162,0.105,6.586,0.986c0.689-0.501,1.414-0.909,2.168-1.211c1.793-0.722,4.646-1.223,8.053,0.484
		c1.293,0.649,5.01,2.512,7.125,2.962l4.389-11.139h-83.404l3.555-9.627h83.641l8.79-22.345h10.349l-8.789,22.345h39.902v9.627
		h-43.695L255.963,68.22c-0.071,0.217-0.479,1.549-0.399,2.989c0.105,1.958,1.004,2.578,1.836,3.004
		c3.295,1.688,6.938,1.974,10.254,0.806c3.059-1.078,5.513-3.275,6.92-6.191c0.49-2.219,1.365-4.648,2.603-7.218l4.177-8.915
		l0.324-0.418c3.959-5.142,8.484-7.76,13.445-7.78h0.055c7.438,0,12.352,6.002,12.889,6.687l0.411,0.526l-3.79,2.968l-3.76,2.988
		l-0.418-0.518c-0.635-0.783-2.971-3.023-5.334-3.023h-0.036c-1.737,0.021-3.595,1.243-5.526,3.635l-3.753,8.006
		c-2.38,4.938-2.437,7.751-1.761,8.663c0.892,1.202,4.195,1.44,5.67,1.23c0.685-0.155,2.496-0.999,4.899-5.423
		c0.563-1.035,1.124-2.211,1.67-3.498l2.618-7.146l10.301,0.113l-0.318,0.885c-0.105,0.297-2.619,7.303-3.742,9.959l-0.74,2.02
		c-0.336,0.921,0.24,2.029,0.969,2.527c0.469,0.32,0.902,0.418,1.596-0.076l16.242-21.79l0.277-0.269
		c9.988-9.689,14.987-10.873,17.879-10.919l4.895-0.08v9.407l-3.84,0.794c-1.42,0.313-3.103,1.304-3.266,1.924
		c-0.006,0.023-0.508,2.484,6.04,8.371c6.999,6.293,5.442,12.268,4.448,14.545c-2.166,4.961-8.168,8.426-14.596,8.428
		c-0.443,0-0.886-0.028-1.312-0.055l-0.236-0.016c-6.264-0.382-10.822-4.731-12.508-11.934l-0.189-0.812l9.959-0.09l0.121,0.521
		c0.159,0.674,0.577,2.462,3.473,2.726c3.123,0.283,5.917-1.362,6.467-2.621c0.33-0.755-0.441-2.075-2.062-3.532
		c-4.051-3.641-6.714-6.983-8.116-10.183c-0.061,0.057-0.118,0.114-0.178,0.171l-16.438,22.051l-0.379,0.332
		c-4.049,3.568-9.434,3.982-13.712,1.054c-0.644-0.44-1.245-0.944-1.792-1.505c-2.025,1.906-4.244,3.108-6.603,3.576
		c-1.022,0.203-3.458,0.379-5.966,0.032c-3.711-0.513-6.712-2-8.727-4.313c-1.823,1.396-3.854,2.492-6.051,3.268
		c-2.375,0.837-4.848,1.262-7.354,1.262c-3.618,0-7.146-0.867-10.489-2.578c-4.409-2.259-6.923-6.322-7.077-11.445
		c-0.103-3.395,0.895-6.177,1.009-6.482l0.03-0.079l2.898-7.359c-2.583-0.767-5.305-2.083-7.885-3.377
		c-0.093-0.046-0.178-0.081-0.24-0.103c-0.281,0.209-0.822,0.892-1.211,1.714l-3.858,11.229l-5.86,17.119l-9.143-0.139l1.141-2.879
		c-7.025,3.534-14.752,4.311-16.088,4.311c-0.049,0-0.088,0-0.109-0.002c-6.73-0.113-12.455-2.777-15.711-7.303
		c-1.621-2.256-3.383-6.064-2.676-11.477c-0.248-0.27-0.494-0.549-0.736-0.837c-0.24,0.198-0.479,0.387-0.717,0.563
		c-1.15,4.834-3.424,9.614-5.961,12.526c-3.367,3.862-7.275,5.904-11.303,5.904c-0.352,0-0.703-0.015-1.054-0.046
		c-4.874-0.426-9.263-3.753-13.048-9.891c-0.035,0.076-0.068,0.154-0.104,0.231l-2.793,8.386h-10.747l0.289-0.879
		c0.087-0.263,2.53-6.998,4.358-11.203l5.698-14.609c-2.886,0.431-6.542,0.608-10.897,0.525c0.805,2.828,0.613,5.955-0.568,9.313
		l-0.01,0.026l-0.142,0.35l-2.847,6.311c-2.252,4.278-4.542,7.219-7.208,9.256c-2.985,2.281-6.396,3.389-10.423,3.389
		c-2.641,0-5.451-0.178-8.123-1.47c-2.756-1.334-4.891-3.642-6.505-7.04c-8.088,7.931-16.319,8.562-18.699,8.562
		c-0.192,0-0.349-0.005-0.47-0.009h-0.041c-8.412,0-14.998-2.824-19.572-8.395c-6.222-7.576-6.924-18.582-6.58-25.742l-5.816,14.76
		C49.487,77.632,42.8,84.202,34.329,86.022C32.8,86.351,31.209,86.519,29.603,86.519 M8.117,76.167
		c2.2,1.89,11.178,9.014,21.485,9.014c1.514,0,3.008-0.156,4.445-0.465c8.018-1.725,14.385-8.027,18.928-18.738l9.41-23.88v0
		l8.975-22.77l0.127-0.108c2.6-2.211,11.717-9.293,19.844-7.605c4.705,0.978,8.574,4.914,11.498,11.697l0.029,0.079
		c0.28,0.977,2.627,9.765-1.545,17.39c-2.914,5.33-8.42,9.125-16.364,11.279l-0.11,0.02c-2.697,0.348-5.193,0.274-7.42-0.219
		c-4.154-0.92-7.029-3.304-8.338-6.907l-7.043-0.035l-0.296,2.404c-0.713,5.782-1.565,20.214,5.9,29.304
		c4.31,5.247,10.546,7.907,18.538,7.907h0.081c0.11,0.005,0.253,0.009,0.43,0.009c2.316,0,10.489-0.639,18.43-8.851l0.702-0.726
		l0.395,0.928c3.372,7.933,8.891,8.598,13.801,8.598c3.723,0,6.867-1.02,9.61-3.114c2.503-1.913,4.673-4.709,6.827-8.798
		l2.816-6.244l0.118-0.296c1.202-3.419,1.292-6.554,0.27-9.314l-0.345-0.928l0.988,0.026c5.311,0.143,9.596-0.086,12.734-0.678
		l0.93-0.176l-1.801-6.738c-5.77,1.251-17.385,0.442-21.547,0.004l-3.891-0.232l-4.164,0.309
		c-10.066,0.746-14.926,10.97-15.447,12.132c-3.447,7.178-7.793,12.223-12.932,15.01c-4.066,2.207-7.229,2.148-7.572,2.136
		l-0.109-0.011h-0.326c-5.885,0-10.186-1.75-13.15-5.351c-3-3.643-4.61-9.04-4.785-16.044l-0.031-1.281l1.071,0.707
		c5.407,3.579,12.472,4.018,16.878,3.304l0.172-0.027l0.165-0.044c10.03-2.662,17.085-7.649,20.968-14.819
		c5.807-10.723,2.17-22.289,1.955-22.946l-0.111-0.296c-3.878-9.122-9.451-14.497-16.564-15.974
		c-10.469-2.175-20.893,5.136-24.89,8.38l-0.306,0.25l-0.366-0.149c-3.076-1.25-7.556-3.017-11.413-4.343
		c-3.438-1.181-6.439-1.77-9.922-0.797c-3.352,0.936-7.251,3.285-13.038,7.856c-4.269,3.37-8.515,4.819-12.622,4.31
		c-5.561-0.691-9.547-4.713-10.816-6.159l-2.795,2.123l-2.762,2.079c1.534,1.824,7.113,7.771,15.414,8.845
		c0.875,0.112,1.759,0.169,2.629,0.169c5.159,0,10.295-1.988,15.262-5.911c4.979-3.932,7.943-5.82,10.227-6.517
		c2.375-0.724,3.965-0.178,6.164,0.578c3.254,1.119,7.08,2.613,9.716,3.67l0.616,0.247L46.563,63.289
		c-3.605,8.479-8.295,13.394-13.946,14.622c-8.584,1.865-17.582-5.033-19.778-6.861L8.117,76.167z M322.554,73.934
		c2.264,8.306,7.872,9.896,11.08,10.091l0.238,0.015c0.427,0.026,0.826,0.052,1.229,0.052c5.818,0,11.442-3.207,13.371-7.625
		c0.879-2.012,2.234-7.305-4.117-13.015c-6.745-6.065-6.633-8.962-6.439-9.706c0.412-1.56,3.061-2.622,4.277-2.893l2.782-0.574
		v-6.959l-3.531,0.059c-2.668,0.043-7.325,1.183-16.972,10.543l-0.201,0.193l-16.295,21.859l-0.078,0.059
		c-1.095,0.826-2.181,0.883-3.227,0.166c-1.152-0.786-2.057-2.488-1.471-4.09l0.759-2.066c0.872-2.062,2.672-7,3.401-9.021
		l-7.473-0.082l-2.312,6.306c-0.565,1.331-1.147,2.554-1.733,3.63c-2.466,4.537-4.521,5.818-5.812,6.096l-0.043,0.008
		c-1.361,0.203-5.543,0.162-6.963-1.754c-1.236-1.668-0.641-5.326,1.631-10.033l3.815-8.145l0.05-0.062
		c2.211-2.761,4.432-4.172,6.598-4.196l0.057-0.001c2.686,0,4.992,2.06,5.929,3.028l2.755-2.188l2.725-2.135
		c-1.357-1.539-5.537-5.659-11.406-5.659h-0.051c-4.525,0.018-8.695,2.46-12.391,7.26l-0.234,0.301l-4.118,8.788
		c-1.208,2.512-2.056,4.867-2.518,7.006l-0.017,0.075l-0.033,0.07c-1.557,3.273-4.299,5.739-7.718,6.944
		c-3.665,1.293-7.683,0.982-11.308-0.875c-1.119-0.573-2.422-1.561-2.562-4.121c-0.094-1.695,0.376-3.213,0.471-3.498l0.012-0.035
		l12.541-31.831h43.27v-6.954h-40.529l8.787-22.345h-7.473l-8.789,22.345h-83.623l-2.564,6.954h83.447l-5.492,13.942l-0.506-0.055
		c-2.211-0.237-6.469-2.372-8.072-3.175c-2.967-1.488-5.422-1.061-6.959-0.442c-0.776,0.312-1.525,0.754-2.221,1.313l-0.395,0.316
		l-0.436-0.311c-1.084-0.753-2.832-1.517-5.239-1.156c0.74,3.031,1.73,7.066,1.853,7.491l0.103,0.235l-4.122,9.518
		c-8.055,13.254-20.977,13.406-21.523,13.406c-4.037-0.068-7.443-1.509-9.129-3.854c-0.285-0.398-0.527-0.828-0.717-1.279
		l-0.541-1.291l1.344,0.39c3.184,0.922,6.721,1.013,10.512,0.269c7.96-1.562,9.338-4.549,11.703-11.157l0.025-0.069
		c1.762-4.926-0.498-9.654-5.756-12.043c-7.998-3.634-16.483-0.499-19.391,4.708c-0.75,1.343-1.456,2.741-2.098,4.157l-0.539,1.188
		l-0.649-1.13c-0.093-0.16-0.167-0.284-0.245-0.401l-1.027-1.567l-4.09,0.002l-0.909,1.12l-0.479-0.867
		c-2.462-4.446-7.673-7.634-12.964-7.934c-2.155-0.12-4.309,0.309-6.398,1.279l-1.514,0.704l16.699-42.541l-7.521-0.127
		l-18.86,48.366l-6.576,16.866c-1.43,3.287-3.271,8.221-4.002,10.223h7.904l2.521-7.555c1.179-2.707,2.424-5.233,3.695-7.51
		c4.736-8.471,9.59-12.998,13.66-12.763c4.787,0.271,7.78,4.111,7.812,6.112c0.068,4.234-2.457,10.477-4.674,13.021
		c-1.3,1.49-3.287,3.228-5.382,3.047c-2.044-0.179-4.297-2.146-6.54-5.698l-5.955,3.588c3.52,5.615,7.516,8.655,11.888,9.038
		c0.312,0.026,0.626,0.04,0.937,0.04c3.629,0,7.188-1.883,10.293-5.445c2.445-2.806,4.639-7.478,5.725-12.193l0.059-0.244
		l0.203-0.148c0.441-0.315,0.893-0.68,1.34-1.08l0.529-0.469l0.441,0.554c0.423,0.534,0.867,1.046,1.318,1.522l0.225,0.236
		l-0.047,0.32c-0.758,5.141,0.883,8.723,2.393,10.822c3.007,4.181,8.346,6.641,14.648,6.748h0.086c1.379,0,9.899-0.871,17.051-5.012
		l1.665-0.965l-1.813,4.576l6.238,0.094l5.545-16.201l3.881-11.297l0.016-0.032c0.328-0.71,1.182-2.144,2.042-2.479
		c0.194-0.078,0.536-0.143,1.234,0.205c3.367,1.689,5.937,2.859,8.349,3.48l0.732,0.189l-3.473,8.813
		c-0.102,0.275-1.018,2.831-0.926,5.971c0.141,4.612,2.396,8.269,6.354,10.295c3.15,1.613,6.475,2.433,9.879,2.432
		c2.354,0,4.678-0.399,6.91-1.187c2.262-0.797,4.338-1.961,6.172-3.457l0.537-0.438l0.438,0.576
		c1.792,2.316,4.645,3.803,8.256,4.301c2.346,0.326,4.59,0.166,5.523-0.02c2.287-0.453,4.443-1.695,6.412-3.692l0.506-0.515
		l0.475,0.545c0.596,0.686,1.274,1.291,2.018,1.801c3.757,2.571,8.498,2.197,12.074-0.955l0.274-0.24l16.417-22.025l0.039-0.037
		c0.324-0.311,0.637-0.609,0.941-0.896l0.742-0.695l0.346,0.953c1.174,3.227,3.906,6.785,8.127,10.58
		c1.507,1.355,3.148,3.335,2.395,5.062c-0.82,1.878-4.233,3.743-7.816,3.417c-2.354-0.215-3.867-1.301-4.506-3.231L322.554,73.934z
		 M163.094,68.831l0.345,0.574c2.068,3.431,4.204,5.48,5.859,5.627c1.679,0.141,3.537-1.766,4.26-2.594
		c2.018-2.318,4.408-8.24,4.346-12.121c-0.023-1.354-2.522-4.57-6.553-4.799c-0.074-0.005-0.148-0.007-0.225-0.007
		c-3.407,0-7.943,4.487-12.191,12.085c-0.934,1.67-1.851,3.477-2.739,5.393L163.094,68.831z M63.237,43.587l6.812,0.035l0.148,0.463
		c2.344,7.384,10.865,7.13,14.446,6.671c7.554-2.058,12.769-5.629,15.497-10.618c3.861-7.062,1.754-15.237,1.443-16.338
		c-2.74-6.335-6.282-9.995-10.525-10.878c-3.202-0.663-6.982,0.104-11.23,2.283c-3.402,1.743-6.189,3.951-7.349,4.925L63.237,43.587
		z M120.019,77.537c-3.792,0-6.08,0-8.033-6.071c-0.984-3.064,1.188-6.788,2.627-9.252c0.203-0.352,0.395-0.679,0.564-0.98
		c2.842-5.059,7.385-5.754,7.892-5.816l0.054-0.004l3.85-0.165l1.689,0.091l0.111,0.048c5.284,2.302,5.098,5.298,4.111,8.193
		l-0.023,0.059l-2.609,5.796C126.679,76.182,123.688,77.537,120.019,77.537 M123.208,56.747c-0.549,0.072-4.388,0.732-6.865,5.143
		c-0.174,0.307-0.369,0.641-0.576,0.998v0.001c-1.32,2.258-3.311,5.671-2.508,8.167c1.656,5.145,3.15,5.145,6.76,5.145
		c3.328,0,5.757-1.176,9.043-7.371l2.566-5.711c0.955-2.816,0.705-4.689-3.281-6.457l-1.385-0.074L123.208,56.747z M203.319,64.796
		c-1.62,0-3.419-0.271-5.215-1.121l-0.553-0.262l0.211-0.574c0.581-1.576,1.594-4.033,3.127-6.775
		c1.605-2.877,7.025-3.32,10.441-1.768c2.511,1.141,2.432,2.4,2.085,3.372l-0.024,0.068c-0.898,2.507-1.49,4.164-2.248,5.001
		c-0.457,0.506-1.319,1.101-4.246,1.674C205.898,64.607,204.671,64.796,203.319,64.796 M199.241,62.712
		c2.754,1.1,5.514,0.758,7.398,0.388c2.885-0.567,3.357-1.088,3.514-1.259c0.579-0.641,1.195-2.369,1.979-4.556l0.024-0.069
		c0.156-0.434,0.332-0.926-1.38-1.703c-2.831-1.286-7.503-0.977-8.722,1.203C200.746,59.061,199.827,61.19,199.241,62.712"/>
	<path fill="#F16362" d="M318.678,28.064c0.949,0,2.987,0.54,3.374,1.581c0.583,1.575,0.628,3.234-2.49,8.071l6.584,4.112
		c4.471-6.933,5.503-12.36,3.152-16.591c-3.016-5.43-10.014-5.481-10.807-5.461l-0.056,8.289
		C318.452,28.065,318.66,28.064,318.678,28.064"/>
	<path fill="#231F20" d="M326.351,42.745l-7.721-4.821l0.368-0.57c3.054-4.73,2.905-6.185,2.426-7.476
		c-0.164-0.442-1.487-1.145-2.746-1.145l-0.915,0l0.065-9.61l0.646-0.016c0.328-0.012,8.11-0.131,11.409,5.805
		c2.481,4.467,1.442,10.118-3.177,17.278L326.351,42.745z M320.485,37.505l5.451,3.404c4.026-6.438,4.934-11.464,2.777-15.347
		c-2.428-4.372-7.709-5.017-9.559-5.106l-0.047,6.966c1.088,0.12,3.074,0.657,3.57,1.99
		C323.367,31.271,323.216,33.145,320.485,37.505"/>
	<rect x="41.13" y="90.032" fill="#F16362" width="325.59" height="8.29"/>
	<path fill="#231F20" d="M367.388,98.991H40.46v-9.628h326.928V98.991z M41.799,97.653h324.252v-6.954H41.799V97.653z"/>
	<polygon fill="#F16362" points="158.895,27.951 119.069,27.951 119.069,36.241 155.645,36.241 	"/>
	<path fill="#231F20" d="M156.101,36.91h-37.699v-9.627h41.475L156.101,36.91z M119.737,35.573h35.451l2.727-6.954h-38.178V35.573z"
		/>
	<path fill="#231F20" d="M29.276,82.745c-3.992,0-8.318-1.212-12.716-3.584c-4.386-2.367-7.265-5.01-7.385-5.121l0.908-0.981
		c0.028,0.026,2.896,2.656,7.142,4.942c3.875,2.085,9.727,4.305,15.608,3.038c6.62-1.425,11.997-6.911,15.981-16.308l18.698-47.453
		l0.108-0.102c0.124-0.12,3.127-2.951,7.606-5.529c5.98-3.442,11.721-4.726,16.597-3.712c6.164,1.28,11.061,6.103,14.559,14.336
		l0.02,0.051c0.146,0.444,3.527,10.987-1.756,20.742c-3.498,6.462-9.964,10.985-19.217,13.442l-0.066,0.014
		c-0.168,0.026-4.15,0.65-8.708-0.334c-6.122-1.32-10.281-4.933-12.032-10.446l1.275-0.404c1.619,5.101,5.334,8.313,11.037,9.543
		c4.112,0.889,7.812,0.379,8.186,0.324c8.858-2.357,15.029-6.652,18.344-12.765c4.894-9.023,1.852-19.113,1.674-19.675
		c-3.314-7.788-7.885-12.336-13.585-13.521c-3.174-0.659-8.468-0.577-15.659,3.562c-3.886,2.236-6.681,4.723-7.247,5.243
		L50.052,65.237c-4.17,9.839-9.869,15.59-16.941,17.111C31.874,82.613,30.594,82.745,29.276,82.745"/>
	<path fill="#231F20" d="M21.483,24.938c-0.748,0-1.494-0.048-2.241-0.145c-8.467-1.096-13.73-7.977-13.95-8.27l1.067-0.804
		l0.001,0.001c0.068,0.09,5.178,6.733,13.066,7.748c4.904,0.63,9.873-1.012,14.777-4.884c11.004-8.69,14.143-8.724,20.306-6.606
		c6.021,2.069,13.874,5.36,13.953,5.394l-0.517,1.233c-0.078-0.033-7.893-3.307-13.871-5.362c-5.428-1.866-8.066-2.277-19.045,6.391
		C30.567,23.16,26.019,24.938,21.483,24.938"/>
	<path fill="#231F20" d="M86.414,82.116c-0.233,0-0.39-0.01-0.455-0.014c-0.04,0-0.081,0-0.12,0c-5.363,0-9.839-1.34-13.309-3.986
		c-2.949-2.253-5.19-5.463-6.662-9.542c-1.963-5.444-2.195-11.521-2.045-15.659c0.086-2.335,0.299-4.313,0.461-5.563
		c0.166-1.259,0.26-1.86,0.341-2.172l-0.001-0.001l0.004-0.016l0.002,0c0.072-0.258,0.133-0.311,0.229-0.389l0.364-0.3l0.404,0.243
		c0.192,0.116,0.371,0.36,0.309,0.704h0.002c-0.037,0.188-3.635,18.918,4.674,28.993c3.477,4.215,8.6,6.352,15.227,6.352
		c0.045,0,0.092-0.001,0.139-0.001l0.029-0.001l0.027,0.003c0.033,0.003,3.498,0.236,8.07-1.942
		c7.662-3.649,12.5-11.156,15.212-16.816c0.097-0.223,1.136-2.553,3.194-4.984c2.838-3.35,6.267-5.264,9.914-5.533l0.719-0.053
		v1.508l-0.619,0.046c-0.016,0.001-1.62,0.135-3.666,1.096c-2.727,1.282-4.906,3.351-6.478,6.148
		c-0.163,0.289-0.347,0.604-0.543,0.94c-1.689,2.896-4.243,7.271-2.874,11.526c2.398,7.444,5.947,8.02,10.706,8.02
		c5.514,0,9.097-2.719,12.769-9.696l2.699-6c1.924-5.489,0.094-9.36-5.592-11.836l-0.475-0.207l0.258-1.646l0.633,0.066
		c0.161,0.017,16.088,1.673,23.232-0.237l0.347,1.291c-5.835,1.561-16.843,0.872-21.536,0.479c1.823,1.064,3.178,2.342,4.043,3.813
		c1.42,2.418,1.535,5.36,0.342,8.746l-0.02,0.052l-2.736,6.083c-3.898,7.407-7.943,10.43-13.964,10.43
		c-4.978,0-9.313-0.674-11.978-8.948c-0.543-1.686-0.548-3.379-0.254-4.99c-2.965,4.59-7.154,9.268-12.844,11.951
		C90.688,81.916,87.577,82.116,86.414,82.116 M65.278,45.312l-0.126,0.635L65.278,45.312z"/>
	<path fill="#231F20" d="M147.548,82.923l-1.256-0.455c0.017-0.053,1.175-3.506,3.178-8.098l26.949-68.663l1.246,0.488
		L155.451,62.79c5.292-8.508,10.616-12.662,15.86-12.367c3.033,0.172,5.963,1.402,8.244,3.469c2.174,1.969,3.443,4.416,3.479,6.715
		c0.091,5.449-2.871,12.575-5.692,15.812c-2.771,3.178-5.84,4.719-8.871,4.451c-3.572-0.312-6.963-3.09-10.076-8.258l1.146-0.689
		c2.88,4.78,5.925,7.342,9.047,7.615c3.27,0.284,6.016-2.016,7.745-3.998c2.604-2.988,5.447-9.846,5.366-14.912
		c-0.076-4.666-5.688-8.6-10.465-8.871c-0.146-0.008-0.295-0.012-0.443-0.012c-8.598,0-16.137,14.079-20.154,23.307L147.548,82.923z
		"/>
	<path fill="#231F20" d="M206.393,81.524c-0.032,0-0.052,0-0.06,0c-5.404-0.092-9.928-2.125-12.409-5.58
		c-2.023-2.814-2.555-6.41-1.561-10.456c-2.542-2.171-3.96-4.703-4.602-5.849c-0.017-0.033-0.034-0.063-0.053-0.094
		c-0.925,1.104-3.636,4.186-5.394,4.656l-0.346-1.291c1.213-0.326,3.704-2.969,4.99-4.558l0.199-0.248h1.236l0.195,0.302
		c0.09,0.137,0.193,0.322,0.338,0.578c0.609,1.092,1.777,3.175,3.837,5.074c0.253-0.881,1.464-4.817,4.155-9.639
		c2.807-5.025,10.566-5.889,15.775-3.521c3.949,1.793,5.547,4.988,4.274,8.542l-0.023,0.069c-2.091,5.841-2.872,8.027-9.599,9.347
		c-5.375,1.054-10.022,0.226-13.82-2.462c-0.711,3.413-0.208,6.418,1.482,8.77c2.199,3.061,6.441,4.938,11.344,5.021
		c0.038,0.002,3.84,0.029,8.773-1.812c4.523-1.689,10.955-5.344,15.926-13.176l3.781-10.562c-0.02-0.525-0.187-2.829-1.501-3.733
		c-0.696-0.481-1.669-0.493-2.888-0.033l-0.471-1.251c1.654-0.623,3.043-0.562,4.123,0.186c2.055,1.421,2.079,4.797,2.079,4.94
		v0.115l-3.914,10.928l-0.04,0.062c-5.189,8.213-11.939,12.036-16.686,13.797C210.665,81.456,206.928,81.524,206.393,81.524
		 M193.882,64.996c0.045,0.036,0.092,0.07,0.139,0.104c3.539,2.629,7.936,3.451,13.07,2.443c5.98-1.172,6.535-2.721,8.597-8.484
		l0.024-0.068c1.459-4.079-2.008-6.166-3.567-6.875c-4.671-2.123-11.675-1.309-14.056,2.955c-2.91,5.213-4.07,9.47-4.082,9.513
		l-0.01,0.028C193.958,64.741,193.919,64.868,193.882,64.996"/>
	<path fill="#231F20" d="M263.157,81.59c-2.922,0-5.855-0.712-8.604-2.12c-3.049-1.561-4.719-4.286-4.825-7.88
		c-0.081-2.65,0.716-4.82,0.749-4.911l23.26-59.075l1.244,0.489l-23.255,59.063c-0.112,0.31-2.839,7.911,3.436,11.124
		c4.319,2.213,9.122,2.576,13.522,1.025c4.272-1.508,7.646-4.617,9.494-8.758l1.221,0.545c-1.999,4.479-5.646,7.844-10.271,9.474
		C267.187,81.251,265.175,81.59,263.157,81.59"/>
	<path fill="#231F20" d="M288.29,81.585c-2.615,0-6.68-0.588-8.857-3.402c-2.379-3.071-1.992-7.922,1.139-14.416l3.996-8.523
		l0.045-0.059c3.139-4.076,6.564-6.15,10.18-6.165h0.037c5.571,0,9.459,4.887,9.623,5.096L303.4,54.94l0.526-0.412L303.4,54.94
		c-0.036-0.045-3.661-4.583-8.571-4.583h-0.041c-3.162,0.016-6.214,1.896-9.072,5.586l-3.936,8.397
		c-2.899,6.007-3.33,10.387-1.291,13.023c2.588,3.345,8.613,2.962,9.693,2.748c4.24-0.842,7.667-6.9,9.977-12.323
		c2.292-6.239,2.746-7.409,2.767-7.462l1.259,0.455c-0.607,1.82-1.564,4.684-2.859,7.709c-0.33,0.902-0.699,1.91-1.109,3.027
		c-1.087,2.967,0.446,5.956,2.521,7.376c2.191,1.498,4.782,1.273,6.943-0.599l16.359-21.945l0.039-0.037
		c6.611-6.415,11.678-9.696,15.062-9.751l0.679-0.011v1.817l-0.534,0.11c-0.052,0.011-5.419,1.173-6.427,4.903
		c-0.849,3.158,1.665,7.494,7.271,12.535c3.589,3.226,4.785,6.737,3.375,9.887c-1.657,3.695-6.789,6.166-11.682,5.625
		c-4.574-0.508-7.737-3.445-8.676-8.059l1.311-0.268c1.115,5.486,5.186,6.738,7.512,6.996c4.281,0.473,8.905-1.698,10.314-4.842
		c1.172-2.613,0.117-5.5-3.049-8.346c-6.095-5.48-8.674-10.152-7.664-13.884c0.246-0.911,0.684-1.691,1.23-2.356
		c-2.656,1.838-5.434,4.314-7.754,6.564l-16.379,21.973l-0.053,0.047c-2.662,2.343-5.888,2.621-8.633,0.742
		c-2.03-1.388-3.264-3.629-3.434-5.938c-2.168,3.669-4.877,6.723-8.108,7.365C290.044,81.503,289.271,81.585,288.29,81.585"/>
	<path fill="#231F20" d="M323.258,40.321l-1.125-0.725c3.395-5.26,4.46-9.35,3.084-11.827c-1.665-2.994-6.455-3.005-6.995-2.994
		l-0.02-1.337c1.014-0.013,6.184,0.082,8.186,3.681C328.04,30.098,326.987,34.539,323.258,40.321"/>
	<rect x="40.782" y="93.886" fill="#231F20" width="325.588" height="1.338"/>
	<rect x="176.359" y="32.151" fill="#231F20" width="135.247" height="1.337"/>
	<rect x="119.103" y="31.805" fill="#231F20" width="38.106" height="1.337"/>
	
		<rect x="228.306" y="65.097" transform="matrix(0.9572 0.2894 -0.2894 0.9572 31.3158 -63.0741)" fill="#231F20" width="1.336" height="18.553"/>
	<path fill="#231F20" d="M236.138,54.969l-1.26-0.448c0.061-0.166,1.49-4.111,4.569-5.349c1.458-0.586,3.021-0.471,4.649,0.345
		c5.615,2.816,9.121,4.155,11.563,3.165l0.503,1.24c-2.912,1.18-6.7-0.218-12.668-3.209c-1.268-0.635-2.459-0.737-3.545-0.301
		C237.433,51.421,236.149,54.935,236.138,54.969"/>
</g>
</svg>
