<svg xmlns="http://www.w3.org/2000/svg" viewBox="0 0 102.87 216.68"><defs><style>.cls-1{fill:#262626;}</style></defs><title>Asset 9</title><g id="Layer_2" data-name="Layer 2"><g id="OBJECTS"><path class="cls-1" d="M1.34,143.29a12,12,0,0,0,.45,3.78A49.76,49.76,0,0,1,3.5,154c1.66,8.11,6.34,21.79,9.44,27.55,6.78,12.64,19.08,30.29,23.17,33.25a9.88,9.88,0,0,0,3.82,1.89c1,0,.86-.4-1.07-2.65-7.48-8.78-10.4-12.69-15.14-20.26-7.94-12.71-9.33-15.51-12.73-25.6C7.93,159,5,145.41,5.85,144c.71-1.21,7.41-9.28,10.3-12.4,6-6.53,16.53-14.57,23.11-17.72l2.29-1.08,3.08,2.26c5,3.69,10.61,6,14.33,6a84.47,84.47,0,0,1,12.18,2,67,67,0,0,0,16.11,2c6.56,0,7.43-.07,10-1.51,10-5.58,6.17-17.16-6.77-20.59l-2.75-.73,3.06-1.44c6.95-3.27,9.61-9.64,6.41-15.33-2.48-4.43-8.09-6.05-15.21-4.4a8.68,8.68,0,0,1-2.67.39,13.24,13.24,0,0,1,1.48-3.15c2.24-4,2.72-10.33,1-13.41-2.63-4.73-8.49-5.71-14.61-2.46-7,3.76-13.38,11.91-18.54,23.84a27.81,27.81,0,0,1-4.41,7.24c-2.64,2.66-5.42,8.08-6.35,12.36-.57,2.74-.94,3.2-3.76,4.78-6.46,3.63-19.83,15.36-26.26,23l-3,3.58-.43-2.93c-1.59-10.56,3.66-41.25,9.75-57,1.67-4.32,3.65-10,4.41-12.57L20,60.06l4.53-.38c5.77-.49,11.11-2.46,12.71-4.7.89-1.26,3.24-2.5,8.91-4.72,19.19-7.49,27.37-14.06,27.37-22,0-7.28-7.25-10.37-15.93-6.79-2.07.86-3.79,1.55-3.85,1.55s.47-1.47,1.15-3.27C57.2,13.66,56.29,8,52.52,5c-2.18-1.71-4.61-1.65-8.23.19-2.8,1.42-8.88,7.22-11.85,11.31l-1.37,1.88,0-3.57q0-8.55-3.4-12.22C26,.76,25.11.35,22.41.08,18.47-.3,16,.63,13.58,3.42c-4.81,5.48-4.73,16.89.21,31.81a64.56,64.56,0,0,1,3.07,19c0,1.23-1.42,5.62-3.24,10C8,77.7,6.12,84,3.58,97.29-.06,116.41-.55,122,.46,131.92.93,136.45,1.33,141.57,1.34,143.29Zm92.84-33.77c4,2.66,4.74,7.34,1.44,9.5-2.09,1.37-9.83,1.69-15.24.62-2.24-.45-6.95-1.32-10.49-2l-6.42-1.17.18-4.07.18-4.06,3.12-.84a65.33,65.33,0,0,1,10-1.21C84.71,105.9,90.25,106.93,94.18,109.52Zm-8-23.87c3.81-.28,4.39-.17,5.77,1.13,3.6,3.38.82,8.52-6,11a103.44,103.44,0,0,1-12.82,2.91c-12.06,2.09-11.74,2.11-12.73-.6s-.16-3.9,4.88-6.32a52.19,52.19,0,0,0,6-3.4C74.73,88.07,81.07,86,86.19,85.65ZM55.55,83C62,72,69.45,64.89,74.31,64.89c2.23,0,4.19,2.46,4.19,5.27s-2.79,8.4-6,12.13a25.2,25.2,0,0,1-5.7,4.48c-4.75,2.67-8.12,5.37-8.6,6.88s-.82,1.52-3.12-.35a7,7,0,0,0-2.62-1.55C50.7,91.74,51.25,90.17,55.55,83Zm-11.39,19c3.86-6.93,5.62-7.79,9-4.38,2.69,2.7,6.11,11.52,6.21,16,0,1.85-.21,3.47-.55,3.59-1.46.52-8.41-3.7-12.39-7.53l-4.28-4.11Zm20.93-77a3.22,3.22,0,0,1,3.21,1.62c1,1.58,1,1.75-.42,4.46-2.38,4.49-9.46,9.08-21.37,13.85-2.5,1-5.6,2.27-6.91,2.83-2.1.9-2.38.9-2.71,0C36.23,46,43.58,37.5,50,32.54,55,28.68,62.46,24.92,65.09,24.92Zm-35.71,9.7C32.54,24.91,36,18.78,41.32,13.78,48,7.44,51.13,7,51.53,12.44c.15,2.11-.3,3.71-2.08,7.33C46.71,25.29,39.3,35.31,34.89,39.44a17.21,17.21,0,0,1-3.76,3,5.36,5.36,0,0,1-2.05-1.18L27.62,40Zm4.16,16.57c0,.35-1,1.06-2.15,1.54A25.38,25.38,0,0,1,25.87,54l-3.4.39L22.08,52c-1-5.89-.27-11.26,1.17-8.93A4.32,4.32,0,0,0,25,44.27C26.91,45.05,33.54,50.42,33.54,51.19ZM15.57,8c2.34-4.64,7.2-5.1,9-.86,1.87,4.48,1.64,20.76-.39,27.89-.6,2.11-.88,2.35-2.75,2.35s-2.12-.15-3.7-4.53C13.84,22.19,13.06,13,15.57,8Z"/></g></g></svg>