<svg xmlns="http://www.w3.org/2000/svg" viewBox="0 0 161.81 212.89"><defs><style>.cls-1{fill:#262626;}</style></defs><title>Asset 6</title><g id="Layer_2" data-name="Layer 2"><g id="OBJECTS"><path class="cls-1" d="M1.66,52.82c4,4,17.05,7,23.46,5.55,2.23-.52,3.46-.53,3.88,0s5.74,3.71,12,7.35,14.58,8.59,18.49,11A82.72,82.72,0,0,0,69.07,82c2.47.89,2.51,1,7.06,12.61,4.27,10.93,7.05,19.36,6.48,19.68-.13.08-4.28-1.91-9.22-4.41s-12.18-5.73-16.1-7.18c-7-2.58-23.94-7.92-24.85-7.84-.25,0-1.75-2.35-3.3-5.28C23.78,79.5,18.38,72.84,15.06,72.19,9,71,8,76.57,12.84,84.78a14.59,14.59,0,0,1,1.7,3.4L11,89.2c-7.31,2.06-8.24,7.73-1.67,10.2l2.42.91-1.85,1.32c-2.82,2-5.21,4.94-5.57,6.77-.64,3.28,2.42,5.51,7.14,5.17s8.79-2.09,16-6.91l6.83-4.57,5.19,1.65c16.07,5.06,21.69,7,30.48,10.67,5.34,2.21,10.87,4.44,12.27,4.94,2.28.83,2.66,1.27,3.55,4.08,5.54,17.72,6.38,20.1,12.35,34.71.55,1.34.05,1.15-5.86-2.24A133,133,0,0,0,79,149.45l-6.84-2.74-.58-2.87C70.41,138,64.06,131.27,60,131.47s-6.67,5.64-5.12,11l.71,2.49-2.62.27c-3.72.36-7.39,2.83-7.86,5.28-.51,2.6,1.34,5.27,4.44,6.4,2.69,1,2.68,1,1.34,2.61a11.2,11.2,0,0,0-2.51,7.3c.39,5,5.05,5.29,11.77.76,4.44-3,11.13-9.72,12.41-12.48.73-1.57.86-1.6,3.52-.67,7.86,2.71,24.39,10.78,25.44,12.41.73,1.12,15.28,40.27,15.18,40.8a10.64,10.64,0,0,0,1.48,2.8c1.78,2.72,2,2.87,3.34,1.81.75-.61.77-1.2.12-3l-5.39-14.59c-5.21-14.07-9.2-26-9.15-27.26a4.85,4.85,0,0,0-.71-2.15c-.41-.71-1.71-3.84-2.9-7s-3.09-8.09-4.22-11.06l-2.08-5.39,3.27-6.31,3.28-6.31,13-5.57,13-5.58,3.36,3.09q10.6,9.72,19.18,7.68c3.3-.79,5.72-3.49,5.58-6.21-.08-1.42-2.17-4.08-4.09-5.17-.28-.15.58-1.31,1.92-2.56,4-3.7,5-7.86,2.73-11-.95-1.32-1.66-1.63-4.56-1.93l-3.41-.37.87-3.42c1.17-4.58,0-7.07-3.53-7.77-2-.39-2.93-.13-5.53,1.63-5.55,3.76-11.88,12.94-13,18.91l-.54,2.8-5.71,2.38c-3.13,1.31-8,3.44-10.87,4.74a29.17,29.17,0,0,1-5.33,2.12c-.47-.71,19.65-37.15,26-47.07.81-1.27,2-1.62,7.33-2.28,10.9-1.33,15-3,18.84-7.34,2.87-3.32,3.65-6.2,2.25-8.28-1.26-1.86-3.14-2.23-6-1.17a12.83,12.83,0,0,1-2.54.78,7,7,0,0,1,.24-2.78c.69-3.54.28-5.71-1.4-7.34s-4.12-1.59-7.33.57a9.86,9.86,0,0,1-2.65,1.51c-.05-.1-.48-1.66-1-3.44-1.43-5.32-5.06-7.89-8.78-6.23-5.45,2.42-7.19,11.92-4.39,23.81.72,3,1.1,6.31.87,7.35s-5.66,11.16-12.06,22.47c-10.66,18.82-14.74,27-19.07,38.07-.85,2.2-1.72,3.75-1.93,3.44s-1.68-4.83-3.27-10-3.47-11.28-4.19-13.5l-1.31-4,2.23-13.92c1.23-7.66,3-19.79,4-26.94s2.22-15.48,2.77-18.49l1-5.46,7-2.52c8.93-3.2,13.22-5.67,16.21-9.29,1.9-2.29,2.42-3.4,2.54-5.43.25-4.32-2.23-6.47-7.06-6.12-1.42.11-1.81-.1-1.92-1-.41-3.79-1.24-5.65-3-6.85a4.7,4.7,0,0,0-3.46-1c-1.73.31-4.92,2.51-6.44,4.43-1,1.29-1,1.27-2.45-2.07-2.23-5.26-5.59-7.2-9.38-5.42-4.19,2-6.35,7.41-5.71,14.4a61.71,61.71,0,0,0,4.68,16.09c.7,1.39,1.69,5.79,2.2,9.77.85,6.56.8,7.88-.37,13.93-.7,3.68-1.63,9.76-2,13.54-1.36,12.33-3.62,26.34-4.21,26.22-.81-.16-4.71-11.07-8.19-22.91C73.09,72.84,71,66.14,70.11,63.51s-3.26-10.08-5.26-16.58L61.22,35.11l4.5-7.74c3.88-6.66,4.65-8.43,5.49-12.64.76-3.78.8-5.62.22-8C70.67,3.53,68.17.46,66,0S60.81,2.1,59.38,5.11,58,8,57,6.62c-2.4-3.21-5.21-4.35-7.84-3.19-1.88.85-3.28,4.19-3,7.12a6.43,6.43,0,0,1,.05,2.17c-.09,0-1.25-.67-2.59-1.46C38.51,8.25,33.87,9,33.1,13,32.29,17.07,37,24.76,43.18,29.61a74.81,74.81,0,0,0,12.23,6.81c1.32.58,1.92,1.79,3.26,6.58.92,3.23,3.77,12,6.35,19.51s4.61,13.68,4.5,13.75a55,55,0,0,1-5.76-3.72c-6.19-4.29-27.62-17.23-28.94-17.49S33,53.26,33.38,49c.68-8.42-.91-15.19-4.81-20.51-2.78-3.79-6.16-5.62-9.72-5.27s-5,2.11-5.29,6.1l-.24,3.19-1.71-.7c-2.16-.89-5.49-.45-6.56.87C3.14,35.06,3.52,39,6,42.37l1.3,1.79-2.6.61C0,45.85-1.46,49.7,1.66,52.82Zm24.81,49.47a38.78,38.78,0,0,1-13.09,6.89c-7.7,1.94-6.16-.37,4.33-6.45,1.87-1.09,2.74-2,2.79-3,.08-1.29-.25-1.44-5.26-2.42-3.53-.68-5.54-1.34-6-2-.8-1.18.06-1.58,4.68-2.14,7.18-.89,8.34-2.71,4.46-7A20.44,20.44,0,0,1,15,80.52l-1-3,1.33,1.08c1.19,1,11.31,15.79,13.47,19.75C29.56,99.87,29.51,100,26.47,102.29Zm32.91,59.85c-3.08,2.58-6.64,4.66-6.47,3.78s2.38-3.86,4.78-6.22c1.74-1.71,2.68-3.11,2.54-3.8-.22-1.29-.23-1.3-5.77-2.46-5.78-1.2-5.66-2.29.31-2.94a34.44,34.44,0,0,0,5.63-.94c1.54-.73,1.39-2.73-.37-5.18s-2.31-6.77-.88-7.72c2.31-1.57,7.34,5.34,7.88,10.83a9.25,9.25,0,0,0,1,3.87C68.89,152.2,64.08,158.2,59.38,162.14Zm87.33-66.82c1.24.24-.2,4.52-2.79,8.33a11.16,11.16,0,0,0-1.88,3.91c0,1.69,3,2.47,5,1.3,2.91-1.77,7.94-2.67,7.69-1.37-.36,1.81-4.17,5.39-7.49,7s-3.9,2.18-4,3.57c-.13,1.65-.06,1.69,3.86,2.26a28.17,28.17,0,0,1,5.34,1.21c2,.94,1.31,2.88-1.17,3.23-4.1.59-8.19-1.35-14.34-6.8-3.2-2.85-3.36-3.14-2.94-5.33C135.12,106.6,143.85,94.76,146.71,95.32ZM133.27,44.24,134.78,43,136,45c1.28,2.13,2,7.57,1.49,10.45-.47,2.41.22,4.34,1.65,4.62s2.92-1.2,4.56-4.2a14.38,14.38,0,0,1,3-3.56c1.59-1.31,2-1.38,2.35-.5.29.64.07,2.37-.54,4.35-1.81,5.81-1.86,6.14-1,7,.7.67,1.78.41,5.25-1.28,5.61-2.72,6.49-2.67,4.15.26-2.68,3.36-7,5-15.81,6.19-7.94,1-7.74,1.18-9-6.28C130.35,51.25,130.67,46.33,133.27,44.24ZM94.8,37.57l-2,.52L91,33.58c-4-10.19-4.77-16.37-2.69-20.32C89,12.07,90,11,90.54,10.91c2.24-.38,4.28,4.39,4.52,10.55.22,5.76,3.64,6.66,6,1.57,1.49-3.2,4-6.54,5.54-7.37.91-.51,1.1-.2,1.27,2.13a13,13,0,0,1-.62,4.77c-.77,2,0,4.6,1.35,4.87a18.15,18.15,0,0,0,4.14-2.06c4.11-2.43,5-2.52,4.56-.53-.63,3.23-7,7.42-16.42,10.74C98.66,36.39,95.91,37.28,94.8,37.57Zm-37.07-6.8a7.16,7.16,0,0,1-1.73,1c-.07-.06-2-1.23-4.19-2.63A32.65,32.65,0,0,1,41,19.1c-4.49-6.23-2.39-6.76,5.09-1.3,4,2.92,4.74,3.19,6,2.15.7-.59.68-1.7-.16-5.39-1.11-5-1-7.29.26-7,1,.2,3.64,4.27,4.57,7.2S59,19,60.19,18.14c.6-.4,1.19-2.42,1.82-6.2.71-4.3,1.22-5.9,2.2-6.9s1.48-1.15,2.31-.47c3,2.41,1.06,11.82-4,20C60.76,27.38,58.61,30.18,57.73,30.77ZM7.42,48.37A12.62,12.62,0,0,1,11.73,48c2.58.47,3.71,0,4-1.52.21-1.07-.46-2.15-2.65-4.25-3.3-3.13-5-5.43-4.81-6.46.24-1.22,5.42.87,7.66,3.09s3.32,2.68,4.62,1.81,1.32-2-.44-6.89a26,26,0,0,1-1.51-5.27c.2-1.07,2-1.09,3.67-.05,4.87,3,7.24,10.85,6.45,21.32L28.49,53l-4.39.45a41.55,41.55,0,0,1-6.9.21A31.87,31.87,0,0,1,6.43,50.11L4.75,49Z"/></g></g></svg>