<svg xmlns="http://www.w3.org/2000/svg" viewBox="0 0 81.91 231.11"><defs><style>.cls-1{fill:#262626;}</style></defs><title>Asset 10</title><g id="Layer_2" data-name="Layer 2"><g id="OBJECTS"><path class="cls-1" d="M17.18,59.11C18.62,66,21.84,71.79,28.54,79.43l3.69,4.22-1.58,9.21c-.88,5.07-2,12.73-2.59,17s-1.07,7.88-1.17,8a11.05,11.05,0,0,1-1.53-3c-2-4.88-8-13.48-10.58-15.24A9.06,9.06,0,0,0,10.71,98c-2.48,0-5.17,2.86-5.72,6.08s.9,9.13,3.24,13.42c2.11,3.89,7.78,10.09,13,14.26l4,3.21v11.34a228.81,228.81,0,0,0,1.62,28.4l.39,2.67-4.93-4.87c-8.47-8.35-16.28-11.16-20.64-7.41C.14,166.48,0,167,0,170.58c.06,5,2,9,6.39,13.13,3.64,3.4,8.27,5.85,18.12,9.59,3.93,1.49,7.21,2.8,7.31,2.9S33.31,200,35,204.48c2.73,7.44,7.52,18.58,10.4,24.25,1.25,2.46,3.37,3.18,4.06,1.38.21-.53-.69-3.28-2-6.1-2.15-4.71-7-18.95-9.41-27.35l-1-3.5,4.21-4c9.27-8.84,15.14-17.92,15.72-24.31.39-4.35-.86-7.11-3.9-8.56C48,153.9,41.4,159,36.35,169.07c-1.59,3.17-3,5.54-3.2,5.25-.49-.78-1.63-22.59-1.63-31.12v-7.59l4.21-2.31c8.94-4.9,16.78-11.8,19.56-17.24,1.85-3.61,2-7.59.24-9.3-3.67-3.67-10.1-1.49-17.84,6-4.52,4.4-4.91,4.65-4.63,3,.17-1,.9-7.45,1.64-14.32,1.48-13.79,1.84-15.3,3.63-15.3,2.43,0,16.34-7.53,19.42-10.52,4.75-4.61,5.3-8.92,1.53-11.89-3-2.36-8.53-1.43-14.33,2.39C43.58,67,42.1,68,41.69,68.24s-.17-1.14.68-3.46c.79-2.16,2.8-7.89,4.47-12.74l3-8.82,6.63-.35c12.43-.65,21.7-5.37,24.71-12.57,1.7-4.08.33-7.49-3.89-9.67C74.2,19,67.22,20.34,62.6,23.4l-2.53,1.67.44-1.48a51.07,51.07,0,0,0,.8-7.15c.43-6.93-.66-10.88-3.84-14A7.27,7.27,0,0,0,52.27.1C49.48-.17,49,0,46.82,1.91,43.25,5,42,8.48,41.65,16c-.33,7,.63,12.59,3.62,21L47,41.9,44.77,47c-1.23,2.8-4,10.15-6.11,16.34L34.77,74.59l-.42-3.74C32.87,58,27.42,48,21.84,48,17.64,48,15.79,52.43,17.18,59.11ZM25,128c-.08,0-1.38-.88-2.89-2-7.52-5.43-13.16-13.83-13.16-19.57,0-6,2.67-5,8.32,3.44,3.58,5.33,6.33,11.16,7.33,15.63A9.82,9.82,0,0,1,25,128Zm4.88,63.07c-.91-.06-12.25-4.67-15.12-6.15-7.31-3.79-12.95-12.57-10-15.56,1.2-1.2,2.88-.89,7,1.28C18.09,174,28.92,185.12,30,189.37,30.21,190.32,30.16,191.07,29.86,191.06Zm6.71-12c1.92-5.69,5.38-12,8.59-15.54,4.05-4.51,6.44-5.12,7.64-2,1.47,3.88-3.11,12.31-11.56,21.27-2.66,2.84-5.1,5.16-5.42,5.16C34.82,188,35.23,183,36.57,179ZM75.78,25.51c2,1.09,1.61,3.06-1.32,6S66.91,36.4,60.74,37.4a50.26,50.26,0,0,1-5.68.65H53.3l1.3-1.83C59.43,29.44,71.61,23.28,75.78,25.51ZM46.61,16c.28-7.7,1.54-10.59,4.76-10.9,1.66-.16,2.18.13,3.22,1.84,2.71,4.46,2.21,13.22-1.26,21.46a37.25,37.25,0,0,1-3,5.86L49.2,35.7,47.79,29A45.87,45.87,0,0,1,46.61,16Zm-6.37,61c1.91-2.63,6.93-6.71,10.45-8.49,2.55-1.28,6.44-1.36,6.44-.12,0,2.57-6.26,7.41-13.63,10.55C37.63,81.35,37.2,81.1,40.24,76.91ZM41.44,116c5.94-5.59,10.7-7.68,10.69-4.68s-4.43,8.14-10.61,12.29c-5.79,3.88-9.38,5.79-9.38,5C32.14,126.92,37.46,119.73,41.44,116ZM23.1,53.69c1.67,1.37,5.2,9.3,6.25,14,1.51,6.81,1.1,7.41-2.13,3.09-3.62-4.85-5.7-9.47-6.13-13.58C20.72,53.61,21.47,52.32,23.1,53.69Z"/></g></g></svg>