<svg xmlns="http://www.w3.org/2000/svg" viewBox="0 0 168.52 234.03"><defs><style>.cls-1{fill:#262626;}</style></defs><title>Asset 2</title><g id="Layer_2" data-name="Layer 2"><g id="OBJECTS"><path class="cls-1" d="M110.67,38c2.57-2.56,2.85-4.08,1-5.24-.87-.54-1.45-.32-3,1.18-2.69,2.55-3.87,4.89-2.94,5.82C106.93,41,108.11,40.58,110.67,38Z"/><path class="cls-1" d="M147.66,120.68c-3.28-3.07-5.42-3.43-5.77-1-.14,1,.55,2.19,2.31,3.94,2,2,2.92,2.47,4.26,2.32C151.31,125.64,151,123.81,147.66,120.68Z"/><path class="cls-1" d="M47.08,153.33c-5.38,12.17-4.66,28.3,1.81,40.43,2.65,5,10,12.66,14.89,15.56a58.17,58.17,0,0,0,17.41,6.08c4.45.71,15.66.22,19.76-.88a38.74,38.74,0,0,0,14.38-8.06c7.88-7.21,12.71-20.24,12.71-34.29,0-10.11-8.49-28.4-16.29-35.06-3.1-2.66-9-5.82-16.18-8.64-4.6-1.81-6-2.08-10.63-2.06-6.11,0-14,1.67-18.12,3.73C60.34,133.43,51.08,144.31,47.08,153.33Zm50.23-17c8,2.72,9.71,3.75,14.73,9.16,4.39,4.75,6.55,9.09,9.37,18.81,3.18,11,2.86,15.5-2,27-2.49,5.9-3.41,7.37-6.77,10.74-4.19,4.2-7.5,6.18-12.42,7.48-7,1.86-19.18,1.52-26.15-.74-15.42-5-25.5-19.68-25.46-37.06,0-11.1,3.62-19.86,11.29-27.58,5.27-5.3,13.24-10,18.13-10.66C82.61,132.86,90.41,134,97.31,136.33Z"/><path class="cls-1" d="M34.22,77.85c2.21-2.2-.28-4.57-4.1-3.88-4.36.78-5.87,2.53-3.42,4C28.21,78.81,33.32,78.76,34.22,77.85Z"/><path class="cls-1" d="M23.32,101.39c.62,1.61,3.23,1.06,9-1.89,7-3.56,10.28-6.21,10-8C42,89.15,38.93,90,31.48,94.4S22.76,99.91,23.32,101.39Z"/><path class="cls-1" d="M1.71,57c2.21,1.2,4.18,1.22,5.14,0C8,55.64,7.2,54.44,4.7,54,.31,53.15-1.68,55.17,1.71,57Z"/><path class="cls-1" d="M8.27,115c1.17.45,3.76-.23,5-1.34,1.6-1.39,1.14-3.5-.84-3.72C9.46,109.61,5.78,114.07,8.27,115Z"/><path class="cls-1" d="M21.73,60.67a56,56,0,0,0,12,2.53c1.2.13,4,.2,6.24.17,3.62-.06,4.09-.22,4.25-1.38a2.53,2.53,0,0,0-.78-2.1c-1.09-.92-20.51-3.34-22.67-2.84S19,59.58,21.73,60.67Z"/><path class="cls-1" d="M41.36,13.53c1.94-.27,2.16-2.85.53-6-1.53-3-2.3-3.57-3.48-2.59-1,.81-.72,3.25.69,6.76C39.76,13.27,40.25,13.68,41.36,13.53Z"/><path class="cls-1" d="M59.69,44c3.14,4.13,6.68,1.66,4.29-3C60.79,34.83,54.81,25,53.43,23.67s-1.59-1.4-2-.35a8.59,8.59,0,0,0,.31,3.85C52.71,30.85,57.72,41.47,59.69,44Z"/><path class="cls-1" d="M36.13,179.43c-.86,1.88.8,10,2.4,11.74,1.21,1.33,2.58,1.25,3.51-.21.59-.94-.76-6.64-2.74-11.64C38.57,177.48,37,177.53,36.13,179.43Z"/><path class="cls-1" d="M122.39,205.24c-.61,2.63.06,2.56,3-.3,3.52-3.4,7.4-10.38,9-16.12,2.25-8.25,1.79-20.26-.72-18.7-.28.16-.68,2.62-.91,5.45-.58,7.13-1.7,10.8-6.1,19.84A89.5,89.5,0,0,0,122.39,205.24Z"/><path class="cls-1" d="M37.52,170c.3-.29,1.08-3.21,1.74-6.48,1.75-8.72,7.87-21.16,13.45-27.31,4.08-4.51,5.39-7.64,3.19-7.64-1.78,0-11.14,10.12-13.87,15-5,8.91-7.5,19.56-5.83,24.63C36.64,169.52,37.22,170.3,37.52,170Z"/><path class="cls-1" d="M80,28.78C81.13,25.89,78.79,18,76.81,18c-2.14,0-2.09,7,.08,10.58C78.32,31,79.16,31,80,28.78Z"/><path class="cls-1" d="M40.81,43.35c-.58,1.5.79,3.89,3,5.27,3,1.86,4.54,1.45,4.54-1.24,0-1.87-.33-2.35-2.5-3.57C43,42.14,41.33,42,40.81,43.35Z"/><path class="cls-1" d="M40.08,116.23c-.17,1.46,0,1.72,1.31,1.72,2,0,9-4.56,9.51-6.26,1-3.24-1.89-3-7.18.52C41.14,113.93,40.23,115,40.08,116.23Z"/><path class="cls-1" d="M53.09,74.15c0,2,4.18,8.5,11.59,17.91l6.68,8.48-1,2.3a24.7,24.7,0,0,0-1.47,4.93c-.46,2.62-.48,2.64-7.33,6-9.08,4.49-14.79,8.61-20.39,14.76-6.29,6.92-8.57,10.9-11.73,20.62-4,12.28-4.42,14.08-4.84,21.06-.65,10.59,1.46,19.51,7.71,32.59,2.52,5.28,3.53,6.59,10.4,13.48,9.65,9.7,15.18,12.82,29.47,16.6,5.34,1.42,8.64,1.47,20.29.33,13.32-1.32,21.46-4,31.78-10.53,3.63-2.3,10.7-9.74,10.7-11.28a79.51,79.51,0,0,1,3.37-7.86c7.38-15.88,9.37-28.52,6.68-42.33-2.07-10.72-4.66-16.91-11.09-26.5s-20.68-20.3-30.59-23c-2.42-.64-2.57-.83-2.94-3.5A20.47,20.47,0,0,0,98.69,103l-1.28-2.49,3.38-4.85c1.85-2.65,4.68-7,6.27-9.76s4.16-6.57,5.7-8.6a19.74,19.74,0,0,0,2.79-4.34,30.65,30.65,0,0,0-3-5.27c-6-9.38-7.65-12-7.65-12.73,0-1.56-3.88-1.92-20.59-1.92H67l-5,6.72C55.76,68.05,53.09,72.4,53.09,74.15ZM69.93,90.78c-1.47-2.06-4.62-6.06-7-8.9l-4.31-5.16,6.6-.09c3.62,0,6.93-.12,7.35-.16s1,1.09,1.2,2.53,1.31,5.58,2.37,9.23c2.2,7.64,2.26,8.22.92,8.73C75.13,97.71,74.55,97.2,69.93,90.78ZM90.82,76.33c-.22.56-1.17,4.88-2.12,9.61L87,94.53l-2.31.37c-1.47.25-2.4.13-2.54-.3s-.66-3-1.19-5.75a81.82,81.82,0,0,0-2.23-8.69c-.69-2-1.12-3.78-1-4a41.9,41.9,0,0,1,6.88-.6C90.53,75.34,91.17,75.41,90.82,76.33Zm.61,24.79c1.83,1.46,4.09,5.65,4.11,7.62,0,.84-.43,1.06-2,1-1.12-.08-6-.22-10.93-.33-9.83-.21-9.95-.26-7.5-4,1.82-2.74,6.34-5,10.92-5.37C89.12,99.75,89.88,99.91,91.43,101.12Zm23.93,21.7c8.86,6,13.66,11.74,19.54,23.27,5.33,10.45,7.07,17.18,7.08,27.45,0,9.33-1.1,15-4.53,23.24-6.45,15.48-9.85,19.4-21.9,25.32-9,4.44-17,6.94-23.72,7.4-2.59.17-5.4.4-6.27.49-5.64.59-21.47-3.77-29.05-8-4.54-2.54-12.29-9.6-17.42-15.88-6.46-7.88-9.83-18.28-9.85-30.36,0-7.58,2.4-21.1,5.07-28.44,5.16-14.11,20.67-27.9,37.2-33.06,3.85-1.2,5.2-1.31,11.25-1C97.72,114.2,106.4,116.74,115.36,122.82ZM106.44,77a41.33,41.33,0,0,1-5.28,9.13,55.53,55.53,0,0,0-4,6.56c-1.27,2.39-2.37,4.42-2.43,4.48a5,5,0,0,1-1.41-.93L92,95.15l1.3-9.76,1.29-9.77,6.12,0C106.63,75.66,106.82,75.7,106.44,77ZM99,65.28c1-2.65,2.14-4.71,2.48-4.6.83.28,7.13,9.29,7.18,10.27,0,.55-1.09.75-3.86.68-5.33-.14-8.09-.52-7.85-1.09C97,70.28,98,67.91,99,65.28ZM91.8,58c3.85,0,5,.2,5,.86A31.87,31.87,0,0,1,95.2,64a33.93,33.93,0,0,1-2,4.76c-.5.5-3.85-4.74-5.38-8.43L86.8,58Zm-8.63,2,2.62,5.1,2.61,5.08-1.58.39A33.29,33.29,0,0,1,81.4,71l-3.86.07,2.82-5.55Zm-8.73-2.15a42.65,42.65,0,0,1,4.75.46,16.09,16.09,0,0,1-1.31,3.51,58.59,58.59,0,0,1-2.77,5.44l-1.27,2.08-1.73-5.2c-.94-2.87-1.83-5.52-2-5.91S71.23,57.61,74.44,57.84Zm-7.69,4.52c.25,0,.77,1.47,1.17,3.27s.92,3.92,1.14,4.69c.4,1.37.29,1.4-4.35,1.4-2.61,0-4.76-.14-4.76-.31C60,70.81,66.3,62.36,66.75,62.36Z"/><path class="cls-1" d="M95,40.74c.59-.74.91-3.88,1.08-11.12.21-8.55.09-10.21-.72-10.9-1.84-1.52-2.87,1.46-3.46,10.07-.56,8-.4,10.78.7,12.18C93.42,42,94,42,95,40.74Z"/><path class="cls-1" d="M130.4,50.11c10.3-5.33,11.51-6.18,11.25-8-.41-2.88-4.38-1.51-16.55,5.73-6.32,3.76-7.37,4.69-6.83,6.1C118.92,55.61,121.07,54.94,130.4,50.11Z"/><path class="cls-1" d="M96.52,7.12c.81-1.23.86-1.95.29-4.08-.8-3-2.28-3.9-3.52-2.19-1.05,1.44-1.12,6-.1,7S95.43,8.79,96.52,7.12Z"/><path class="cls-1" d="M125.86,89.21a2.89,2.89,0,0,0-.94,1.92c0,1.21,3,3.85,5.64,4.89a9.66,9.66,0,0,0,2.28.65c.87,0,2.7-1.66,2.7-2.53C135.54,91.82,127.59,87.78,125.86,89.21Z"/><path class="cls-1" d="M126.13,77.38c-1.37.72-1.61,2.76-.43,3.51a14.75,14.75,0,0,0,3.9.93c3.17.44,18.33,0,19.21-.5s.46-2.64-.62-3C143.19,76.89,128.27,76.22,126.13,77.38Z"/><path class="cls-1" d="M112.45,96.09c-1.59,0-2.55,1.27-1.9,2.5.75,1.41,11.22,9.29,17,12.78,4.84,2.94,7.07,3.35,7.07,1.3C134.61,110.8,114.94,96.09,112.45,96.09Z"/><path class="cls-1" d="M156.36,34.5c3.41-1.16,4.52-2.64,3.28-4.35-.74-1-1.12-1-3.26-.4-3.68,1.11-6.47,3-6.47,4.49S152.19,35.92,156.36,34.5Z"/><path class="cls-1" d="M160,83.65a5.62,5.62,0,0,0,2.37,2.92c2.43,1.63,4.87,1.63,5.88,0s-1.36-3.71-5.23-4.08C159.91,82.18,159.8,82.24,160,83.65Z"/><path class="cls-1" d="M133.6,69.59c4.56-.47,6-1.39,5.4-3.42-.52-1.62-3.63-1.79-7.05-.35-2.59,1.08-3.33,1.94-2.82,3.27C129.41,69.83,130.29,69.92,133.6,69.59Z"/></g></g></svg>