<svg xmlns="http://www.w3.org/2000/svg" viewBox="0 0 165.4 227.52"><defs><style>.cls-1{fill:#262626;}</style></defs><title>Asset 5</title><g id="Layer_2" data-name="Layer 2"><g id="OBJECTS"><path class="cls-1" d="M20.61,206.49a2.84,2.84,0,0,0-2.43,4.77,4.15,4.15,0,0,0,2.48.74c1.36,0,1.83-.35,2.15-1.66C23.32,208.31,22.44,206.77,20.61,206.49Z"/><path class="cls-1" d="M29.76,194.9c-2.16-1.37-4.6,1.71-2.94,3.7a2.78,2.78,0,0,0,1.85.91A2.45,2.45,0,0,0,29.76,194.9Z"/><path class="cls-1" d="M5.06,182.76C7.42,184,8.84,184.21,17,184.41l9.24.22L14.64,196.44c-6.36,6.49-11.58,12.25-11.58,12.77,0,1.77,1.8,4.51,4.48,6.79,4.5,3.86,18,10.24,23.63,11.19,5.34.89,7.8.05,9.22-3.15.87-2,1.09-5.11,1.27-18.44s.39-16.08,1.12-16.08c.48,0,.88.29.88.65,0,1,4.81,7.32,8.75,11.53,1.93,2.05,4.56,5.05,5.84,6.65,4,5.06,9.6,6.49,14.51,3.72,3.8-2.13,5.62-5.34,7.76-13.71.53-2.07,1.92-4,5.73-8.06,6-6.36,8-10.19,8-15.32,0-3.23-.21-3.83-2.14-5.92L90,166.72l-8,0a108.85,108.85,0,0,0-26.09,3.66,12.11,12.11,0,0,1-3.3.73,83,83,0,0,1,7.15-6.68c4.05-3.56,10.46-9.3,14.23-12.76s10.81-9.75,15.62-14c19.09-16.83,57.55-55.37,60-60.17.65-1.26.72-2.06.26-2.93a6.46,6.46,0,0,1-.65-1.47c0-.15,1.85-2.48,4.1-5.19,6.69-8,11-17.81,9.08-20.79-.35-.56,0-1.9.95-3.83,1.86-3.71,2-7.63.26-9.34-1.22-1.23-1.22-1.25.31-4.53,2.65-5.7,1.71-9.79-2.5-10.85-1.44-.35-1.58-.68-1.58-3.71,0-2.66-.31-3.7-1.62-5.25s-2.06-1.91-4.21-1.9a10.61,10.61,0,0,0-4.16.92c-2.21,1.27-2.29,1.22-2.73-1.52-.74-4.6-5.56-6.4-10.47-3.9l-2.22,1.13-1-1.76c-2.19-3.81-6.32-3.47-11.37,1-2.63,2.31-3.45,2.7-5.13,2.46s-2.37.06-3.91,1.59a6.35,6.35,0,0,0-1.89,3.17,2.62,2.62,0,0,1-1.4,2A15.93,15.93,0,0,0,107,14.73c-1.15,1.06-1.37,1.08-1.69.23a4.45,4.45,0,0,1,.25-2.62c.77-2.05-.26-5.58-1.92-6.47-1.92-1-4.71-.72-6,.65-2.44,2.71-.93,7.39,2.85,8.84,1.5.58,1.51.62.3,1.26a14,14,0,0,0-5.64,6.16q-2.08,4.65-3.24.06c-.47-1.84-.41-2.68.26-3.6,1.13-1.54.55-3.84-1.53-6s-3.9-2.19-5.49-.43c-2,2.15-1.52,5.32,1,7.68a7.41,7.41,0,0,1,2.65,4.74,10.27,10.27,0,0,1,.23,2.9,20.85,20.85,0,0,1-4-2.32c-2.81-1.86-3.94-3-4.24-4.34-.88-4-6.74-5.88-8.77-2.79s1.81,8.58,5.47,7.63c.8-.22,2.56.65,5.14,2.53,3.93,2.84,3.94,2.84,3.29,5-.59,1.92-.83,2.09-2.26,1.68-5.29-1.55-8.16.78-8.16,6.61,0,3.43-.12,3.72-2,4.94l-2,1.29-.32-3.88c-.39-4.57-1.34-6.54-3.41-7.06-3.56-.9-8.56,4.83-11.43,13.07a25.88,25.88,0,0,0-1.52,9.75c0,3.91-.63,8.26-2.38,16.27-1.32,6-3,14.72-3.74,19.36s-1.88,11.57-2.54,15.4-1.49,10.43-1.85,14.68-1.49,12.48-2.51,18.33-2.21,13-2.65,15.93l-.8,5.31-1.44-6.1c-1.84-7.84-5-14.33-8.08-16.4-6-4.08-11.15,0-14.26,11.44-1.15,4.21-1.75,5-7.37,9.76C-1.56,171.54-2.38,178.82,5.06,182.76Zm32.35,22c0,8.81-.27,16.59-.61,17.48-.51,1.38-1,1.59-3.27,1.58-4.67,0-16.54-4.73-21.52-8.55a22.8,22.8,0,0,1-3.63-3.65l-1.65-2.16L17,199.34c5.65-5.57,10.86-10.94,11.58-11.91l1.3-1.78,2.05,1.23a16.59,16.59,0,0,0,3.76,1.63l1.72.4ZM82.8,171.41c5.89,0,6.81.62,6.72,4.62-.08,3.53-1.45,5.86-6.86,11.72-4.41,4.8-4.74,5.38-6.58,11.34-2.29,7.41-3.25,9-6,10.19a10.32,10.32,0,0,1-2.84.82c-2.06-.06-4.84-2-7.36-5-1.5-1.86-4.31-5.07-6.21-7.14-6.28-6.85-9.12-11.53-7-11.53a21.77,21.77,0,0,1,3.76,2.82c3.18,2.71,5.77,3.56,6.65,2.14s-.47-3.6-3.84-6.09l-3.53-2.61h6.83c7,0,8.31-.41,8.31-2.61,0-1.63-2.35-2-9.49-1.51-4.95.35-6.19.27-6-.37C50.08,176.2,73.78,171.41,82.8,171.41Zm46.66-78.66c-7.17,6.93-19.78,19.38-28,27.67C82.07,139.86,84,138.31,82.88,135c-4.26-12.07-9.74-29.59-9.37-29.95.56-.56,24.46-9.56,42-15.81,7.05-2.51,15.86-5.73,19.6-7.16s6.93-2.45,7.1-2.28S136.63,85.81,129.46,92.75ZM143,74.37C140.35,75,106.16,87.2,90.9,92.94s-14.76,5.57-14.76,5c0-1.6,7.22-11.47,8.38-11.47.42,0,1,1,1.35,2.28.63,2.48,2,3.75,3.55,3.17.51-.19,1.81-1.89,2.89-3.76,2.4-4.2,6.16-8.34,8-8.88,1.2-.33,1.47-.11,1.8,1.51.83,4.16,3,3.92,5.88-.62,2.38-3.71,7.77-8.69,9.41-8.69.92,0,1.17.45,1.17,2.14,0,2,1.29,4.1,2.45,4.1.73,0,2.15-1.87,3.52-4.63,1.55-3.11,5.4-7.24,6.74-7.24.83,0,1,.63,1,3.09s.21,3.15,1.28,3.48,2.08-.43,5.17-3.7c5.17-5.5,7.29-5.51,7.29,0C146.1,71.68,144.89,73.93,143,74.37ZM99.55,34.86c.94-2.24,2.43-2.8,3.07-1.14.76,2,.34,4.69-1.55,9.91C100,46.57,98.84,49,98.47,49,97.55,49,98.41,37.57,99.55,34.86ZM98.41,56.75c-.37,1-3.23,1.37-3.73.5s0-3.59.56-3.59C96.57,53.66,98.78,55.81,98.41,56.75ZM109,54.19c-5.29,2.12-6,2.11-6-.06s4-5.5,9.15-8c3.74-1.84,5.42-1.76,5.7.29S114,52.19,109,54.19Zm10.11,3.53c.84,0,.89.34.35,2.34-.44,1.64-1,1.77-2.08.5a8.28,8.28,0,0,0-3-1.64c-3.35-1.07-3.5-1.47-1.08-2.78,2.16-1.17,2.18-1.17,3.65.2A5.06,5.06,0,0,0,119.12,57.72ZM105.41,61c8.52.49,14.65,4.84,9.4,6.68a11.23,11.23,0,0,1-3,.65c-2-.06-7.56-2.59-9.4-4.31C99.34,61.13,99.83,60.64,105.41,61Zm3.22,10.47-1.72,2.48c-2.51,3.63-3,3.37-3.41-1.68-.24-2.87-.31-2.84,3.72-1.33ZM120,66.76c.17-.17.81.25,1.43.95s.84,1.25.5,1.25C121.13,69,119.57,67.18,120,66.76Zm16.6-5.45,2.48,1.1L135.79,65l-1.4-1.45C131.8,60.82,132.93,59.7,136.59,61.31Zm7.81-2.91c-2.67,1-6.27.28-9-1.88-4-3.19-5.59-2.48-5.59,2.45,0,2-.38,2.72-2.33,4.32a9.13,9.13,0,0,1-3.14,1.93c-2.34,0-1.25-5.58,1.75-9,3.2-3.65,1.77-6.94-1.85-4.26-2.3,1.69-3.8,1.92-4.6.69s1.3-4.46,2.68-3.88a16.09,16.09,0,0,0,3.27.68c1.75.2,2.43,0,2.72-.74.58-1.51-.84-2.81-3.9-3.58-1.49-.38-2.72-1-2.72-1.47a2.51,2.51,0,0,0-.94-1.56c-3-2.53,1.25-2.26,5.35.33s5.44,1.09,3.14-4.16a27.35,27.35,0,0,1-1.65-5.85l-.44-3.13,1.34,1.2c1.52,1.36,3.82,8.19,3.82,11.38,0,1.37.36,2.27,1,2.51,1.32.51,2.4-.8,3.3-4s3.73-6.79,4.61-5.91-.32,4.12-2.67,7.83c-3.07,4.84-2.19,6.28,2.56,4.26,3.56-1.52,7.44-2.26,7.44-1.41,0,1-2.77,2.57-6.68,3.73-3.12.92-3.61,1.28-3.61,2.59s.3,1.56,3.27,1.85C146.75,53.89,148.42,56.86,144.4,58.4ZM113.45,29.93,122,25.34c6.19-3.31,8.77-4.4,9.26-3.9,1.91,1.91,7.3-1.11,7.3-4.09,0-2-2.63-4.6-4.67-4.6-1.59,0-4.69,2.44-4.69,3.69,0,.63-13.2,7.68-13.61,7.28a8.28,8.28,0,0,1,.45-2.73c.52-1.92,1.11-2.65,2.5-3.14,2.52-.87,3.88-3.18,3.69-6.27-.16-2.81,1.37-5,4.64-6.72,2.32-1.21,3-.67,3,2.49,0,4.68,2.08,5.33,6.31,2C139,7.11,142,6.43,142.54,7.9a15.85,15.85,0,0,1,0,4c-.27,2.81-.14,3.31,1,3.91s1.93.38,4.91-1.2c2-1,4.16-1.83,4.85-1.73,1.16.16,1.26.56,1.09,4.67s0,4.57,1.08,5.17a4.58,4.58,0,0,0,2.83.28c2.79-.7,2.64,1.27-.58,7.53-1.62,3.17-2.85,6.31-2.72,7,.24,1.23,2.29,1.51,4.41.58,2.41-1,.61,4.15-3.37,9.73-1.18,1.64-.18,3.25,1.71,2.78,1.45-.36,1.57-.26,1.19,1a47.65,47.65,0,0,1-3.27,6.23c-3.54,6-5.72,8.73-5.75,7.31a6.35,6.35,0,0,0-1.36-2.69l-1.32-1.68,1.32-1.41a5.32,5.32,0,0,0-.06-7c-1-1.32-1.17-1.83-.54-2a11.2,11.2,0,0,0,2.6-1.92c4.14-3.84,1.3-8.18-4.81-7.35-2.2.31-2.61.2-2.33-.55.19-.51.58-.92.86-.92s1.72-1.68,3.22-3.73c2.08-2.88,3.07-3.74,4.32-3.75,5.16-.06,4.79-7.84-.45-9.16-2.65-.66-3.67.42-3.68,3.94a7.83,7.83,0,0,1-1.38,4.93l-1.36,1.83-1-1.4c-1.63-2.29-4.42-1.89-7.21,1l-2.33,2.45-.76-2.69c-1.05-3.74-4-7.21-6.14-7.2-3.07,0-4.49,2.06-4.49,6.51,0,2.46-.17,2.85-1.27,2.85-1.88,0-6.08,2.32-6.48,3.58-.18.61-1.62,1.57-3.16,2.13s-2.82,1-2.82.93,1-2.75,2.11-6ZM110,17.13c2.87-1.75,3.5-.77,2.09,3.27-1.54,4.38-1.94,4.7-3.11,2.44C107.48,19.94,107.75,18.51,110,17.13ZM95,29.88c1,0,1.87-.85,3.47-3.7,3.08-5.48,3.56-5.85,5.15-4a33.67,33.67,0,0,1,3.2,5.42c1.5,3.08,1.8,4.34,1.44,5.94l-.45,2-.9-2.19c-2.08-5.08-5.85-6.49-9.16-3.44a12.66,12.66,0,0,0-2.5,3.5c-.79,1.91-.82,1.91-1.21.47C93.27,31,93.54,29.82,95,29.88ZM92.59,67.76c.45-4.27.92-5.67,1.91-5.67,1.25,0,4.89,6.69,5.21,9.6.3,2.58.2,2.79-1.73,3.75-2.52,1.25-2.77,1.25-4,0C92.57,74.06,92.17,71.82,92.59,67.76Zm.46,11.11-1.73,2.52c-1.91,2.75-2.37,3-2.9,1.65a3,3,0,0,0-1.94-1.32c-1.14-.29-1.59-.82-1.59-1.86a6.12,6.12,0,0,0-1.47-3.17L82,75l3.12-2.1A16.35,16.35,0,0,1,88.3,71c.06.09.44,1.35.86,2.78a8.89,8.89,0,0,0,2.33,3.87Zm-11.86-8c-.77,0-1.92-2.06-1.92-3.41,0-2.27,9.2-10.08,10.43-8.86.17.18-.15,1.71-.72,3.42a14,14,0,0,1-4.1,6C83.19,69.55,81.54,70.84,81.19,70.84ZM89,36.38l1.11-2.08.51,3.42c.71,4.71.42,5.36-1.28,2.87C88,38.51,87.94,38.43,89,36.38Zm-7.41,3.23c.7,0,2.09.94,3.1,2.09,2.67,3,6.56,9.66,6.11,10.39-.62,1-2.3.73-5-.78-3.5-2-4.9-4.2-5.24-8.24C80.39,39.92,80.47,39.61,81.62,39.61Zm-8,11.24,3.12-1.46,2.16,2.52A14.05,14.05,0,0,0,83,55.22l1.91.79L83.5,57a40.26,40.26,0,0,0-4,3.41l-2.57,2.45-.29-3.59c-.34-3.95-1.85-5.88-4.63-5.88C69.66,53.35,70.25,52.44,73.65,50.85ZM65.24,43l1.62-1.88-.34,5.62A55.93,55.93,0,0,1,65.21,56c-1.67,6.16,1.11,8.22,5.06,3.74l2.08-2.33,0,2.6a25.88,25.88,0,0,1-1.13,6.32c-.76,2.45-1,4.08-.6,4.74.67,1.2,3,1.33,4.21.24.68-.66.77,0,.49,4-.41,5.69.29,6.89,3.17,5.46.93-.48,1.9-1,2.16-1.09s.47.53.47,1.45c0,1.12-1,2.8-3,5.09A41.2,41.2,0,0,0,73,93.68a36.48,36.48,0,0,1-2.21,4,20.93,20.93,0,0,1-1.23-3.29c-.58-1.8-3.27-9.07-6-16.13-4.16-10.87-4.93-13.44-4.92-16.55C58.67,55.41,61.51,47.36,65.24,43ZM41.94,164c.3-1.94,1.51-8.87,2.67-15.4s2.84-17.21,3.71-23.74c2.69-19.89,7.61-47,8.93-49.27.41-.67,5.13,11.26,10.22,25.85,2.1,6,5.2,14.36,6.9,18.56,2.82,7,5.46,14.15,6.76,18.4.49,1.57-.08,2.23-8.95,10.39-5.2,4.8-13,11.85-17.28,15.66s-8,6.93-8.15,7a15.62,15.62,0,0,1-2.87-1.93l-2.51-1.93Zm-3,8c1.65,0,5.28,2.2,5.77,3.5s-.88,7.14-2.1,8.49a3.51,3.51,0,0,1-2.33,1.08c-2.4-.08-7-1.79-8.11-3s-1-1.31.15-3.64C33.94,175.3,37.3,172,38.94,172ZM4,173.58c.39-1.61,3.28-4.76,8.86-9.68a13.63,13.63,0,0,0,4.3-5.92c2.6-7.27,4.27-10.4,6.05-11.31,1.29-.67,2.1-.74,3-.28,1.31.71,5.65,11.27,6.92,16.89a28.89,28.89,0,0,0,1.33,4.5c.33.64.29,1.19-.09,1.44s-.79-.12-1-.74c-1.84-6-7.58-11.18-8.82-7.93-.21.57.46,2.72,1.53,4.9l1.92,3.88-4.5-.28c-3.57-.24-4.65-.1-5.3.69-.45.54-.66,1.24-.47,1.55s2.72,1.33,5.62,2.22l5.27,1.65-1.31,2.41L25.92,180l-6,.39c-8.76.58-10.08.5-13-.82S3.22,176.44,4,173.58Z"/><path class="cls-1" d="M111.59,96.82c-2.17-1.36-4.61,1.71-2.94,3.71a2.74,2.74,0,0,0,1.85.91A2.46,2.46,0,0,0,111.59,96.82Z"/><path class="cls-1" d="M67.5,139a3.58,3.58,0,0,0,2.08.38c.94-.12,1.25-.63,1.25-2,0-1.67-.2-1.87-1.87-1.87-1.51,0-1.92.29-2.08,1.48A2.22,2.22,0,0,0,67.5,139Z"/><path class="cls-1" d="M66.15,122.68c2.15-2.15,1.26-5-1.56-5S60.78,121,62.76,123C64,124.23,64.64,124.18,66.15,122.68Z"/><path class="cls-1" d="M96.64,101.86c-1.41,1.28-1.44,2.58-.1,4.06,1.63,1.8,3.15,1.39,4.55-1.25.64-1.22.59-1.66-.32-2.65C99.44,100.54,98.15,100.49,96.64,101.86Z"/><path class="cls-1" d="M55.46,153.68c2.36,1.18,4.13.19,4.13-2.32a3.11,3.11,0,0,0-4.3-3.1C53.31,149,53.44,152.68,55.46,153.68Z"/><path class="cls-1" d="M51.16,158.24a1.88,1.88,0,0,0-3-1.41c-1.41.89-1.55,1.81-.41,2.94A2,2,0,0,0,51.16,158.24Z"/><path class="cls-1" d="M61.1,107.53c.7-1.87-.27-3.59-2-3.59-2.54,0-3.85,2.57-2.17,4.25A2.63,2.63,0,0,0,61.1,107.53Z"/><path class="cls-1" d="M58.89,135.64a1.79,1.79,0,0,0,0-2.19,2.32,2.32,0,1,0-4,2.38C55.74,137.36,57.89,137.26,58.89,135.64Z"/><path class="cls-1" d="M89,113.06a2.57,2.57,0,0,0-1,3.72,2.49,2.49,0,0,0,4.36-1.7C92.39,113.76,90.36,112.54,89,113.06Z"/><path class="cls-1" d="M29.36,208.54c-1.45.47-1.74,2.17-.55,3.36,1,1,2.35.7,3.21-.66S31.2,208,29.36,208.54Z"/><path class="cls-1" d="M81.5,106.83c-1.34.51-1.94,3.15-1,4.3,1.6,1.92,4.37.67,4.37-2A2.63,2.63,0,0,0,81.5,106.83Z"/></g></g></svg>