<svg xmlns="http://www.w3.org/2000/svg" viewBox="0 0 123.5 238.61"><defs><style>.cls-1{fill:#262626;}</style></defs><title>Asset 4</title><g id="Layer_2" data-name="Layer 2"><g id="OBJECTS"><path class="cls-1" d="M84.44,135.66c.87-18.41,2.07-29.5,4.78-44.42C91.63,78,92,76.48,93.8,73.58c1.07-1.75,2.64-4.68,3.5-6.51,1.52-3.29,1.69-3.4,10.15-7.87C121.15,52,126,46.67,122.34,42.76c-2.89-3.13-8.82-2.2-16.09,2.53-3.5,2.27-4.07,2.48-3.48,1.25,1.1-2.34,3-11.17,3-13.66-.18-6.3-6-6.29-10.21,0L93.64,35.7l-.56-3.46c-1.08-6.82-2.48-9-5.58-8.73-3.47.3-5.73,7.52-5.26,16.83l.22,4.38-2.95-4c-2.61-3.53-5-5.66-6.77-5.94a4.43,4.43,0,0,0-2,1c-4.14,3-.73,12.31,7.89,21.5,2.66,2.83,3.77,4.5,3.63,5.43-.12.74.83,4.63,2.1,8.66l2.31,7.31L84.06,94.89c-2.54,15.92-3.42,24.8-3.57,35.66,0,3-.13,5.4-.2,5.39-.32-.05-4-9.18-6.52-16.22-1.53-4.24-6.43-16.84-10.89-28C51.21,62.59,51.06,62,52.22,50.18l.7-7.1,4.56-3.89c5.89-5,11.85-11.94,13.74-15.94A22.46,22.46,0,0,0,73.12,16c.32-3.53.17-4.29-1.14-5.85-1.14-1.35-2-1.78-3.36-1.73-4.24.17-7.05,2.89-12.15,11.73L52.8,26.56l0-5.16C52.93,4.63,46-5.92,41,3.59c-1.1,2.14-2.14,10.2-1.67,13,.12.7-.83-1.23-2.13-4.27C33.87,4.36,31.4,1.89,27.64,2.69c-2.94.62-4.78,6.81-3.75,12.64l.58,3.28-3-2.57c-6.94-5.84-13.19-3.25-11.27,4.68a20.33,20.33,0,0,0,5,8.92l1.78,1.66-4.21-.92c-3.66-.8-4.58-.76-7.17.25C.73,32.5-1.43,37,1,40.05c3.23,4,10,5.73,24.46,6.2l11.06.35,3.33,4.24c7.1,9,8.12,10.72,9.58,15.71,1.69,5.78,13,36.83,17.52,47.9C73.71,131.14,81,152,93.5,190.86c11.86,36.79,15.44,47.32,16.19,47.68A1,1,0,0,0,111,238c1.15-2-2.88-19.6-7.46-32.54-1.55-4.4-4-12.21-5.47-17.36s-4.32-13.94-6.34-19.55C83.88,146.92,83.9,147,84.44,135.66ZM29.8,42.52C29.59,43.86,10.5,41.8,6.64,40A5.56,5.56,0,0,1,4,37.71c-1-2.8,5.15-4.82,9.6-3.17C17.19,35.87,29.86,42.11,29.8,42.52ZM33,36.61l2,3.11-2.29-2C31.43,36.61,28,34.06,25,32,17.68,27.1,13,21,13.6,17.16c.16-1,2.66-.29,4.84,1.34S29.35,31.09,33,36.61Zm7.27-1.91c2,7.81,1.5,8.53-1.71,2.71-7.44-13.52-9.94-19.34-10.68-24.82-.41-3,.37-6.41,1.45-6.24C31.1,6.64,37.07,22.13,40.23,34.7Zm4.19-2.05c-1.91-12-1.82-25.86.19-28.13.89-1,2.06,1,3.26,5.55,1.68,6.33,1.87,10.89.84,19.74C47.2,42.73,46.13,43.45,44.42,32.65Zm4,20.42a44,44,0,0,1-3.08-3.46l-2.88-3.43L46,45c1.9-.67,3.54-1.21,3.63-1.2a35.57,35.57,0,0,1-.38,4.69A28.69,28.69,0,0,1,48.47,53.07ZM52.14,38.2a51.09,51.09,0,0,1,2.4-5.9C59,22.21,64.83,13.37,67.6,12.41c1.89-.65,2.11,0,1.37,4.17-.53,2.93-1.26,4.5-3.62,7.75C62.7,28,52.5,38.68,52.14,38.2ZM81.67,54.58a61.47,61.47,0,0,1-4.81-5.8c-3.11-4.2-4.65-7.77-4.06-9.4.49-1.37,5,5.08,8.19,11.76C83.43,56.22,83.44,56.34,81.67,54.58Zm6.18,2.87a37.16,37.16,0,0,1-1.2-6.05c-1.53-10-1.45-19.34.21-23.07,1.53-3.41,3.1,1.93,3.23,10.94C90.17,44.21,88.52,57.56,87.85,57.45ZM100,42.32c-1.39,3.56-6.52,12.24-7.18,12.13-.29-.05,0-2.2.65-4.8h0c2.27-9.07,6.25-17.5,8.13-17.2C102.4,32.58,101.38,38.82,100,42.32Zm3.77,10.18c8.24-5.91,12.76-8.19,15.45-7.76,1.91.31,1.38,1.23-2.39,4.17C114,51.14,98.26,60.12,97.19,60.13a3.2,3.2,0,0,1-1.14-.73C95.39,58.8,96.91,57.45,103.79,52.5Zm-14.23,19c-1.11,1-2-.25-3.32-4.57-.6-2-.92-3.75-.69-3.91.84-.61,8.61.32,8.5,1A34.49,34.49,0,0,1,89.56,71.48Z"/></g></g></svg>