<svg xmlns="http://www.w3.org/2000/svg" viewBox="0 0 103.83 231.11"><defs><style>.cls-1{fill:#262626;}</style></defs><title>Asset 11</title><g id="Layer_2" data-name="Layer 2"><g id="OBJECTS"><path class="cls-1" d="M24,143.49c2.91,1.94,3.32,2.47,3.58,4.77,1.11,9.32,1.82,14.31,2.53,17.73.45,2.15.62,3.9.38,3.9a6,6,0,0,1-1.9-1.55c-4-4.23-13.63-8.94-16.53-8.06-4.82,1.47-4.68,6.34.36,11.81,3.8,4.13,7.59,6.7,15.93,10.87l7.41,3.69,1.52,3.95c2,5.27,10.72,22.81,13.54,27.27a65.29,65.29,0,0,0,7,8.4c2.63,2.66,5.28,4.84,5.9,4.84,2.4,0,1.76-1.87-2.17-6.39A105.56,105.56,0,0,1,55,216.4c-3.34-4.91-12.08-22.42-14.25-28.54-2-5.7-1.67-7.41,2.1-10.28s11.26-10.24,12.66-12.48c1.78-2.88,2.47-6.24,1.71-8.24-1.4-3.68-4.23-3.52-8.07.46-3,3.12-9.37,13.17-10.62,16.79-.39,1.12-.93,2-1.18,2-1,0-4.22-18.12-4.52-25.28l-.2-4.34L36,144.23c1.89-1.26,6.38-4.2,10-6.56,7.68-5,14-11.12,16.4-15.92,4.94-9.81-1.5-10.88-13.06-2.19a69.23,69.23,0,0,0-14,14.9l-3.09,4.4v-5c0-9,2.14-24,4.79-33.51.75-2.71,1.28-3.58,2.15-3.58a27.84,27.84,0,0,0,5.38-1.62c2.33-.9,7-2.59,10.48-3.79,9.14-3.18,16-7.25,24.83-14.78,3.6-3.06,4.33-4.66,2.73-6-1.27-1.06-13.78-1.59-18.18-.77s-11.2,4.05-15.56,7.41c-1.68,1.29-3.56,2.72-4.18,3.18-.78.58-.17-1.4,2.06-6.72L50,66.2h2.56A45.71,45.71,0,0,0,66.59,63c3.45-1.47,6.3-4.31,6.3-6.24,0-1.32,0-1.32,8.83-2.72,9.77-1.55,16.22-4.55,19.58-9.1,7.19-9.74-1.89-18-15.23-13.82l-3.8,1.18,2.86-3.18c7.22-8,8.35-16.94,2.5-19.72C82.15,6.83,69.8,14.73,64.93,24l-1,1.93-.79-6.1C61.36,6,58.07,0,52.18,0c-3.33,0-6,2.07-7.84,6-2.48,5.44-1.92,11.47,2.23,23.89l3.21,9.61-2.34,2c-2.34,2-2.34,2-2.34,6.93,0,2.71.24,7.31.53,10.23L46.15,64l-4,8.32-4,8.3-2-5.81C32.35,64.07,25.61,53.19,18.6,46.64c-3.39-3.18-4.4-3.48-6-1.87-.88.89-1,1.79-.66,5.44A69.4,69.4,0,0,0,25.55,84.79C27.72,87.6,32,91.37,33.61,92c.28.1-.19,2.57-1,5.49a162.51,162.51,0,0,0-5,25.39l-.43,5.1L24,123.17c-8.36-12.5-18-18.23-22.69-13.51-2,2-1.75,3.63,1.51,10.23A61.61,61.61,0,0,0,24,143.49Zm28.7,15.1c1.23-1,1.64-.42,1.12,1.64-.41,1.62-8.94,11.21-9,10.1C44.77,169.64,51.55,159.51,52.66,158.59ZM41.55,133.21c3-3.76,10.84-10.9,14-12.66,1.5-.83,2.38-1.09,2-.58a45.55,45.55,0,0,1-9.85,10.16c-2.45,1.86-5.31,3.91-6.34,4.55l-1.87,1.16ZM67.22,57.16a16.84,16.84,0,0,1-4.41,2.14A39.76,39.76,0,0,1,55.27,61l-4.06.42-.38-3.06c-1.53-12.45-1.31-14,2.11-14,1.84,0,8.79,5.11,13,9.6C67.91,56,68,56.32,67.22,57.16ZM99.11,39.23c0,2.82-3.21,5.73-8.58,7.82a94.12,94.12,0,0,1-11.75,2.59c-5,.87-9.16,1.57-9.25,1.57-.7,0-2.92-3.17-2.59-3.71.77-1.24,9.75-7,14.31-9.15C91.09,33.67,99.15,34.07,99.11,39.23Zm-35.83.08C68.82,25.67,74.53,18.2,81.94,14.92c3.58-1.58,4.7-1.24,4.69,1.45,0,3.4-3,7.42-13.22,17.93-8.59,8.82-11.76,11.38-11.76,9.53A34.61,34.61,0,0,1,63.28,39.31ZM49.78,5.93c2.14-1.93,4.1-.82,5.6,3.23,2.52,6.71,3.7,18.53,2.74,27.59-.73,7.06-2.4,4.84-7.66-10.21C46.61,15.57,46.4,9,49.78,5.93ZM52.55,80.6a59,59,0,0,1,7-3.9c3.47-1.63,5.07-2,10.14-2.21l6-.27L73.83,75.8C71,78.21,62.48,82.88,57.59,84.73c-2.41.9-7.39,2.84-11.08,4.3S40,91.32,40.26,90.87C40.86,89.82,48.84,83.15,52.55,80.6ZM26.68,79.32a64.89,64.89,0,0,1-7.53-15.06C17.75,60.1,16,51.84,16.49,51.84s2.4,2.43,5.85,7.36A101.15,101.15,0,0,1,33.22,80.74c1.26,3.36,2.18,6.44,2.05,6.83C34.91,88.64,29.4,83.34,26.68,79.32Zm7,101.23a3.49,3.49,0,0,1,.22,1.17c-2.1-.93-13.41-7.57-15.52-9.11-2.88-2.11-6-6.17-5.29-6.88.55-.55,5.13,1.45,9,4C26.4,172.37,33.29,178.86,33.73,180.55ZM5.35,113.05c2.24,0,7,3.86,11,8.88,4.13,5.21,10.29,15.13,10.29,16.58,0,.43-.2.77-.46.77-.77,0-7.73-5.65-10.71-8.7S6.73,119,5.22,115.39C4.31,113.2,4.32,113.05,5.35,113.05Z"/></g></g></svg>