<svg xmlns="http://www.w3.org/2000/svg" viewBox="0 0 204.01 181.22"><defs><style>.cls-1{fill:#262626;}</style></defs><title>Asset 3</title><g id="Layer_2" data-name="Layer 2"><g id="OBJECTS"><path class="cls-1" d="M7.68,177.54a38.67,38.67,0,0,0,7.8,3c3,.69,7.07.84,17.07.65C56.77,180.66,68.09,178.08,99,166L114.14,160l22.16,4.51c30.75,6.25,43.7,7.51,54.46,5.29Q204,167.12,204,159.25c0-6.31-8.15-11.93-22.37-15.41-4.11-1-7.53-1.34-14-1.38-7.12-.05-8.54-.22-8.26-.94.18-.49.87-4.28,1.53-8.44,2-12.6,1.92-14.59-.61-17.13l-1.87-1.88,1.52-6.44c.84-3.55,2.54-13.34,3.78-21.76s3.1-18.82,4.14-23.11c3.86-16,7.43-35.82,7.43-41.25,0-2.77-.26-3.41-2-5.06C165.9,9.62,156.51,5.73,137.79,1.77c-8-1.69-9.2-1.79-24-1.77C96.68,0,90.56.69,75.5,4.11c-14.69,3.34-23.19,6.8-33.28,13.56-5.27,3.53-5.3,3.56-5.49,6.44C36.63,25.7,37.38,31,38.4,36c2.44,11.82,6.1,35.24,6.92,44.27a330.38,330.38,0,0,0,5.42,34.84c1.29,5.71,1.46,7.42.91,9a41.53,41.53,0,0,0-.68,8.64v6.69l-8.9.34c-10.69.41-17.08,1.87-25.14,5.77-7.37,3.55-12.12,7.8-14.8,13.25Q-4,171.32,7.68,177.54Zm98.58-20.47L97.2,157c-16.44-.13-27.68-1.92-36.54-5.84l-3.29-1.45L57,145.44c-.21-2.36-.57-7.92-.79-12.36-.39-7.73-.36-8,.78-7.59,3.44,1.36,17.73,3.56,27.21,4.18,23,1.5,38.72-.45,60.79-7.56,4.12-1.33,8.55-2.61,9.84-2.84,2.33-.43,2.34-.42,2.33,1.66,0,2.28-3.33,21.58-3.78,22-.15.15-3.93,1-8.38,1.92a117.41,117.41,0,0,0-12.48,3.18c-2.42.85-9.32,3.22-15.32,5.27Zm.92-51.28c-4.26-4.25-5-8.06-1.67-8.06s8.89,5.75,11.77,12.27a9.31,9.31,0,0,1,1,3.06C117.72,113.64,110,108.56,107.18,105.79ZM167,148.33c10.18,0,24.47,4,29.32,8.31,3.65,3.19,1.92,5.78-5.11,7.64-3.69,1-20.31,1.77-24.36,1.15l-14.65-2.18c-10.29-1.52-26.46-4.67-29.7-5.79-.76-.26,12.21-4.37,17.8-5.63C147.67,150.16,161.62,148.33,167,148.33ZM51.28,94.93c-.82-4.81-2.08-14.08-2.8-20.59C46.81,59.25,43.4,39,41.33,32a46.77,46.77,0,0,1-1.58-6.56c0-1.23,12.66-8.46,20.18-11.53C75.17,7.66,103.54,3.37,120.6,4.73c8.47.67,23.51,3.57,30.61,5.89,9.17,3,20.32,9.49,20.32,11.86,0,4.17-3.51,23.87-6,33.64-2.31,9.09-5.76,27-6.79,35.37-.49,4-1.81,11-3,15.74l-2.07,8.56-2.5.38c-1.37.2-6.55,1.51-11.5,2.9s-11.75,3-15.11,3.63l-6.12,1.1,1.88-2.72c1.66-2.43,2.06-2.69,3.56-2.28,3.22.88,10.3.37,13.9-1,5-1.89,8.71-5.86,8.71-9.2,0-1.86-2.93-4-5.49-4a22.17,22.17,0,0,0-10.81,3.4c-2.78,1.83-2.84,1.74-1.38-2.3l1.06-3h3.51a31,31,0,0,0,13.11-3.45c5-2.54,7-5.77,5.59-9.12-1.88-4.56-7.53-4.67-14-.26l-3.94,2.7,1.69-5.3L137.63,82l4-1.42c14.09-4.92,22.86-15.43,17.8-21.33-1.11-1.28-2.18-1.74-4.59-2-5-.49-9.38,2.26-14.27,8.92l-3,4.09-1.1-3.12c-3.65-10.37-9.8-15.81-15.27-13.53-2.8,1.17-4,3.23-4,6.64,0,4.65,3,9.81,9.7,16.65l5.79,5.91-1.62,4.78-1.6,4.79-.74-2.81c-2.2-8.56-8.7-14.26-14.08-12.39-5,1.76-3.8,9,3,17.08A35.48,35.48,0,0,0,123,99.62c1.26.85,2.29,1.9,2.29,2.32,0,1.36-3.22,8.92-3.81,8.92-.31,0-.56-.44-.56-1,0-1.6-3-7.06-5.37-9.64-4.2-4.65-10.7-6.43-13.44-3.68-1.06,1.05-1.26,1.85-1,4,.55,4.84,5.2,10.11,13.17,14.91l3.6,2.16-2.7,3.31c-1.48,1.82-3.39,3.51-4.24,3.75-2.18.61-28.21.49-33.09-.15-2.24-.29-8.13-1.17-13.1-2l-9-1.41-1.07-4.58a82.53,82.53,0,0,1-1.46-8.74C52.93,105.54,52.09,99.74,51.28,94.93ZM126,97.73c-1,0-9.38-9.35-10.68-11.88-2.52-4.95-.65-7.61,3.54-5,2.31,1.42,4.65,5.94,6.41,12.4C125.92,95.7,126.24,97.73,126,97.73Zm2.85,15.1a25,25,0,0,1,11-4.87c3.35-.46,4,.29,2.25,2.52s-5.32,4-10,4.72C124.91,116.36,124.45,116,128.82,112.83Zm12.45-20.68c4.41-2.79,9.22-2.29,8,.84-.52,1.34-4.72,3.73-8.68,4.94s-7.81,1.76-7.81,1.15S137.72,94.4,141.27,92.15ZM129.92,74c-8.74-9.25-11.38-16.13-6.39-16.74a5,5,0,0,1,3.12,1.07c2.82,2.2,8,13.68,8,17.66C134.67,77.94,133,77.24,129.92,74Zm8.87,3.29,1.16-1.8C143.49,70,148.51,64.35,151,63c2.21-1.15,4.82-1.12,5.28.07,1.06,2.8-3.88,8.15-10.54,11.38a53.64,53.64,0,0,1-5.46,2.37ZM6.2,161.67c3.31-6.53,11.94-12.6,21-14.8,8-1.93,22.29-3,24.16-1.81a5.88,5.88,0,0,1,1.13,3c.88,5.49.72,5.29,6.13,7.83a73.52,73.52,0,0,0,9.83,3.67,141.38,141.38,0,0,0,21.41,3.2l2,0-1.69.91c-.92.51-6.69,2.59-12.8,4.61a195.22,195.22,0,0,1-32,7.85c-6.3,1-20.87,1.15-28.25.29C7.09,175.24,2.48,169,6.2,161.67Z"/></g></g></svg>