<svg xmlns="http://www.w3.org/2000/svg" viewBox="0 0 240.66 177.93"><defs><style>.cls-1{fill:#262626;}</style></defs><title>Asset 7</title><g id="Layer_2" data-name="Layer 2"><g id="OBJECTS"><path class="cls-1" d="M12.34,68.62a160.3,160.3,0,0,1,17.53,1l8,1v2.92c0,7.6,4.63,26.84,8.84,36.71,1,2.47,1.31,2.68,3.16,2.5,3.28-.32,10.23-9.35,15.05-19.56,2.11-4.47,5.84-12.05,8.3-16.86l4.46-8.75,5.24-.41c8.46-.65,19.6-.59,20.3.12,1,1,2.74,0,3.49-1.83.36-.89,1.05-12.3,1.51-25.36s1.09-27.25,1.4-31.55.29-8.06,0-8.4c-.92-1-4.11.54-27.28,13.2C42.52,35.22,22.68,47,9.28,57,.82,63.24-.53,64.64.15,66.4S2.79,68.62,12.34,68.62ZM49.74,100a1.84,1.84,0,0,1-.54,1.4c-1,.61-7-26-7-31,0-.63,6.58-7.57,15.15-16C72.77,39.27,88.46,24.51,88.46,25.12c0,.19-2.9,4.5-6.44,9.59C67.75,55.19,62.73,62.58,62,64.16a7.55,7.55,0,0,1-1.55,2.29C58.72,67.82,49.75,95.82,49.74,100Zm21.19-29.1c-1.16,1.69-5.14,9.09-8.85,16.46S55.19,100.84,55,101c-.55.56,8.54-28.64,10-32.23a32.32,32.32,0,0,1,4-.57l4-.4Zm32.89-57.68c.08.09-.1,5.78-.39,12.65s-.55,17.77-.57,24.23c0,8.81-.23,11.79-.81,12-1.14.37-32.95.82-32.95.47,0-.78,4-7.17,7-11.09C86.14,38.07,89,34.23,96,24.11,100.2,18,103.74,13.1,103.82,13.18ZM12.73,60.41c10.9-7.68,42.85-26.8,64.8-38.81,7.22-3.94,14.24-7.81,15.62-8.59l2.5-1.43-1.87,1.87c-1,1-6.24,5.77-11.56,10.55S65.12,40.07,56.06,49.09C39.74,65.34,39.57,65.49,37,65.49a7.94,7.94,0,0,1-3-.35c-.19-.19-6.17-.53-13.31-.78l-13-.43Z"/><path class="cls-1" d="M80.42,133.82c-3.08.63-4.06,1.11-4.66,2.32-1.63,3.27,2.26,5.64,19.8,12.07,6,2.2,17.4,6.67,25.3,9.92,22.68,9.35,32.17,12.85,43,15.87,5.55,1.55,10.8,3.05,11.66,3.35a13.59,13.59,0,0,0,3.26.58c2.06.06,3.23-1.9,3.89-6.52a18.82,18.82,0,0,1,3.22-7.71,22.14,22.14,0,0,1,4.43.46c17.44,2.8,28.71,4.42,33,4.76,2.75.21,7.49.84,10.54,1.4,5.27,1,5.58,1,6.36-.1,1.82-2.49-1.73-6-11.15-11a59.34,59.34,0,0,1-8.56-5.62c-3.26-2.76-17.62-13.47-21.08-15.73-1.14-.75-1.95-.88-2.72-.47-.61.32-4.23.58-8.06.58-6.32,0-6.92-.09-6.63-1.08.74-2.5,2.89-11.35,2.89-11.9,0-.33-3.33-2.58-7.4-5s-11.36-7.38-16.21-11-9.21-6.59-9.69-6.59A99.09,99.09,0,0,0,141.1,107C101.89,125.8,86.53,132.59,80.42,133.82Zm99.36,31c-.75,1.25-2.17,3.47-3.16,4.92s-2.12,2.65-2.54,2.63c-1.49-.06-19.13-6.18-30.42-10.54-13.34-5.16-34.37-14-34.07-14.28.12-.11,6.21,1.34,13.55,3.24s18.11,4.3,24,5.35S163,159,169.44,160.25l11.72,2.25Zm20-22,3.76,3.48c4.71,4.37,16.27,13,17.4,13a13.22,13.22,0,0,1,3.87,2.35c1.66,1.28,3.55,2.67,4.2,3.08s.9.72.55.7c-12.07-1-25.75-3-43.41-6.46-7.74-1.52-18.55-3.47-24.06-4.35a346.18,346.18,0,0,1-37.47-7.81c-7.9-2-15.07-3.78-15.93-3.94s19.29-.23,44.77-.16ZM179,128.14c.3.31-2.17,8-2.78,8.74-.47.53-56.37.94-67.53.49l-7.81-.31,7.81-.79c4.3-.44,16.39-1.91,26.86-3.26C159,130,178.63,127.79,179,128.14Zm-27.81-21.51,4.26,4a112.71,112.71,0,0,0,16.7,12.13c1,.6.69.77-2.25,1.11L144,127c-12.37,1.52-25.87,3.06-30,3.44s-8.62.81-10,1l-2.49.27,2.19-1c33.36-16,41-19.72,43.95-21.68Z"/></g></g></svg>