<?xml version="1.0" encoding="iso-8859-1"?>
<!-- Generator: Adobe Illustrator 16.0.0, SVG Export Plug-In . SVG Version: 6.00 Build 0)  -->
<!DOCTYPE svg PUBLIC "-//W3C//DTD SVG 1.1//EN" "http://www.w3.org/Graphics/SVG/1.1/DTD/svg11.dtd">
<svg version="1.1" id="Layer_1" xmlns="http://www.w3.org/2000/svg" xmlns:xlink="http://www.w3.org/1999/xlink" x="0px" y="0px"
	 width="534.24px" height="589.68px" viewBox="0 0 534.24 589.68" style="enable-background:new 0 0 534.24 589.68;"
	 xml:space="preserve">
<g>
	<path d="M286.75,210.104c-9.477-3.854-19.276-7.838-29.992-15.15c-34.877-23.796-77.745-45.927-97.171-39.491
		c1.197,6.978,10.379,15.609,26.375,24.676c17.2,9.749,38.493,18.013,52.583,23.481c5.288,2.052,9.464,3.674,12.248,4.911
		c17.121,7.613,25.812,12.528,40.434,22.864c4.323,3.056,6.501,7.772,7.53,13.334l24.501-11.907
		c-0.612-2.095-1.326-3.704-2.171-4.343C308.47,218.937,297.92,214.646,286.75,210.104z"/>
	<path d="M355.366,181.702c-4.779-1.847-10.196-3.941-16.267-6.668c-31.615-14.204-98.43-41.611-101.068-33.317
		c-1.083,3.667,6.714,7.767,13.148,11.121l36.701,15.557c7.399,2.827,13.79,5.269,17.845,7.227c6.95,3.358,14.682,5.801,22.16,8.163
		c14.912,4.71,30.331,9.581,41.537,22.011c0.729,0.809,1.367,2.068,1.912,3.662l18.365-8.925c-0.234-0.321-0.478-0.593-0.736-0.794
		C376.163,189.741,366.986,186.194,355.366,181.702z"/>
	<path d="M284.68,240.654c-13.069-9.239-20.85-13.916-38.495-21.763c-2.534-1.127-6.598-2.704-11.743-4.701
		c-43.824-17.009-90.232-37.331-86.087-63.313l2.819-4.048c12.265-6.898,31.083-4.471,57.526,7.423
		c21.759,9.787,43.453,23.833,54.448,31.335c9.717,6.631,18.536,10.216,27.873,14.014c11.356,4.618,23.1,9.394,36.904,19.835
		c2.569,1.943,4.312,4.87,5.59,8.401l27.56-13.394c-0.14-0.592-0.283-1.078-0.426-1.439c-9.128-9.862-22.273-14.015-36.181-18.408
		c-7.861-2.483-15.99-5.05-23.678-8.765c-3.618-1.748-9.8-4.11-16.957-6.844c-34.603-13.218-69.678-35.104-64.845-47.229l0.75-1.5
		l1.312-1.312c6.708-6,86.601,19.53,122.694,35.745c5.795,2.603,10.834,4.551,15.709,6.435c12,4.639,22.363,8.644,36.488,19.677
		c1.574,1.23,2.855,2.866,3.928,4.787l18.752-9.113c-12.571-11.232-38.432-24.645-72.755-37.595
		c-34.798-13.129-67.229-21.631-78.48-22.266c-3.126-0.177-5.518-2.854-5.341-5.98c0.177-3.126,2.836-5.524,5.979-5.341
		c24.54,1.385,131.188,34.562,161.453,65.906l20.65-10.036c2.215-0.884,6.641-3.06,6.564-5.443
		c-0.028-0.929-0.289-1.809-0.723-2.584c-3.987-0.747-7.855-1.733-11.226-2.712c-6.863-1.996-12.399-6.705-19.247-8.836
		c-7.872-2.45-15.427-3.478-22.327-8.294c-2.121-1.481-4.266-2.851-6.467-4.108l-19.102-7.263c-4.547-1.05-9.172-1.897-13.77-3.106
		c-8.098-2.131-14.057-7.325-21.645-9.733c-7.068-2.242-15.139-4.939-22.361-6.516c-8.284-1.81-17.883-1.521-24.672-6.413
		c-5.848-4.213-10.039-9.811-17.512-10.999c-3.314-0.527-7.403-0.733-10.891-1.982c-8.497,3.183-16.904,6.602-24.554,11.812
		c-8.125,5.533-15.855,6.571-24.955,9.486c-7.2,2.307-13.799,6.639-20.466,10.09c-6.916,3.581-13.299,4.19-20.6,6.25
		c-6.212,1.752-12.352,5.292-17.917,8.568c-6.927,4.08-13.974,7.174-21.78,8.484c-8.951,1.502-11.434,5.582-18.795,10.18
		c-10.193,6.367-25.878,11.823-24.485,11.442c-3.733,1.019-7.709,3.89-11.211,5.451c-0.757,0.339-1.42,0.745-2.039,1.169
		c4.87,0.679,9.825,1.239,14.558,2.78c6.83,2.224,10.736,2.705,16.73,6.266c12.948,7.692,28.662,9.861,41.544,19.152
		c8.667,6.251,11.093,5.769,22.493,8.205c7.597,1.623,13.115,5.359,19.169,9.404c13.037,8.71,27.914,10.165,42.307,17.46
		c12.38,6.274,26.042,8.5,35.299,17.152c0.324,0.057,0.651,0.091,0.979,0.091c0.713,0,1.427-0.135,2.102-0.404l12.886-6.262
		C287.643,245.607,286.711,242.091,284.68,240.654z"/>
	<path d="M270.689,338.565c-0.438-7.163-0.699-14.688-1.141-21.888c-0.4-6.534,2.943-10.508,1.153-18.039
		c-1.575-6.627,1.39-11.831,0.983-18.395c-0.24-3.877-0.027-7.7,0.189-11.511c-3.512-2.377-7.68-3.611-11.69-5.296
		c-3.098-1.3-5.921-7.253-9.225-8.061c-4.224-1.033-8.73-0.405-13.016-1.119c-7.382-1.23-13.283-5.489-19.576-9.145
		c-6.788-3.944-13.903-2.628-20.958-5.784c-6.812-3.046-13.586-11.903-21.254-12.43c-5.005-0.344-10.068,0.095-14.867-1.876
		c-4.874-2.003-8.753-6.604-12.91-9.612c-13.782-9.973-20.373-9.269-25.832-11.311c-6.905-2.583-13.021-6.389-20.146-8.631
		c-6.445-2.028-10.103-3.624-14.516-8.734c-4.655-5.391-8.294-3.214-13.948-5.696c-0.064,6.738-5.859,22.009-4.801,40.299
		c0.567,9.802,6.006,27.402,5.403,40.653l191.605,88.329c0.747,0.339,1.546,0.507,2.341,0.507c1.074,0,2.143-0.306,3.072-0.904
		c0.293-0.188,0.557-0.409,0.805-0.644c-0.013-0.029-0.027-0.056-0.041-0.084C270.627,345.545,270.93,342.502,270.689,338.565z"/>
	<path d="M336.989,239.068c0.032,0.239,0.065,0.471,0.099,0.71c1.017,7.563,2.554,24.993,5.861,26.978
		c0.798,0.479,2.172,0.176,3.27-0.206c11.875-6.032,15.471-26.695,15.944-39.989c-3.687,1.005-6.474,1.949-10.257,5.207
		C347.359,235.685,342.336,236.507,336.989,239.068z"/>
	<path d="M404.649,207.241c0.432,3.819,0.731,14.792,1.023,18.736c0.41,5.561,1.004,13.59,2.072,16.948
		c5.121-0.826,9.062-3.866,12.013-9.25c5.35-9.762,5.875-23.939,5.052-33.362c-3.786,2.571-7.441,1.292-11.356,4.14
		C410.793,206.389,407.68,205.462,404.649,207.241z"/>
	<path d="M465.215,225.727c0.224-8.845-2.027-23.943-2.029-33.401c-0.001-5.869-0.059-11.705-0.164-17.518
		c-6.271,4.598-13.883,10.479-17.995,10.512c-4.329,0.033-5.513,3.448-9.282,5.399c-0.104,0.053-0.199,0.109-0.303,0.163
		c1.994,11.47,1.352,32.311-4.021,44.718c-4.985,11.513-13.42,18.016-24.402,18.815c-2.213,0.263-4.383-0.355-6.136-1.752
		c-4.669-3.72-5.482-22.832-6.518-36.85c-0.182-2.457-0.397-1.363-0.686-4.348c-2.605,0.536-5.242,3.98-7.749,4.788
		c-4.397,1.415-8.312,3.979-12.399,6.147c0.059,5.971-0.421,16.384-1.538,22.167c-3.07,15.888-10.349,27.056-21.046,32.296
		l-0.518,0.222c-5.039,1.875-9.52,1.672-13.314-0.606c-5.834-3.5-10.987-32.138-10.926-31.692c-0.752,0.391-1.49,0.832-2.215,1.354
		c-3.791,2.738-5.711,5.858-10.531,6.699c-4.627,0.807-9.408,1.384-13.936,2.831c-0.067,2.241-0.171,8.5-0.28,10.751
		c-0.335,6.921-0.683,14.078,0.298,19.304c0.577,3.078-1.45,6.04-4.527,6.617c-0.354,0.066-0.705,0.098-1.051,0.098
		c-2.676,0-5.056-1.901-5.566-4.625c-1.217-6.489-0.851-18.256-0.486-25.781c-2.352,1.566-4.773,2.989-7.341,3.606
		c-0.446,9.961,2.038,25.122,0.015,34.194c-3.049,13.668,2.148,27.219,1.28,41.007c-0.134,2.118-0.691,5.368-1.12,8.781
		c0.271,0.039,0.545,0.061,0.819,0.061c0.696,0,1.397-0.128,2.063-0.39l174.996-91.773c4.162-2.352,6.617-4.704,6.623-7.019
		C465.256,241.503,465.01,233.871,465.215,225.727z"/>
</g>
</svg>
