<?xml version="1.0" encoding="iso-8859-1"?>
<!-- Generator: Adobe Illustrator 16.0.0, SVG Export Plug-In . SVG Version: 6.00 Build 0)  -->
<!DOCTYPE svg PUBLIC "-//W3C//DTD SVG 1.1//EN" "http://www.w3.org/Graphics/SVG/1.1/DTD/svg11.dtd">
<svg version="1.1" id="Layer_1" xmlns="http://www.w3.org/2000/svg" xmlns:xlink="http://www.w3.org/1999/xlink" x="0px" y="0px"
	 width="534.24px" height="444.24px" viewBox="0 0 534.24 444.24" style="enable-background:new 0 0 534.24 444.24;"
	 xml:space="preserve">
<path style="fill:none;" d="M414.42,181.785c-54.17,12.879-108.324,25.833-162.495,38.711
	c-44.23,10.514-88.507,20.842-132.671,31.629c-3.553,0.867-8.662,4.294-9.124,7.166c-1.267,7.852-0.415,92.958-0.415,102.34
	c19.533-4.633,37.66-8.934,55.787-13.234c83.296-19.766,166.602-39.493,249.853-59.447c3.19-0.764,8.114-3.426,8.378-5.658
	c0.995-8.449-0.235-93.25-0.235-102.973C419.956,180.879,417.141,181.138,414.42,181.785z"/>
<path d="M437.158,162.916c-0.299-9.998-0.918-17.345-7.927-24.339c-10.392-10.367-23.265-17.938-32.567-29.56
	c-4.106-5.131-11.493-5.29-17.158-7.233c-6.979-2.396-13.52-6.426-20.238-9.475c-11.025-5.004-20.262-5.958-31.066-10.063
	c-8.137-3.094-13.211-11.18-21.402-13.881c-2.145-0.706-5.602-0.102-7.869-0.108c-2.415-0.007-4.844,0.049-7.253-0.155
	c-4.151-0.352-8.886-1.782-12.132-4.531c-3.966-3.358-12.048-6.195-15.757-1.445l-3.74,7.1c-0.548,2.06-0.323,1.931-0.614,2.878
	c-1.104,1.771-2.139,3.109-3.917,5.023c-50.935,54.818-102.182,109.346-153.108,164.172c-2.796,3.009-5.002,7.892-5.043,11.927
	c-0.381,37.414-0.152,74.834-0.283,112.25c-0.029,8.25,2.458,11.533,11.45,9.385c106.249-25.367,212.549-50.521,318.87-75.586
	c7.068-1.668,9.674-5.058,9.469-12.467c-0.508-18.342-0.166-36.708-0.166-55.064c0-18.002-0.375-36.016,0.181-54.002
	C437.041,172.746,437.121,167.791,437.158,162.916z M270.729,78.613c0.803-0.379,1.713-0.812,16.328,3.803
	c7.957,2.511,20.544,6.854,35.315,13.273c25.677,11.159,62.482,30.659,92.004,60.18c1.106,1.106,1.106,2.902,0,4.009
	c-0.554,0.554-1.278,0.83-2.005,0.83c-0.725,0-1.45-0.276-2.004-0.83c-49.862-49.862-120.934-71.157-135.885-75.171
	c-0.262,0.011-0.534-0.016-0.803-0.084c-2.905-0.732-4.363-1.098-4.565-3.167C268.998,80.265,269.646,79.125,270.729,78.613z
	 M423.732,283.291c-0.264,2.232-5.188,4.895-8.378,5.658c-83.251,19.954-166.557,39.682-249.853,59.447
	c-18.127,4.301-36.254,8.602-55.787,13.234c0-9.382-0.852-94.488,0.415-102.34c0.462-2.872,5.571-6.299,9.124-7.166
	c44.165-10.787,88.441-21.115,132.671-31.629c54.17-12.878,108.325-25.832,162.495-38.711c2.721-0.647,5.536-0.906,9.077-1.467
	C423.497,190.041,424.728,274.842,423.732,283.291z"/>
</svg>
