<?xml version="1.0" encoding="iso-8859-1"?>
<!-- Generator: Adobe Illustrator 16.0.0, SVG Export Plug-In . SVG Version: 6.00 Build 0)  -->
<!DOCTYPE svg PUBLIC "-//W3C//DTD SVG 1.1//EN" "http://www.w3.org/Graphics/SVG/1.1/DTD/svg11.dtd">
<svg version="1.1" id="Layer_1" xmlns="http://www.w3.org/2000/svg" xmlns:xlink="http://www.w3.org/1999/xlink" x="0px" y="0px"
	 width="534.24px" height="589.68px" viewBox="0 0 534.24 589.68" style="enable-background:new 0 0 534.24 589.68;"
	 xml:space="preserve">
<path d="M402.498,112.389c-19.569-27.575-52.137-32.816-85.906-33.207v0.123c-0.537-0.001-1.078-0.001-1.619-0.001
	c-4.34,0-8.783,0.02-13.111,0.212c-23.525,1.044-43.49,10.207-59.337,27.233c-9.707,10.43-16.334,20.705-21.952,35.424
	c24.557,2.126,48.316,8.37,66.595,24.688c1.757-5.945,8.367-9.634,15.64-8.493c5.506,0.864,8.652,5.926,7.506,12.076
	c-0.928,4.967-5.671,8.698-11.299,9.563c0.159,0.22,0.326,0.425,0.484,0.646c6.494,9.15,11.701,20.249,15.5,32.861
	c2.991-1.97,7.107-2.954,10.743-2.147c5.19,1.152,7.007,5.43,5.29,12.453c-1.634,6.676-4.453,8.808-9.772,7.389
	c-0.756-0.202-1.488-0.467-2.195-0.779c0.985,5.313,1.768,10.812,2.31,16.498c1.574,16.483,1.224,34.062-0.93,50.977
	c18.419,0.395,36.828-2.824,51.57-9.24c24.375-10.609,40.199-29.879,45.76-55.726C425.91,195.114,424.344,143.168,402.498,112.389z
	 M278.023,126.257c-1.543,7.595-6.754,10.61-15.188,8.788c-6.817-1.473-11.021-6.853-9.815-12.565
	c1.363-6.461,11.398-12.306,18.426-10.731C276.969,112.984,279.561,118.701,278.023,126.257z M331.509,118.585
	c-5.753-1.376-9.51-7.505-8.121-13.253c1.229-5.092,6.446-8.397,11.298-7.158c5.172,1.325,10.069,8.652,8.857,13.252
	C342.17,116.631,336.771,119.844,331.509,118.585z M346.766,168.629c-5.225-1.045-9.146-8.312-7.732-14.329
	c1.119-4.76,6.93-7.018,13.97-5.427c5.393,1.217,7.665,4.652,6.593,9.958C358.305,165.204,352.356,169.748,346.766,168.629z
	 M377.078,255.055c-1.252,6.618-9.699,13.321-15.574,12.357c-4.205-0.69-10.369-11.843-9.482-17.159
	c0.793-4.755,8.662-8.165,15.518-6.721C374.061,244.904,378.08,249.76,377.078,255.055z M382.451,144.064
	c1.462-1.491,3.777-5.566,7.107-6.726c2.806-0.977,8.238,0.361,9.905,2.607c2.308,3.108,3.087,8.092,2.802,12.151
	c-0.23,3.281-2.339,8.188-4.819,9.102c-3.013,1.112-7.763-0.404-10.913-2.238C382.015,156.332,381.258,151.387,382.451,144.064z
	 M405.971,207.266c-1.57,6.66-3.991,8.687-9.003,7.533c-6.497-1.497-11.728-8.858-10.371-14.6c1.142-4.832,6.193-7.424,11.755-6.031
	C404.713,195.762,407.539,200.618,405.971,207.266z"/>
<path d="M291.166,186.568c-20.715-29.188-55.187-34.736-90.931-35.148v0.129c-0.569-0.001-1.141-0.001-1.714-0.001
	c-4.594,0-9.297,0.021-13.878,0.224c-24.901,1.106-46.033,10.804-62.808,28.828c-14.868,15.974-26.037,38.459-32.3,65.023
	c-7.538,31.967-3.361,61.573,12.079,85.619c15.725,24.49,42.77,41.658,76.154,48.344c29.305,5.869,58.117,3.586,81.131-6.431
	c25.801-11.229,42.55-31.626,48.436-58.984C315.947,274.132,314.289,219.148,291.166,186.568z M122.878,268.35
	c-1.753,7.407-3.781,9.399-8.511,8.36c-6.97-1.533-11.275-8.479-9.502-15.332c1.615-6.237,6.537-9.724,12.011-8.509
	C122.901,254.208,124.965,259.53,122.878,268.35z M155.985,320.315c-1.665,6.812-11.461,11.757-19.428,9.806
	c-5.943-1.454-8.992-8.381-7.006-15.917c1.984-7.524,8.992-11.882,16.233-10.093C153.171,305.937,157.729,313.177,155.985,320.315z
	 M159.411,201.247c-1.634,8.039-7.15,11.231-16.078,9.303c-7.216-1.559-11.666-7.253-10.389-13.301
	c1.443-6.839,12.065-13.025,19.503-11.358C158.294,187.199,161.038,193.25,159.411,201.247z M175.766,258.045
	c-5.912-1.13-8.219-5.245-6.992-12.471c1.201-7.073,8.636-11.629,16.87-10.336c5.827,0.914,9.158,6.272,7.944,12.782
	C192.294,254.947,183.991,259.619,175.766,258.045z M201.361,357.285c-1.273,5.701-5.195,8.309-10.55,7.014
	c-7.792-1.885-12.479-7.22-11.225-12.774c1.31-5.795,7.591-9.321,13.788-7.739C199.749,345.411,202.845,350.644,201.361,357.285z
	 M215.518,304.519c-1.729,7.066-4.713,9.322-10.343,7.821c-6.903-1.842-12.16-8.325-10.863-13.4
	c1.328-5.199,9.188-9.026,15.607-7.603C215.414,292.557,217.336,297.084,215.518,304.519z M216.024,193.128
	c-6.09-1.458-10.066-7.944-8.596-14.029c1.301-5.39,6.824-8.888,11.958-7.576c5.474,1.401,10.658,9.158,9.375,14.026
	C227.309,191.06,221.593,194.46,216.024,193.128z M232.174,246.098c-5.53-1.106-9.682-8.799-8.185-15.167
	c1.185-5.039,7.334-7.429,14.786-5.746c5.708,1.289,8.114,4.925,6.978,10.541C244.388,242.473,238.091,247.282,232.174,246.098z
	 M264.259,337.579c-1.325,7.005-10.267,14.101-16.485,13.079c-4.451-0.729-10.975-12.535-10.037-18.162
	c0.84-5.033,9.169-8.643,16.425-7.114C261.064,326.835,265.319,331.975,264.259,337.579z M269.946,220.097
	c1.547-1.579,3.998-5.892,7.523-7.12c2.97-1.033,8.72,0.383,10.483,2.76c2.443,3.29,3.268,8.565,2.966,12.862
	c-0.243,3.473-2.476,8.666-5.101,9.635c-3.189,1.177-8.217-0.428-11.552-2.369C269.484,233.082,268.684,227.848,269.946,220.097z
	 M294.842,286.994c-1.662,7.05-4.226,9.195-9.53,7.974c-6.876-1.584-12.413-9.377-10.978-15.453
	c1.209-5.115,6.556-7.857,12.441-6.384C293.51,274.817,296.502,279.958,294.842,286.994z"/>
</svg>
