<?xml version="1.0" encoding="iso-8859-1"?>
<!-- Generator: Adobe Illustrator 16.0.0, SVG Export Plug-In . SVG Version: 6.00 Build 0)  -->
<!DOCTYPE svg PUBLIC "-//W3C//DTD SVG 1.1//EN" "http://www.w3.org/Graphics/SVG/1.1/DTD/svg11.dtd">
<svg version="1.1" id="Layer_1" xmlns="http://www.w3.org/2000/svg" xmlns:xlink="http://www.w3.org/1999/xlink" x="0px" y="0px"
	 width="534.24px" height="444.24px" viewBox="0 0 534.24 444.24" style="enable-background:new 0 0 534.24 444.24;"
	 xml:space="preserve">
<path style="fill-rule:evenodd;clip-rule:evenodd;" d="M467.928,283.382c-1.46,5.366-2.863,10.748-4.394,16.094
	c-1.72,6.006-6.115,7.177-11.255,5.234c-11.447-4.325-22.743-9.046-34.631-13.819c12.792-25.48,15.789-52.797,16.863-81.867
	c16.23,18.703,27.991,38.43,32.999,61.835C467.649,275.032,467.789,279.207,467.928,283.382z"/>
<path style="fill-rule:evenodd;clip-rule:evenodd;" d="M66.898,276.652c4.429-12.011,8.517-24.164,13.453-35.963
	c2.012-4.807,5.864-8.844,9.579-13.054c2.846,26.995,13.575,50.618,28.408,73.922c-10.882,2.257-20.706,4.892-30.703,6.2
	c-10.395,1.36-18.039-4.911-20.292-15.128c-0.258-1.173-0.683-2.309-1.031-3.462C66.508,284.997,66.703,280.823,66.898,276.652z"/>
<path style="fill-rule:evenodd;clip-rule:evenodd;" d="M324.248,138.517c5.42,1.324,10.264,2.516,15.111,3.692
	c16.967,4.118,26.827,14.884,28.477,32.184c3.141,32.958,3.16,65.776-7.146,97.793c-0.318,0.99-0.678,1.967-1.029,2.944
	c-7.891,21.942-18.034,28.03-40.852,24.54c-21.414-3.276-42.866-1.973-64.288-0.252c-14.941,1.202-29.864,2.726-44.749,4.499
	c-6.241,0.742-10.232-1.729-13.728-6.489c-14.226-19.369-23.434-41.175-30.958-63.752c-6.463-19.398-11.557-39.086-11.455-59.815
	c0.053-10.679,4.243-18.841,13.756-23.32c8.231-3.876,16.975-6.751,25.677-9.476c2.063-0.646,49.598-7.622,73.26-6.109
	C282.324,135.978,316.241,136.997,324.248,138.517z"/>
<path style="fill-rule:evenodd;clip-rule:evenodd;" d="M183.165,302.941c-12.738,2.314-24.708,5.262-36.842,6.286
	c-4.388,0.37-10.547-2.688-13.538-6.194c-18.558-21.762-30.462-46.57-31.663-75.72c-0.585-14.206,4.357-26.281,14.888-35.638
	c7.224-6.417,15.256-11.924,24.221-18.836C143.253,220.769,159.79,262.152,183.165,302.941z"/>
<path style="fill-rule:evenodd;clip-rule:evenodd;" d="M379.494,162.774c9.646,5.04,18.961,9.235,27.564,14.572
	c10.697,6.636,15.699,17.125,16.012,29.534c0.64,25.381-2.388,50.276-11.268,74.228c-1.221,3.293-2.826,6.488-4.604,9.522
	c-6.567,11.213-12.063,13.632-24.803,11.293c-6.326-1.163-12.668-2.248-19.406-3.439
	C385.38,255.542,383.701,210.048,379.494,162.774z"/>
</svg>
