<?xml version="1.0" encoding="iso-8859-1"?>
<!-- Generator: Adobe Illustrator 16.0.0, SVG Export Plug-In . SVG Version: 6.00 Build 0)  -->
<!DOCTYPE svg PUBLIC "-//W3C//DTD SVG 1.1//EN" "http://www.w3.org/Graphics/SVG/1.1/DTD/svg11.dtd">
<svg version="1.1" id="Layer_1" xmlns="http://www.w3.org/2000/svg" xmlns:xlink="http://www.w3.org/1999/xlink" x="0px" y="0px"
	 width="534.24px" height="444.24px" viewBox="0 0 534.24 444.24" style="enable-background:new 0 0 534.24 444.24;"
	 xml:space="preserve">
<g>
	<path style="fill:none;" d="M198.006,273.072l-0.815-5.463c-0.462-3.096-3.345-5.232-6.444-4.771
		c-3.097,0.462-5.232,3.347-4.771,6.444l0.165,1.104l10.315,69.124c0.42,2.813,2.839,4.833,5.601,4.833
		c0.278,0,0.56-0.021,0.844-0.062c3.097-0.463,5.232-3.348,4.771-6.444L198.006,273.072z"/>
	<path style="fill:none;" d="M180.832,190.346c12.865,6.687,26.703,12.818,40.82,15.455c19.935,3.72,40.506,4.024,63.684,6.04
		c20.49-2.281,43.58-4.437,66.523-7.648c7.263-1.017,14.504-4.14,21.1-7.562c12.389-6.427,16.428-16.172,13.709-29.956
		c-1.967-9.975-13.033-20.44-23.537-21.962c-0.127-0.018-0.263-0.026-0.396-0.037l-14.042-5.847
		c10.845-9.128,10.392-24.354-2.651-33.484c-5.271-3.691-11.658-6-17.807-8.167c-9.131-3.223-18.533-5.671-27.765-8.619
		c-8.35-2.666-16.897-4.957-24.856-8.531c-7.58-3.402-14.511-8.251-22.339-12.82c-1.471,19.424-14.465,29.125-30.88,36.097
		c-4.84,2.054-9.514,4.949-13.581,8.29c-8.067,6.628-10.164,15.971-6.809,23.663l-15.398,10.998
		c-8.018,3.34-14.649,8.601-16.35,17.827C168.278,174.805,171.229,185.354,180.832,190.346z M328.77,145.716
		c1.82-0.473,5.693,1.454,6.288,3.114c0.778,2.172,0.024,6.848-1.44,7.539c-7.626,3.593-15.688,6.265-24.586,9.631
		c-1.982-2.25-4.705-4.029-5.195-6.292c-0.422-1.946,1.143-5.766,2.8-6.471C313.799,150.195,321.236,147.675,328.77,145.716z
		 M291.648,113.654c7.855-3.64,16.018-6.624,24.938-10.166c2.177,2.206,5.041,3.781,5.244,5.647
		c0.262,2.386-0.967,6.509-2.695,7.264c-7.154,3.117-14.646,5.634-22.232,7.463c-1.869,0.449-5.238-2.066-6.631-4.099
		C289.423,118.523,290.402,114.23,291.648,113.654z M276.484,180.973c1.427,1.936,1.381,6.943-0.121,8.495
		c-1.506,1.555-6.658,1.825-8.465,0.417c-5.071-3.95-9.479-8.861-13.625-13.83c-1.247-1.494-1.603-4.758-0.859-6.601
		c0.756-1.869,3.377-2.984,5.215-4.456c2.225,1.243,4.011,1.836,5.248,3.01C268.259,172.163,272.938,176.161,276.484,180.973z
		 M232.72,123.088c0.497-1.855,3.543-4.732,4.754-4.415c8.582,2.245,17.067,4.97,25.341,8.167c1.235,0.478,2.093,4.497,1.521,6.393
		c-0.631,2.096-3.11,3.634-5.021,5.667c-8.885-3.38-16.908-6.152-24.619-9.62C233.294,128.649,232.228,124.924,232.72,123.088z
		 M201.909,184.602c2.033-7.746,4.803-15.352,8.027-22.692c0.689-1.57,4.727-2.945,6.614-2.379c2.186,0.655,3.7,3.551,5.596,5.568
		c-3.164,8.557-5.605,16.251-8.988,23.507c-0.794,1.705-5.239,3.202-7.143,2.489C204.014,190.347,201.435,186.411,201.909,184.602z"
		/>
	<path style="fill:none;" d="M236.171,272.02l-0.463-5.953c-0.244-3.123-2.984-5.461-6.092-5.213
		c-2.95,0.229-5.192,2.679-5.226,5.581c-0.002,0.169,0,0.339,0.014,0.511l5.51,70.792c0.231,2.972,2.715,5.229,5.646,5.229
		c0.148,0,0.297-0.006,0.446-0.018c3.122-0.242,5.455-2.971,5.212-6.092L236.171,272.02z"/>
	<path style="fill:none;" d="M327.533,260.854c-3.119-0.24-5.849,2.091-6.092,5.213l-0.369,4.749l-5.141,66.042
		c-0.243,3.121,2.09,5.85,5.212,6.092c0.149,0.012,0.298,0.018,0.446,0.018c2.932,0,5.414-2.258,5.646-5.229l5.51-70.792
		c0.006-0.069,0.003-0.137,0.006-0.207C332.877,263.705,330.586,261.092,327.533,260.854z"/>
	<path style="fill:none;" d="M366.402,262.839c-3.098-0.459-5.982,1.674-6.444,4.771l-0.853,5.714l-9.627,64.514
		c-0.463,3.097,1.674,5.981,4.77,6.444c0.284,0.042,0.566,0.062,0.844,0.062c2.762,0,5.182-2.02,5.602-4.833l10.41-69.766
		l0.069-0.462C371.635,266.186,369.499,263.301,366.402,262.839z"/>
	<path style="fill:none;" d="M285.951,266.609c-0.006-3.128-2.543-5.66-5.67-5.66c-0.002,0-0.006,0-0.009,0
		c-3.131,0.006-5.665,2.547-5.66,5.679l0.003,2.055l0.111,68.511c0.005,3.129,2.542,5.66,5.669,5.66c0.003,0,0.006,0,0.009,0
		c3.131-0.005,5.666-2.547,5.66-5.678l-0.107-67.107L285.951,266.609z"/>
	<path d="M234.696,129.28c7.711,3.468,15.734,6.24,24.619,9.62c1.912-2.033,4.39-3.571,5.021-5.667
		c0.572-1.896-0.286-5.916-1.521-6.393c-8.274-3.197-16.759-5.922-25.341-8.167c-1.211-0.317-4.257,2.56-4.754,4.415
		C232.228,124.924,233.294,128.649,234.696,129.28z"/>
	<path d="M303.836,159.708c0.49,2.264,3.213,4.043,5.195,6.292c8.898-3.367,16.96-6.039,24.586-9.631
		c1.465-0.691,2.219-5.367,1.44-7.539c-0.595-1.66-4.468-3.587-6.288-3.114c-7.533,1.959-14.971,4.479-22.134,7.521
		C304.979,153.942,303.414,157.762,303.836,159.708z"/>
	<path d="M206.015,191.095c1.904,0.713,6.348-0.784,7.143-2.489c3.382-7.255,5.824-14.95,8.988-23.507
		c-1.896-2.018-3.41-4.913-5.596-5.568c-1.887-0.566-5.925,0.809-6.614,2.379c-3.224,7.341-5.994,14.946-8.027,22.692
		C201.435,186.411,204.014,190.347,206.015,191.095z"/>
	<path d="M296.902,123.862c7.587-1.829,15.078-4.347,22.232-7.463c1.729-0.755,2.957-4.878,2.695-7.264
		c-0.203-1.866-3.067-3.441-5.244-5.647c-8.92,3.542-17.082,6.526-24.938,10.166c-1.246,0.577-2.226,4.869-1.377,6.109
		C291.664,121.796,295.033,124.312,296.902,123.862z"/>
	<path d="M258.629,164.997c-1.838,1.472-4.459,2.587-5.215,4.456c-0.744,1.843-0.388,5.107,0.859,6.601
		c4.146,4.968,8.554,9.879,13.625,13.83c1.807,1.408,6.959,1.139,8.465-0.417c1.502-1.551,1.548-6.559,0.121-8.495
		c-3.547-4.812-8.226-8.81-12.608-12.966C262.64,166.833,260.854,166.24,258.629,164.997z"/>
	<path d="M172.204,199.195c4.796,3.68,23.835,11.907,34.84,14.595c40.438,9.877,81.606,8.702,122.675,5.034
		c19.354-1.728,38.626-4.842,55.156-16.542c0.723-0.511,12.719-8.907,14.119-11.48c11.756-20.551-3.486-43.93-32.443-56.757
		c0-1.854-0.086-3.969,0.014-6.073c0.834-17.895-7.289-30.49-23.754-36.618c-17.876-6.653-36.201-12.127-54.434-17.788
		c-13.289-4.125-24.324-11.171-33.079-22.116c-2.013-2.519-5.951-3.495-9.003-5.183c-1.018,3.064-2.994,6.16-2.895,9.186
		c0.586,18.01-6.271,30.782-23.753,37.416c-11.006,4.177-23.664,9.913-25.825,21.447c-2.766,14.751-10.794,21.697-22.23,29.267
		c-14.017,9.278-20.472,30.421-11.758,45.752C159.519,189.5,172.204,199.195,172.204,199.195z M170.256,164.081
		c1.701-9.227,8.332-14.487,16.35-17.827l15.398-10.998c-3.355-7.692-1.258-17.035,6.809-23.663
		c4.066-3.341,8.741-6.235,13.581-8.29c16.416-6.972,29.409-16.673,30.88-36.097c7.828,4.569,14.759,9.418,22.339,12.82
		c7.959,3.574,16.507,5.865,24.856,8.531c9.231,2.948,18.634,5.396,27.765,8.619c6.148,2.168,12.536,4.477,17.807,8.167
		c13.043,9.13,13.496,24.356,2.651,33.484l14.042,5.847c0.134,0.011,0.27,0.019,0.396,0.037
		c10.504,1.522,21.57,11.987,23.537,21.962c2.719,13.784-1.32,23.529-13.709,29.956c-6.596,3.422-13.837,6.545-21.1,7.562
		c-22.943,3.211-46.033,5.367-66.523,7.648c-23.177-2.016-43.749-2.319-63.684-6.04c-14.117-2.637-27.956-8.768-40.82-15.455
		C171.229,185.354,168.278,174.805,170.256,164.081z"/>
	<path d="M409.018,189.604l-8.085,9.078c2.688,1.933,5.158,4.044,7.167,6.527c5.049,6.235,0.031,24.308-6.039,28.589
		c-1.602,1.129-4.49,0.986-6.667,0.648c-9.435-1.466-18.097-0.67-25.245,6.639c-6.229,6.369-13.097,7.647-21.255,3.042
		c-11.769-6.645-23.282-6.19-34.121,2.598c-5.999,4.866-12.445,5.54-19.093,1.019c-11.979-8.152-23.967-8.085-35.963,0.021
		c-6.224,4.208-12.427,4.062-18.261-0.668c-11.024-8.938-22.757-9.809-34.959-2.97c-8.091,4.534-14.412,2.527-21.403-2.936
		c-5.341-4.172-12.246-6.34-18.455-9.401c-11.084,2.414-17.909-3.082-19.816-13.045c-1.978-10.334,1.142-19.617,8.33-25.767
		l-7.217-8.179c-15.953,13.822-17.262,37.404-1.877,54.293c3.55,3.897,4.844,10.354,5.956,15.877
		c6.612,32.853,12.675,65.815,19.488,98.625c0.815,3.927,4.282,8.752,7.822,10.451c65.416,31.373,131.112,31.523,196.583,0.206
		c3.76-1.796,7.413-6.962,8.284-11.149c6.898-33.107,13.029-66.375,19.643-99.542c0.757-3.796,2.218-8.011,4.719-10.811
		C425.59,223.65,425.408,203.729,409.018,189.604z M202.901,344.281c-0.284,0.042-0.566,0.062-0.844,0.062
		c-2.761,0-5.181-2.02-5.601-4.833l-10.315-69.124l-0.165-1.104c-0.462-3.098,1.674-5.982,4.771-6.444
		c3.1-0.462,5.982,1.675,6.444,4.771l0.815,5.463l9.665,64.765C208.133,340.934,205.998,343.818,202.901,344.281z M236.006,342.949
		c-0.149,0.012-0.298,0.018-0.446,0.018c-2.931,0-5.415-2.258-5.646-5.229l-5.51-70.792c-0.013-0.172-0.016-0.342-0.014-0.511
		c0.034-2.902,2.276-5.352,5.226-5.581c3.108-0.248,5.849,2.09,6.092,5.213l0.463,5.953l5.047,64.838
		C241.461,339.979,239.127,342.707,236.006,342.949z M280.404,342.854c-0.003,0-0.006,0-0.009,0c-3.127,0-5.664-2.531-5.669-5.66
		l-0.111-68.511l-0.003-2.055c-0.005-3.132,2.529-5.673,5.66-5.679c0.003,0,0.007,0,0.009,0c3.127,0,5.664,2.532,5.67,5.66
		l0.006,3.459l0.107,67.107C286.07,340.307,283.535,342.849,280.404,342.854z M332.746,266.945l-5.51,70.792
		c-0.232,2.972-2.715,5.229-5.646,5.229c-0.148,0-0.297-0.006-0.446-0.018c-3.122-0.242-5.455-2.971-5.212-6.092l5.141-66.042
		l0.369-4.749c0.243-3.122,2.973-5.453,6.092-5.213c3.053,0.238,5.344,2.852,5.219,5.885
		C332.749,266.809,332.752,266.876,332.746,266.945z M371.173,269.283l-0.069,0.462l-10.41,69.766
		c-0.42,2.813-2.84,4.833-5.602,4.833c-0.277,0-0.56-0.021-0.844-0.062c-3.096-0.463-5.232-3.348-4.77-6.444l9.627-64.514
		l0.853-5.714c0.462-3.097,3.347-5.229,6.444-4.771C369.499,263.301,371.635,266.186,371.173,269.283z"/>
</g>
</svg>
