<svg xmlns="http://www.w3.org/2000/svg" viewBox="0 0 100.63 180.07"><defs><style>.cls-1{fill:#262626;}</style></defs><title>Asset 23</title><g id="Layer_2" data-name="Layer 2"><g id="OBJECTS"><path class="cls-1" d="M74.42,41.49c-1.5,0-1.62-10.58-.22-19.9,1.14-7.62.92-14.5-.57-17.37-1.39-2.67-4.82-3.87-7-2.45a7.53,7.53,0,0,0-2.12,2.09c-1,1.91-2,15.05-1.8,24.63.12,6.94,0,9.37-.66,10s-1,.62-1.65-.3c-1.24-1.68-1.67-5.69-2.13-19.82-.38-11.27-.58-13.08-1.69-15-2.42-4.15-6.39-4.52-8.82-.82-1,1.53-1.14,3.59-1.31,18.76-.22,18.62.11,21.28,3.41,28a43.93,43.93,0,0,0,5.84,8c6.53,7.17,6.79,9.16,6.12,46-.91,50-.86,60.35.29,65.45,1.25,5.54,2.62,8,5.48,10a6.35,6.35,0,0,0,5,1.2c3.21-.29,8.19-3,10-5.49s2.55-8.69,1.81-16.83c-.36-4-.8-14.78-1-24.06s-.65-26.56-1-38.41C81.56,66.4,82.1,62.87,88,58.79c5.18-3.57,7.44-6,9.11-9.69,2.19-4.89,2.74-9.52,3.26-27.64.38-13.46.32-15.57-.58-17.28a5.14,5.14,0,0,0-2.19-2.33c-1.68-.54-4.18.78-5,2.63-1.46,3.22-2.54,10.41-2.54,17,0,6.8-1.32,16-2.47,17.1s-1.36-1.45-.38-8.07c1.29-8.71,1.88-18.63,1.34-22.32-1-7-7.16-9.08-9.4-3.24-.26.68-1,8.41-1.6,17.17C76.55,36.6,75.76,41.49,74.42,41.49Zm7.49-22.6c.29-6.07.77-11.42,1-11.86.91-1.45,1.25,3.15.76,10.1-.24,3.6-.53,10-.65,14.15C82.9,38.21,83,39,84.2,40.66a3.72,3.72,0,0,0,3,1.77c3.82,0,5.67-5.82,6.56-20.62C94.75,6.42,96.22.28,96.42,10.93c.14,6.58.09,8.29-.69,23.41-.73,14.13-1.4,15.74-8.84,21C81.69,59,80,61.62,78.75,68c-.67,3.43.22,47.14,1.48,73.39,1.25,26.1.9,30.62-2.48,32.56-2.49,1.44-6.69,1.85-8.18.81a8.87,8.87,0,0,1-2.2-3.32c-1.94-4.85-2.24-11.57-1.66-37.88,1-45.53.94-61.14-.32-66.5-1.42-6.1-2.67-8.48-6.86-13-4.49-4.85-5.64-7.62-6.94-16.67a51.91,51.91,0,0,1-.44-15,110.16,110.16,0,0,0,.36-12.66c-.2-3.21-.06-5.15.32-5.15,1.11,0,1.52,3.2,2,15.61.63,16.3,2.55,22.49,7,22.49,1.83,0,4.66-2.94,5.49-5.72.93-3.11,1.86-15.42,1.89-25.09,0-5.14.22-6.71.8-6.51.87.28,1,5.56.45,25.24-.27,10.8-.22,11.44,1,13.12,1.67,2.26,3.89,2.53,6.14.76C80,41.86,81,36.93,81.91,18.89Z"/><path class="cls-1" d="M25.12,1c-4,2-7.85,6.9-11.91,15.16A75.76,75.76,0,0,0,5.42,42c-.54,4-1.53,10.3-2.2,13.91S1.48,67.48.83,73.67C-.87,89.73-.4,91.86,6.49,99.44c8.22,9,8.09,8.65,9.6,29.81a199.75,199.75,0,0,1,.5,25.92c-.29,6.36-.43,12.83-.31,14.37.29,3.71,2,7,4.59,8.65s4.26,1.68,6.29.08c3.3-2.59,3.44-4,3.86-37.16.21-16.82.58-45.92.83-64.64.74-56.6.63-68.43-.69-72.54S28.75-.77,25.12,1Zm2.44,126.65c-.35,4.65-.71,16.9-.77,27.24-.1,14.87-.3,19-1,19.83a2.76,2.76,0,0,1-1.67,1c-1.07,0-3.32-2.89-3.83-4.9-.22-.87-.13-8.63.21-17.23.62-16,.16-33.19-1.08-40-1-5.76-3.17-9.74-8-15-6.73-7.25-8-10.49-7-17.24.34-2.2.93-6.66,1.3-9.92,1.39-12.42,7-40.78,9.67-48.74a52.9,52.9,0,0,1,3.82-8.52c2.29-3.81,6.9-9,8-9C28.17,5.26,28.44,116.27,27.56,127.68Z"/></g></g></svg>