<?xml version="1.0" encoding="iso-8859-1"?>
<!-- Generator: Adobe Illustrator 16.0.0, SVG Export Plug-In . SVG Version: 6.00 Build 0)  -->
<!DOCTYPE svg PUBLIC "-//W3C//DTD SVG 1.1//EN" "http://www.w3.org/Graphics/SVG/1.1/DTD/svg11.dtd">
<svg version="1.1" id="Layer_1" xmlns="http://www.w3.org/2000/svg" xmlns:xlink="http://www.w3.org/1999/xlink" x="0px" y="0px"
	 width="534.24px" height="444.24px" viewBox="0 0 534.24 444.24" style="enable-background:new 0 0 534.24 444.24;"
	 xml:space="preserve">
<g>
	<path style="fill:none;" d="M331.016,183.454c-8.646-18.945-25.822-22.202-43.086-23.695c-26.785-2.317-49.521,7.552-55.961,24.46
		C265.846,171.667,298.277,173.204,331.016,183.454z"/>
	<path style="fill:none;" d="M218.861,250.058c25.337,9.274,134.538,12.828,154.649-5.692c10.569-9.734,18.426-20.149,26.715-29.748
		c3.176-7.076,7.232-13.874,12.295-20.375c2.273-2.921,2.938-8.973,1.584-12.526c-7.443-19.542-20.301-35.512-37.648-46.795
		c-59.58-38.756-121.734-41.015-185.215-10.324c-17.497,8.458-31.702,21.322-43.09,37.902
		C181.99,171.28,179.675,235.713,218.861,250.058z M236.112,233.219l-14.663,7.171c-0.516,0.253-1.062,0.372-1.6,0.372
		c-1.349,0-2.646-0.752-3.279-2.046c-0.885-1.81-0.135-3.995,1.674-4.88l14.663-7.172c1.81-0.884,3.995-0.135,4.88,1.675
		S237.921,232.333,236.112,233.219z M302.902,248.523c-0.715,0.736-1.666,1.107-2.619,1.107c-0.914,0-1.83-0.342-2.539-1.029
		l-11.717-11.364c-1.445-1.403-1.48-3.712-0.078-5.158s3.712-1.481,5.158-0.079l11.717,11.365
		C304.27,244.768,304.305,247.077,302.902,248.523z M382.639,189.825c-0.628,1.306-1.932,2.069-3.291,2.069
		c-0.529,0-1.068-0.116-1.577-0.361l-14.712-7.071c-1.815-0.873-2.58-3.053-1.707-4.868c0.873-1.816,3.053-2.579,4.867-1.708
		l14.712,7.071C382.746,185.83,383.512,188.009,382.639,189.825z M363.653,152.046l16.3-0.858c2.02-0.108,3.729,1.439,3.834,3.451
		c0.106,2.012-1.439,3.729-3.45,3.834l-16.3,0.858c-0.065,0.003-0.131,0.005-0.195,0.005c-1.927,0-3.537-1.509-3.64-3.456
		C360.096,153.869,361.642,152.152,363.653,152.046z M354.309,214.646c1.402,1.446,1.367,3.755-0.079,5.158l-11.716,11.364
		c-0.709,0.688-1.625,1.029-2.54,1.029c-0.952,0-1.903-0.37-2.618-1.108c-1.402-1.445-1.367-3.755,0.078-5.158l11.717-11.364
		C350.598,213.166,352.906,213.2,354.309,214.646z M316.275,132.938l16.246,1.571c2.006,0.194,3.475,1.977,3.281,3.982
		c-0.184,1.886-1.771,3.297-3.627,3.297c-0.117,0-0.236-0.006-0.355-0.017l-16.247-1.571c-2.005-0.194-3.474-1.977-3.28-3.982
		C312.487,134.213,314.268,132.746,316.275,132.938z M272.964,129.628l7.085-14.705c0.873-1.815,3.053-2.577,4.869-1.703
		c1.814,0.874,2.577,3.054,1.703,4.87l-7.085,14.705c-0.628,1.304-1.931,2.064-3.288,2.064c-0.531,0-1.07-0.116-1.581-0.362
		C272.852,133.623,272.09,131.443,272.964,129.628z M237.244,109.21c1.172-1.639,3.451-2.017,5.089-0.844l13.273,9.5
		c1.638,1.173,2.016,3.451,0.843,5.089c-0.712,0.995-1.833,1.525-2.969,1.525c-0.735,0-1.477-0.221-2.12-0.682l-13.273-9.5
		C236.449,113.126,236.071,110.848,237.244,109.21z M223.346,128.457c1.815-0.875,3.995-0.112,4.87,1.703l7.084,14.705
		c0.875,1.814,0.112,3.995-1.703,4.869c-0.511,0.246-1.05,0.362-1.581,0.362c-1.357,0-2.66-0.761-3.289-2.065l-7.085-14.705
		C220.769,131.512,221.531,129.332,223.346,128.457z M230.489,157.603c15.226-11.258,32.793-14.406,51.194-14.585
		c17.488-0.083,34.077,3.344,48.818,13.129c22.455,14.908,22.89,39.829,1.176,55.839c-25.938,19.122-74.848,19.242-100.897,0.246
		C209.584,196.776,209.429,173.174,230.489,157.603z M205.789,206.519c1.163-1.646,3.44-2.036,5.084-0.874
		c1.646,1.163,2.036,3.439,0.874,5.084l-9.422,13.329c-0.711,1.005-1.837,1.542-2.981,1.542c-0.728,0-1.463-0.218-2.103-0.669
		c-1.646-1.163-2.036-3.439-0.874-5.084L205.789,206.519z M175.742,149.746l16.247-1.571c2.008-0.195,3.788,1.275,3.982,3.28
		c0.194,2.005-1.274,3.788-3.28,3.982l-16.247,1.57c-0.12,0.011-0.238,0.017-0.355,0.017c-1.857,0-3.444-1.411-3.626-3.297
		C172.269,151.722,173.737,149.939,175.742,149.746z"/>
	<path style="fill:none;" d="M244.576,199.587c11.801,12.74,56.756,14.328,74.911,0.074
		C298.152,188.932,257.91,189.077,244.576,199.587z"/>
	<path style="fill:none;" d="M153.326,166.842c-0.563-0.197-1.135-0.374-1.711-0.541c0.036,0.019,0.07,0.039,0.105,0.059
		L153.326,166.842z"/>
	<path style="fill:none;" d="M396.669,283.217c-32.824,51.771-36.867,2.734-56.903-0.539c-7.617-1.243-14.527,6.691-21.103,17.254
		c-0.808,1.766-1.63,3.525-2.505,5.251c-3.869,7.619-7.21,15.626-11.996,22.635c-1.642,2.405-3.365,4.373-5.133,5.928
		c-3.244,4.669-6.5,8.244-9.821,9.823c-18.481,8.783-22.734-11.153-27.787-15.277c-23.007-48.207-28.276-7.569-66.916-17.322
		c-44.128-11.14-30.141-53.873-45.561-94.821c-3.772-10.019-10.793-15.765-15.642-22.066c-0.254,1.179-0.445,2.363-0.546,3.536
		c-1.173,13.577-1.464,27.229-2.742,40.793c-3.881,41.2,11.617,74.111,45.429,96.481c53.216,35.207,110.866,40.007,170.146,17.07
		c32.581-12.605,59.72-33.581,69.696-68.29c6.174-21.482,5.561-44.916,7.994-67.475c-0.049-0.011-0.099-0.022-0.148-0.033
		C419.132,238.957,407.719,265.992,396.669,283.217z"/>
	<path d="M230.781,212.231c26.049,18.996,74.959,18.876,100.897-0.246c21.714-16.01,21.279-40.931-1.176-55.839
		c-14.741-9.785-31.33-13.211-48.818-13.129c-18.401,0.179-35.969,3.327-51.194,14.585
		C209.429,173.174,209.584,196.776,230.781,212.231z M244.576,199.587c13.334-10.51,53.576-10.655,74.911,0.074
		C301.332,213.915,256.377,212.327,244.576,199.587z M287.93,159.759c17.264,1.494,34.44,4.75,43.086,23.695
		c-32.738-10.25-65.17-11.787-99.047,0.765C238.408,167.311,261.145,157.442,287.93,159.759z"/>
	<path d="M437.41,201.981c-0.196-9.779-2.346-18.171-6.776-27.213c-9.751-19.903-22.269-37.121-40.21-49.862
		c-61.215-43.473-127.02-47.84-195.013-19.395c-38.278,16.013-66.562,43.448-76.693,85.257c-3.615,14.912-3.405,30.751-4.842,45.182
		c0.857,13.483,0.221,26.107,2.685,38.094c8.521,41.463,35.215,69.021,71.898,87.069c49,24.111,100.385,26.477,151.983,10.257
		c40.346-12.685,72.412-36.881,89.369-77.161C442.334,264.461,438.034,233.021,437.41,201.981z M191.24,124.597
		c63.481-30.691,125.635-28.432,185.215,10.324c17.348,11.284,30.205,27.253,37.648,46.795c1.354,3.553,0.689,9.604-1.584,12.526
		c-5.062,6.502-9.119,13.3-12.295,20.375c-8.289,9.599-16.146,20.014-26.715,29.748c-20.111,18.521-129.312,14.967-154.649,5.692
		c-39.186-14.345-36.871-78.777-70.711-87.559C159.538,145.918,173.743,133.055,191.24,124.597z M153.326,166.842l-1.605-0.482
		c-0.035-0.02-0.07-0.04-0.105-0.059C152.191,166.469,152.763,166.646,153.326,166.842z M415.285,283.672
		c-9.977,34.709-37.115,55.685-69.696,68.29c-59.279,22.937-116.929,18.137-170.146-17.07c-33.812-22.37-49.31-55.281-45.429-96.481
		c1.278-13.563,1.569-27.216,2.742-40.793c0.101-1.173,0.292-2.356,0.546-3.536c4.849,6.301,11.87,12.048,15.642,22.066
		c15.419,40.948,1.433,83.681,45.561,94.821c38.64,9.753,43.908-30.885,66.916,17.322c5.053,4.124,9.306,24.061,27.787,15.277
		c3.321-1.579,6.577-5.154,9.821-9.823c1.768-1.555,3.491-3.522,5.133-5.928c4.786-7.009,8.127-15.016,11.996-22.635
		c0.875-1.726,1.697-3.485,2.505-5.251c6.575-10.562,13.485-18.497,21.103-17.254c20.036,3.273,24.079,52.311,56.903,0.539
		c11.05-17.225,22.463-44.26,26.462-67.053c0.05,0.011,0.1,0.022,0.148,0.033C420.846,238.756,421.459,262.189,415.285,283.672z"/>
	<path d="M363.842,159.337c0.064,0,0.13-0.002,0.195-0.005l16.3-0.858c2.011-0.105,3.557-1.822,3.45-3.834
		c-0.105-2.012-1.814-3.559-3.834-3.451l-16.3,0.858c-2.012,0.106-3.558,1.823-3.451,3.834
		C360.305,157.828,361.915,159.337,363.842,159.337z"/>
	<path d="M380.931,184.957l-14.712-7.071c-1.814-0.871-3.994-0.108-4.867,1.708c-0.873,1.815-0.108,3.995,1.707,4.868l14.712,7.071
		c0.509,0.245,1.048,0.361,1.577,0.361c1.359,0,2.663-0.763,3.291-2.069C383.512,188.009,382.746,185.83,380.931,184.957z"/>
	<path d="M197.24,224.932c0.639,0.451,1.375,0.669,2.103,0.669c1.144,0,2.271-0.537,2.981-1.542l9.422-13.329
		c1.163-1.646,0.772-3.922-0.874-5.084c-1.644-1.163-3.921-0.773-5.084,0.874l-9.422,13.329
		C195.204,221.492,195.595,223.769,197.24,224.932z"/>
	<path d="M232.906,226.664l-14.663,7.172c-1.81,0.885-2.56,3.07-1.674,4.88c0.633,1.294,1.93,2.046,3.279,2.046
		c0.538,0,1.084-0.119,1.6-0.372l14.663-7.171c1.81-0.886,2.56-3.07,1.674-4.88S234.716,225.78,232.906,226.664z"/>
	<path d="M337.355,231.09c0.715,0.738,1.666,1.108,2.618,1.108c0.915,0,1.831-0.342,2.54-1.029l11.716-11.364
		c1.446-1.403,1.481-3.712,0.079-5.158c-1.402-1.446-3.711-1.48-5.158-0.079l-11.717,11.364
		C335.988,227.335,335.953,229.645,337.355,231.09z"/>
	<path d="M291.107,232c-1.446-1.402-3.756-1.367-5.158,0.079s-1.367,3.755,0.078,5.158l11.717,11.364
		c0.709,0.688,1.625,1.029,2.539,1.029c0.953,0,1.904-0.371,2.619-1.107c1.402-1.446,1.367-3.756-0.078-5.158L291.107,232z"/>
	<path d="M238.087,114.299l13.273,9.5c0.643,0.46,1.385,0.682,2.12,0.682c1.137,0,2.257-0.53,2.969-1.525
		c1.172-1.638,0.795-3.917-0.843-5.089l-13.273-9.5c-1.639-1.173-3.917-0.795-5.089,0.844
		C236.071,110.848,236.449,113.126,238.087,114.299z"/>
	<path d="M228.728,148.032c0.629,1.304,1.932,2.065,3.289,2.065c0.531,0,1.07-0.116,1.581-0.362
		c1.814-0.874,2.577-3.055,1.703-4.869l-7.084-14.705c-0.875-1.815-3.055-2.578-4.87-1.703c-1.815,0.875-2.577,3.055-1.703,4.87
		L228.728,148.032z"/>
	<path d="M176.089,157.024c0.118,0,0.236-0.006,0.355-0.017l16.247-1.57c2.005-0.194,3.474-1.977,3.28-3.982
		c-0.194-2.005-1.974-3.476-3.982-3.28l-16.247,1.571c-2.005,0.194-3.474,1.977-3.28,3.982
		C172.645,155.613,174.232,157.024,176.089,157.024z"/>
	<path d="M274.667,134.497c0.511,0.246,1.05,0.362,1.581,0.362c1.357,0,2.66-0.76,3.288-2.064l7.085-14.705
		c0.874-1.815,0.111-3.996-1.703-4.87c-1.816-0.875-3.996-0.113-4.869,1.703l-7.085,14.705
		C272.09,131.443,272.852,133.623,274.667,134.497z"/>
	<path d="M315.573,140.2l16.247,1.571c0.119,0.011,0.238,0.017,0.355,0.017c1.855,0,3.443-1.411,3.627-3.297
		c0.193-2.005-1.275-3.788-3.281-3.982l-16.246-1.571c-2.008-0.191-3.788,1.275-3.982,3.28
		C312.1,138.223,313.568,140.006,315.573,140.2z"/>
</g>
</svg>
