<svg xmlns="http://www.w3.org/2000/svg" viewBox="0 0 101.99 216.72"><defs><style>.cls-1{fill:#262626;}</style></defs><title>Asset 8</title><g id="Layer_2" data-name="Layer 2"><g id="OBJECTS"><path class="cls-1" d="M101,142.66c1.19-4.37,1.39-15.23.32-17.61-1.23-2.76-3.3-2.6-6,.47C83.48,139,78.17,149.18,77.14,160.38l-.46,4.94L75.74,163c-.51-1.28-3.5-8-6.61-14.92s-6-13.44-6.45-14.45l-.77-1.84,3.61-2.44c3.8-2.57,14.12-13.27,18-18.72A65.62,65.62,0,0,0,94.84,83.9C96.25,75,93.75,75,81.38,83.58A54.75,54.75,0,0,0,65.93,99c-4,5.89-5.42,9.44-7.19,17.36l-1.36,6.17-3.65-9.12c-2-5-4.33-11-5.15-13.39L47.1,95.71l2.76-1.51c13.16-7.2,29-23.7,36.48-38,2.61-5,2.79-7.06.69-8.44-1.16-.78-2-.7-5.28.53a80.67,80.67,0,0,0-19.27,9.9C56.16,62.79,51.14,69.56,47,79L44.25,85.4l-.93-6.69a89.06,89.06,0,0,1-1-16.72l.08-3L57.74,47.69C66.16,41.49,74,35.5,75.17,34.39c1.42-1.37,2.6-2,3.61-1.8a6.21,6.21,0,0,0,6.35-3c2.39-4.63-.94-10-5.54-8.88-2.56.61-3.42,1.79-4,5.49-.45,2.84-.7,3.15-4.72,6-5,3.56-4.55,4.34-4.17-8l.24-8,2.5-1.7Q74.11,11.31,72.82,6C72,2.65,71,1.15,68.94.34c-2.63-1-5.62.3-7.6,3.36-2.41,3.71-2.42,7.1,0,10l1.81,2.19L62,25.18a85.62,85.62,0,0,0-.8,11.57L61.52,39,53,45.2c-4.71,3.42-8.69,6-8.85,5.82s.8-4.19,2.13-8.81c2.39-8.37,2.42-8.43,4.4-9.05,2.25-.69,4.22-3.74,4.9-7.62.54-3-.72-5-3.48-5.42S47,21.37,45.41,24.66a6.08,6.08,0,0,0-.6,5c.52,2.4.39,3-2.06,9.6C41.3,43.1,40,46.33,39.89,46.42a29.61,29.61,0,0,1-1.51-5.25c-.7-3-2.52-10.39-4-16.47-2.5-10-2.66-11.1-1.61-11.47A5.73,5.73,0,0,0,35,11.07c.91-1.48,1-2.21.46-4.69C34.75,3.08,33.7,2,30.65,1.51a5.6,5.6,0,0,0-5.72,3.37c-.84,1.72-.21,5.57,1.13,6.87.6.59,1.6,4.2,2.4,8.75.74,4.26,1.6,8.72,1.88,9.89s.28,2.12,0,2.07a111,111,0,0,1-8.24-7.65c-7-6.93-7.68-7.74-7.4-9.47.59-3.73-2.33-7.89-5.92-8.46C6.56,6.52,3.26,9,2.26,11.78a7.79,7.79,0,0,0,2.1,8.55c1.65,1.36,2.21,1.5,4.73,1.25,2.85-.3,2.85-.3,5.61,2.91C19.11,29.62,28,37.82,30.24,38.85s2.74,2,4.55,10.83c.69,3.38,1.58,6.48,2,6.89s.6,3.42.43,7.37a102,102,0,0,0,.29,12.27l.59,5.67L35.13,78C28.5,69.19,6.46,43.67,3.67,41.55c-1.42-1.08-2.93-.82-3.56.64S1.45,52,3.93,58.89c6.92,19.18,18.42,32,35.93,40,3.46,1.58,3.72,1.85,5.06,5.42.78,2.07,2.93,7.2,4.81,11.41a63.92,63.92,0,0,1,3.07,7.61,49.12,49.12,0,0,1-4.24-2.87c-2.16-1.55-8.6-5.3-14.31-8.35-11.82-6.28-18-10-24.54-14.68C5,94,2.72,93.36,2.06,95.19c-.5,1.41,8.79,14.55,14.53,20.53,9.52,9.92,24.62,17.76,38.45,20l4.11.66,5.43,11.15c6,12.21,7.87,16.58,7,16.08-.3-.19-2.44-1.83-4.75-3.65A92,92,0,0,0,38,144.87c-8.7-2.53-10.09-1.37-4.54,3.78,1.9,1.77,5.39,5.06,7.76,7.33A53.77,53.77,0,0,0,65.8,168.82c9,2.09,9,2.15,11.11,9.15a104.19,104.19,0,0,1,4.42,32.46,20.66,20.66,0,0,0,.23,4.93c.48,1.44,2.49,1.86,3.18.68.28-.49.27-.91,0-.95s-.36-2.27-.17-4.94a95.49,95.49,0,0,0-4.26-34c-1.8-5.68-1.43-6.68,3.78-10.4C91.75,160.31,98.77,150.72,101,142.66Zm-33.9,22.11-2.34-.34a46.7,46.7,0,0,1-6.94-2.07,48.5,48.5,0,0,1-8.63-4.44c-3.88-2.64-10-8.21-9.48-8.61s12.39,5.38,16.57,8c2.22,1.36,5.56,3.6,7.42,5Zm-25.71-69-1.76-.74a61.46,61.46,0,0,1-6.89-4.34C23.3,84.09,17.08,76.15,11.3,63.39,8,56,5.68,49.81,6.45,50.23c2.13,1.15,28.85,35.4,32.83,42.05Zm8-9.83C53.49,74.48,60.53,65.11,68.6,60.32c4.76-2.83,12.8-6.55,13.12-6.1C82.25,55,72.66,67.88,67.06,74A116.8,116.8,0,0,1,54.79,85.22C51.15,88,48.09,90.32,48,90.3A29.43,29.43,0,0,1,49.36,86Zm6,45.45-5.18-1.17a55.71,55.71,0,0,1-8.74-2.73c-9.5-4.2-19.36-11.62-25.13-18.9l-3.42-4.31L16,106.16c1.74,1,8.68,4.86,15.4,8.53,12.4,6.76,19.41,11.43,22.3,14.84Zm7-4.44,0-2.48a37.93,37.93,0,0,1,1.36-7.66,52.37,52.37,0,0,1,14-23.37c3.84-3.68,12.58-10.11,13-9.54.56.77-2.72,10.75-5,15.39-2.94,5.85-7.5,11.58-16.52,20.76Zm35.39,11.75C96.58,146,95.17,149,90,155.1c-2.76,3.25-9.13,9.06-9.42,8.59a61.37,61.37,0,0,1,1.36-6.42c1.88-7.77,5.15-14.06,11.36-21.84,4-5,4.62-5.56,5-4.45C98.57,131.68,98.33,135.15,97.75,138.72Z"/></g></g></svg>