<?xml version="1.0" encoding="iso-8859-1"?>
<!-- Generator: Adobe Illustrator 16.0.0, SVG Export Plug-In . SVG Version: 6.00 Build 0)  -->
<!DOCTYPE svg PUBLIC "-//W3C//DTD SVG 1.1//EN" "http://www.w3.org/Graphics/SVG/1.1/DTD/svg11.dtd">
<svg version="1.1" id="Layer_1" xmlns="http://www.w3.org/2000/svg" xmlns:xlink="http://www.w3.org/1999/xlink" x="0px" y="0px"
	 width="534.24px" height="444.24px" viewBox="0 0 534.24 444.24" style="enable-background:new 0 0 534.24 444.24;"
	 xml:space="preserve">
<path style="fill-rule:evenodd;clip-rule:evenodd;" d="M256.481,146.732c-7.688-16.697,2.08-29.559,19.621-34.9
	c7.818-2.379,16.256-3.832,24.408-3.809c34.385,0.1,64.831,12.182,92.087,32.57c13.644,10.206,25.596,22.072,30.826,39.007
	c3.063,9.918,0.977,18.445-7.306,25.29c-10.518,8.689-23.058,10.535-35.889,10.163c-40.696-1.177-75.438-16.79-107.604-46.427
	C269.338,163.585,260.227,154.87,256.481,146.732z M272.82,140.437c4.403,4.977,5.805-2.49,10.525-5.02
	c5.084-2.726,14.711-5.587,20.717-4.729c5.25,0.75,10.002,6.615,11.357,0.14c1.457-6.956-3.554-9.046-9.235-9.977
	c-10.925-1.788-21.483-1.701-30.425,5.791C271.767,130.787,268.187,135.204,272.82,140.437z"/>
<path style="fill-rule:evenodd;clip-rule:evenodd;" d="M393.883,253.298c-2.337,8.402-8.529,13.329-16.605,16.389
	c-19.832,7.516-39.774,5.246-59.561,0.075c-32.049-8.377-60.264-23.259-81.072-49.913c-6.236-7.986-10.723-16.892-9.745-27.469
	c0.31-3.347,1.604-6.604,2.523-10.201C270.872,237.978,325.055,260.82,393.883,253.298z"/>
<path style="fill-rule:evenodd;clip-rule:evenodd;" d="M403.167,236.537c-2.337,8.402-17.792,10.526-26.417,10.963
	c-21.229,1.075-27.463,0.922-47.25-4.25c-32.049-8.376-57.526-23.299-80.167-47.75c-6.771-7.312-6.708-8.321-12.667-19.25
	c-1.598-2.932,1.121-7.234,2.041-10.832C280.156,221.217,334.339,244.06,403.167,236.537z"/>
<path style="fill-rule:evenodd;clip-rule:evenodd;" d="M409.834,219.852c-2.338,8.402-17.792,10.526-26.417,10.963
	c-21.228,1.074-27.464,0.922-47.25-4.25c-32.048-8.376-57.526-23.299-80.167-47.75c-6.771-7.312-6.708-8.321-12.667-19.25
	c-1.598-2.932,2.121-9.235,3.041-12.832C287.822,202.531,341.006,227.374,409.834,219.852z"/>
<g>
	<path style="fill-rule:evenodd;clip-rule:evenodd;" d="M286.395,272.957c-8.932,10.778-20.466,16.762-32.988,20.512
		c-39.502,11.83-78.514,11.724-116.084-7.201c-6.021-3.032-11.709-7.59-16.182-12.651c-10.177-11.519-9.395-24.598,1.423-35.581
		c12.535-12.728,28.665-18.897,45.601-22.009c14.047-2.582,28.538-2.822,42.854-3.767c2.014-0.133,5.171,1.034,6.086,2.599
		c15.799,27.031,40.272,43.489,67.801,56.331C285.351,271.396,285.61,272.006,286.395,272.957z M130.083,259.416
		c0.167,2.5,2.23,7.663,5.234,8.082c2.46,0.344,3.85-6.351,4.516-8.998c1.776-7.057,9.323-11.46,15.167-14.334
		c2.215-1.09,5.276-2.736,7-4c2.5-1.832,2.872-1.723,2.145-4.281c-0.599-2.108-1.675-3.797-4.124-3.926
		C148.789,231.371,130.388,245.535,130.083,259.416z"/>
	<path style="fill-rule:evenodd;clip-rule:evenodd;" d="M292.699,320.658c1.506,11.629-4.516,19.854-13.207,26.522
		c-17.268,13.245-37.509,18.325-58.668,20.497c-26.856,2.757-53.125,0.249-77.774-11.312c-7.839-3.675-14.953-9.34-21.563-15.061
		c-5.873-5.082-8.332-12.229-6.888-20.248C173.854,355.896,232.79,356.012,292.699,320.658z"/>
	<path style="fill-rule:evenodd;clip-rule:evenodd;" d="M291.223,304.193c1.053,8.659-12.416,16.529-20.219,20.23
		c-19.205,9.107-25.025,11.351-45.286,14.137c-32.817,4.511-62.064,0.461-92.332-13.477c-9.052-4.169-9.38-5.124-19.064-12.945
		c-2.597-2.098-1.73-7.114-2.255-10.789C171.699,337.063,230.499,337.458,291.223,304.193z"/>
	<path style="fill-rule:evenodd;clip-rule:evenodd;" d="M291.004,286.228c1.053,8.657-12.415,16.529-20.218,20.229
		c-19.205,9.108-25.025,11.352-45.287,14.137c-32.816,4.512-62.063,0.463-92.332-13.476c-9.052-4.169-9.38-5.124-19.063-12.946
		c-2.598-2.098-1.729-7.113-2.256-10.788C171.48,319.098,230.28,319.49,291.004,286.228z"/>
</g>
</svg>
