<?xml version="1.0" encoding="iso-8859-1"?>
<!-- Generator: Adobe Illustrator 16.0.0, SVG Export Plug-In . SVG Version: 6.00 Build 0)  -->
<!DOCTYPE svg PUBLIC "-//W3C//DTD SVG 1.1//EN" "http://www.w3.org/Graphics/SVG/1.1/DTD/svg11.dtd">
<svg version="1.1" id="Layer_1" xmlns="http://www.w3.org/2000/svg" xmlns:xlink="http://www.w3.org/1999/xlink" x="0px" y="0px"
	 width="534.24px" height="444.24px" viewBox="0 0 534.24 444.24" style="enable-background:new 0 0 534.24 444.24;"
	 xml:space="preserve">
<g>
	
		<ellipse transform="matrix(-0.4485 -0.8938 0.8938 -0.4485 294.1855 526.7848)" style="fill:none;" cx="309.608" cy="172.635" rx="2.65" ry="4.164"/>
	
		<ellipse transform="matrix(-0.4485 -0.8938 0.8938 -0.4485 262.8862 536.7504)" style="fill:none;" cx="297.048" cy="187.266" rx="2.649" ry="4.162"/>
	<path style="fill:none;" d="M306.637,148.153c-1.501,0.754-2.502,1.968-2.681,3.078c-0.065,0.409-0.028,0.805,0.148,1.157
		c0.656,1.308,2.854,1.532,4.909,0.5c2.045-1.026,3.175-2.908,2.539-4.214c-0.003-0.006-0.003-0.014-0.006-0.021
		C310.891,147.346,308.691,147.122,306.637,148.153z"/>
	
		<ellipse transform="matrix(-0.4486 -0.8937 0.8937 -0.4486 258.8737 502.1238)" style="fill:none;" cx="284.33" cy="171.206" rx="2.649" ry="4.163"/>
	
		<ellipse transform="matrix(-0.4486 -0.8937 0.8937 -0.4486 352.2778 546.7615)" style="fill:none;" cx="344.802" cy="164.711" rx="2.649" ry="4.164"/>
	
		<ellipse transform="matrix(-0.4484 -0.8938 0.8938 -0.4484 331.3598 518.8492)" style="fill:none;" cx="325.777" cy="157.18" rx="2.649" ry="4.163"/>
	
		<ellipse transform="matrix(0.4484 0.8938 -0.8938 0.4484 343.5543 -198.0436)" style="fill:none;" cx="332.242" cy="179.343" rx="2.649" ry="4.163"/>
	<path style="fill:none;" d="M378.339,164.629c-4.136,0.006-9.544-3.025-20.68-11.006c0.448,3.722,1.052,7.271,1.276,10.844
		c1.018,16.201-6.491,27.056-22.125,31.033c-20.764,5.28-41.213,3.598-61.201-4.008c-0.824-0.313-1.633-0.674-2.422-1.068
		c-9.888-4.936-12.814-9.981-10.212-20.712c0.424-1.75,0.904-3.466,1.411-5.165L110,216.497l318-22.041L378.339,164.629z"/>
	<path style="fill:none;" d="M430.6,210.898c-24.101,1.303-46.6,2.387-69.08,3.772c-25.443,1.566-50.864,3.525-76.308,5.103
		c-55.403,3.438-110.809,6.814-166.227,10c-6.132,0.354-8.643,2.51-8.456,8.752c0.317,10.564,0.087,21.145,0.087,32.586
		c4.808,0,8.273,0.152,11.721-0.021c75.442-3.79,150.878-7.675,226.325-11.398c23.543-1.161,47.102-2.175,70.664-2.689
		c8.566-0.186,12.084-2.852,11.458-11.908C430.012,233.964,430.6,222.74,430.6,210.898z"/>
	
		<ellipse transform="matrix(0.4485 0.8938 -0.8938 0.4485 292.2097 -175.8111)" style="fill:none;" cx="288.575" cy="148.89" rx="2.65" ry="4.163"/>
	
		<ellipse transform="matrix(0.4486 0.8937 -0.8937 0.4486 280.8964 -198.5594)" style="fill:none;" cx="301.36" cy="128.358" rx="2.649" ry="4.164"/>
	<path style="fill:none;" d="M111.334,287.688c0,14.707,0,28.42,0,43.431c4.124,0,7.869,0.152,11.598-0.023
		c51.271-2.424,102.537-4.969,153.812-7.32c34.191-1.569,68.396-2.858,102.593-4.308c14.838-0.629,29.69-1.098,44.487-2.27
		c2.377-0.19,6.323-3.62,6.425-5.703c0.605-12.511,0.3-25.066,0.3-39.537C323.709,277.222,217.864,282.438,111.334,287.688z"/>
	
		<ellipse transform="matrix(-0.4484 -0.8938 0.8938 -0.4484 342.5947 483.1931)" style="fill:none;" cx="320.385" cy="135.89" rx="2.649" ry="4.163"/>
	<path d="M445.635,201.939c-0.074-4.836-3.655-11.487-7.686-14.095c-18.421-11.927-37.062-23.518-55.746-35.038
		c2.359-0.21,4.658-0.729,6.923-1.808c-6.54-7.843-15.558-11.214-24.409-14.945c4.387-9.585,2.848-19.294,2.151-28.925
		c-0.07-0.984-0.747-2.44-1.49-2.707c-0.689-0.248-2.175,0.562-2.738,1.327c-2.379,3.233-4.6,6.59-6.769,9.972
		c-1.562,2.438-2.951,4.986-4.417,7.485c-0.438-0.041-0.877-0.082-1.315-0.123c-1.426-8.841-2.852-17.682-4.277-26.522
		c-5.145,8.137-5.604,16.883-4.619,26.455c-2.279-2.041-4-3.701-5.841-5.21c-11.735-9.62-23.784-10.786-36.114-2.052
		c-12.277,8.699-21.684,19.537-28.254,32.24C215.591,167.437,131.977,197.019,104,206.892c-7.829,2.763-9.89,7.618-9.546,16.293
		c1.048,26.462,0.559,52.983,0.642,79.481c0.032,10.021-0.031,20.039,0,30.059c0.047,14.929,0.953,15.771,16.291,15.11
		c16.14-0.693,32.278-1.429,48.416-2.154c69.697-3.136,139.397-6.227,209.09-9.441c22.262-1.026,44.502-2.543,66.766-3.489
		c7.26-0.31,10.435-3.146,10.404-10.583C445.902,282.09,446.247,242.008,445.635,201.939z M345.99,167.079
		c-2.056,1.031-4.254,0.808-4.91-0.5s0.478-3.204,2.533-4.235c2.055-1.031,4.252-0.808,4.909,0.5
		C349.179,164.152,348.045,166.048,345.99,167.079z M331.054,176.975c2.056-1.031,4.253-0.807,4.909,0.501s-0.479,3.204-2.533,4.235
		c-2.055,1.031-4.252,0.808-4.908-0.5C327.865,179.902,328.998,178.006,331.054,176.975z M326.965,159.548
		c-2.055,1.031-4.252,0.808-4.909-0.501c-0.656-1.307,0.478-3.204,2.533-4.235c2.055-1.03,4.253-0.807,4.909,0.501
		C330.154,156.62,329.021,158.517,326.965,159.548z M310.797,175.003c-2.056,1.031-4.253,0.807-4.91-0.501
		c-0.656-1.308,0.478-3.204,2.533-4.235c2.055-1.031,4.252-0.807,4.908,0.501C313.985,172.075,312.852,173.971,310.797,175.003z
		 M309.014,152.889c-2.055,1.031-4.253,0.808-4.909-0.5c-0.177-0.352-0.214-0.748-0.148-1.157c0.179-1.11,1.18-2.324,2.681-3.078
		c2.055-1.031,4.254-0.807,4.91,0.501c0.003,0.007,0.003,0.014,0.006,0.021C312.188,149.981,311.059,151.862,309.014,152.889z
		 M298.236,189.634c-2.055,1.031-4.252,0.808-4.908-0.501c-0.657-1.307,0.477-3.203,2.532-4.234s4.253-0.808,4.909,0.5
		C301.426,186.707,300.292,188.603,298.236,189.634z M285.519,173.573c-2.056,1.032-4.253,0.808-4.909-0.5s0.478-3.204,2.532-4.235
		s4.253-0.808,4.909,0.501C288.707,170.646,287.573,172.542,285.519,173.573z M287.387,146.521c2.056-1.031,4.254-0.807,4.909,0.501
		c0.657,1.308-0.478,3.204-2.532,4.235c-2.055,1.031-4.252,0.808-4.909-0.5C284.199,149.449,285.332,147.554,287.387,146.521z
		 M324.105,134.022c0.656,1.308-0.477,3.204-2.532,4.235c-2.055,1.031-4.253,0.808-4.909-0.501
		c-0.656-1.307,0.478-3.204,2.533-4.235C321.252,132.491,323.449,132.715,324.105,134.022z M300.172,125.99
		c2.056-1.031,4.253-0.808,4.91,0.501c0.656,1.308-0.479,3.204-2.533,4.235s-4.253,0.808-4.909-0.5
		C296.983,128.918,298.117,127.021,300.172,125.99z M264.386,164.547c-0.506,1.699-0.986,3.415-1.411,5.165
		c-2.602,10.73,0.325,15.776,10.212,20.712c0.789,0.395,1.598,0.755,2.422,1.068c19.988,7.605,40.438,9.288,61.201,4.008
		c15.634-3.977,23.143-14.832,22.125-31.033c-0.225-3.574-0.828-7.123-1.276-10.844c11.136,7.98,16.544,11.012,20.68,11.006
		L428,194.456l-318,22.041L264.386,164.547z M430.249,311.494c-0.102,2.083-4.048,5.513-6.425,5.703
		c-14.797,1.172-29.649,1.641-44.487,2.27c-34.197,1.449-68.401,2.738-102.593,4.308c-51.275,2.352-102.541,4.896-153.812,7.32
		c-3.729,0.176-7.475,0.023-11.598,0.023c0-15.011,0-28.724,0-43.431c106.53-5.25,212.375-10.466,319.215-15.73
		C430.549,286.428,430.854,298.983,430.249,311.494z M419.326,257.003c-23.562,0.515-47.121,1.528-70.664,2.689
		c-75.446,3.724-150.882,7.608-226.325,11.398c-3.448,0.173-6.913,0.021-11.721,0.021c0-11.441,0.23-22.021-0.087-32.586
		c-0.187-6.242,2.323-8.398,8.456-8.752c55.418-3.186,110.824-6.562,166.227-10c25.443-1.578,50.864-3.536,76.308-5.103
		c22.48-1.386,44.979-2.469,69.08-3.772c0,11.841-0.588,23.065,0.185,34.196C431.41,254.151,427.893,256.817,419.326,257.003z"/>
</g>
</svg>
