<?xml version="1.0" encoding="iso-8859-1"?>
<!-- Generator: Adobe Illustrator 16.0.0, SVG Export Plug-In . SVG Version: 6.00 Build 0)  -->
<!DOCTYPE svg PUBLIC "-//W3C//DTD SVG 1.1//EN" "http://www.w3.org/Graphics/SVG/1.1/DTD/svg11.dtd">
<svg version="1.1" id="Layer_1" xmlns="http://www.w3.org/2000/svg" xmlns:xlink="http://www.w3.org/1999/xlink" x="0px" y="0px"
	 width="534.24px" height="589.68px" viewBox="0 0 534.24 589.68" style="enable-background:new 0 0 534.24 589.68;"
	 xml:space="preserve">
<g>
	<path d="M159.458,207.022c-23.688-11.79-69.089-3.372-88.327,16.375c-8.98,9.216-8.711,16.705-6.906,21.364
		c3.262,8.415,14.014,14.496,32.871,18.589c14.051,3.048,28.493,4.075,32.585,4.315c1.996,0.118,19.702,0.846,26.548-9.646
		c2.196-3.363,3.956-9.049-0.131-17.03c-3.871-7.562-10.589-12.746-18.916-14.595c-8.708-1.942-18.265,0.104-24.968,5.312
		c-2.556,1.987-3.019,5.67-1.032,8.227c1.986,2.557,5.67,3.019,8.226,1.032c3.957-3.074,9.939-4.294,15.23-3.124
		c3.436,0.763,8.137,2.854,11.022,8.49c1.223,2.39,1.476,4.167,0.749,5.281c-1.803,2.763-9.149,4.754-16.041,4.349
		c-28.722-1.692-52.457-8.329-55.212-15.436c-1.076-2.775,2.276-6.797,4.371-8.945c15.71-16.123,55.506-23.612,74.705-14.06
		c11.566,5.756,22.179,22.329,24.161,37.73c0.974,7.566,0.324,18.168-8.303,25.699c-7.837,6.845-23.502,5.642-36.088,4.675
		c-2.415-0.186-4.696-0.361-6.841-0.473c-13.581-0.713-25.949-5.164-39.043-9.875c-1.729-0.621-3.467-1.248-5.222-1.869
		c-3.053-1.082-6.402,0.515-7.484,3.567c-1.083,3.052,0.515,6.401,3.566,7.485c1.737,0.615,3.458,1.234,5.169,1.85
		c9.709,3.494,19.04,6.852,28.987,8.839c4.326,0.864,8.771,1.468,13.411,1.712c2.002,0.105,4.214,0.275,6.557,0.455
		c14.772,1.135,33.155,2.547,44.698-7.531c9.773-8.534,14.113-21.328,12.22-36.029C187.513,234.24,174.658,214.585,159.458,207.022z
		"/>
	<path d="M470.669,154.916c-8.144-8.602-17.65-17.042-26.77-23.768c-18.714-13.802-35.88-20.8-51.021-20.8
		c-1.979,0-3.946,0.123-5.849,0.364c-135.373,17.219-272.343,50.79-273.192,50.995c-12.988,1.334-24.592,6.078-35.027,12.149
		l-1.279,0.739c-2.835,1.634-5.767,3.323-8.46,5.445c-12.15,9.569-20.683,24.797-24.676,44.037
		c-4.452,21.449-2.465,42.965,5.594,60.586c8.818,19.279,24.347,33.406,44.909,40.853c14.481,5.244,30.974,8.134,46.442,8.135
		c0.004,0,0.003,0,0.007,0c6.832,0,13.049-0.529,18.719-1.451L158.982,333l24.672-4.764c10.376-2.002,254.303-49.11,269.742-53.809
		c15.351-4.671,30.159-23.381,36.011-45.5C496.533,201.994,489.718,175.032,470.669,154.916z M195.891,302.316
		c-8.425,9.123-24.727,19.997-54.543,19.997c-0.002,0-0.005,0-0.007,0c-14.185-0.001-29.307-2.649-42.581-7.457
		c-17.637-6.388-30.936-18.458-38.459-34.907c-7.062-15.441-8.768-34.464-4.803-53.566c3.494-16.83,10.421-29.425,20.59-37.434
		c2.049-1.615,4.62-3.097,7.106-4.529l1.318-0.761c8.342-4.854,17.744-7.698,28.014-8.502c0,0,1.084-0.073,3.201-0.185
		c0.969-0.036,1.942-0.06,2.925-0.06c6.972,0,14.304,0.896,21.794,2.662c1.635,0.385,3.233,0.796,4.794,1.231
		c23.845,9.093,50.138,30.422,62.009,55.282C216.146,257.635,212.245,284.608,195.891,302.316z"/>
</g>
</svg>
