<?xml version="1.0" encoding="iso-8859-1"?>
<!-- Generator: Adobe Illustrator 16.0.0, SVG Export Plug-In . SVG Version: 6.00 Build 0)  -->
<!DOCTYPE svg PUBLIC "-//W3C//DTD SVG 1.1//EN" "http://www.w3.org/Graphics/SVG/1.1/DTD/svg11.dtd">
<svg version="1.1" id="Layer_1" xmlns="http://www.w3.org/2000/svg" xmlns:xlink="http://www.w3.org/1999/xlink" x="0px" y="0px"
	 width="534.24px" height="589.68px" viewBox="0 0 534.24 589.68" style="enable-background:new 0 0 534.24 589.68;"
	 xml:space="preserve">
<g>
	<path style="fill:none;" d="M216.439,274.268l12.828,49.043c0.444,0.096,0.88,0.195,1.33,0.287
		c4.582,0.938,9.573,1.736,14.927,2.312l-10.95-59.975C229.323,270.642,223.125,273.528,216.439,274.268z"/>
	<path style="fill:none;" d="M247.563,273.953l9.64,52.798c6.407,0.232,13.24,0.104,20.451-0.491l10.924-52.921
		c-7.119,4.688-14.632,7.147-21.909,7.147C259.653,280.486,253.171,278.204,247.563,273.953z"/>
	<path style="fill:none;" d="M183.18,253.792c-0.388,0.293-0.781,0.579-1.178,0.859l21.65,60.884
		c3.989,1.605,8.348,3.148,13.055,4.562l-12.26-46.875C195.166,270.512,187.436,263.467,183.18,253.792z"/>
	<path style="fill:none;" d="M168.901,259.423c-4.108,0-8.085-1.476-11.836-4.358l17.307,43.947
		c2.576,2.163,7.57,5.793,14.834,9.744l-17.616-49.541C170.715,259.347,169.82,259.423,168.901,259.423z"/>
	<path style="fill:none;" d="M184.303,214.741c22.259,9.097,51.98,14.107,83.689,14.107c31.708,0,61.43-5.01,83.688-14.107
		c20.306-8.299,31.951-19.125,31.951-29.703s-11.646-21.404-31.951-29.703c-22.259-9.097-51.98-14.107-83.688-14.107
		c-31.708,0-61.43,5.01-83.689,14.107c-20.306,8.299-31.951,19.125-31.951,29.703S163.998,206.442,184.303,214.741z
		 M242.413,157.338c1.309-2.844,4.676-4.088,7.52-2.78l55.051,25.33c2.844,1.309,4.089,4.676,2.78,7.52
		c-0.956,2.077-3.009,3.301-5.153,3.301c-0.794,0-1.6-0.167-2.367-0.521l-55.05-25.33
		C242.349,163.549,241.104,160.182,242.413,157.338z M226.053,177.906c1.547-2.722,5.008-3.675,7.73-2.127l24.633,14
		c2.722,1.547,3.675,5.008,2.127,7.73c-1.044,1.838-2.961,2.869-4.934,2.869c-0.949,0-1.912-0.239-2.796-0.742l-24.633-14
		C225.458,184.089,224.505,180.628,226.053,177.906z"/>
	<path style="fill:none;" d="M358.128,301.48c2.533-1.352,5.093-2.792,7.664-4.276l18.033-46.351
		c-2.708,1.475-5.574,2.39-8.662,2.768L358.128,301.48z"/>
	<path style="fill:none;" d="M363.412,252.824c-1.9-0.408-3.766-0.892-5.604-1.374c-0.572-0.15-1.139-0.299-1.696-0.442
		c-2.919,8.184-6.89,16.348-15.885,21.072l-12.241,42.911c5.35-1.947,10.818-4.187,16.392-6.727l-0.62-0.221L363.412,252.824z"/>
	<path style="fill:none;" d="M301.05,269.009l-11.535,55.879c8.091-1.211,16.6-3.053,25.466-5.639l12.393-43.44
		c-1.734,0.199-3.461,0.306-5.148,0.306C313.594,276.115,306.294,273.562,301.05,269.009z"/>
	<path d="M421.944,198.246c-0.761-4.843-4.183-8.06-6.681-10.409c-0.379-0.356-0.859-0.807-1.268-1.218
		c3.501-6.304,7.154-17.566,2.109-26.451c-4.422-7.786-12.524-10.904-19.57-12.841c-2.421-14.648-14.754-24.865-30.838-24.865
		c-3.119,0-6.229,0.391-9.292,1.164c-7.268-8.338-20.633-11.425-31.714-11.425c-3.846,0-7.51,0.354-10.816,1.036
		c-2.836-3.006-7.718-5.461-16.098-5.461c-7.998,0-16.334,2.145-20.95,3.555c-6.153-4.742-14.981-5.537-20.198-5.537
		c-8.141,0-18.852,1.98-25.465,7.3c-5.384-1.894-11.362-2.917-17.223-2.917c-11.959,0-21.672,4.223-27.481,11.763
		c-2.599-0.804-5.408-1.219-8.327-1.219c-4.341,0-8.626,0.917-12.391,2.651c-8.513,3.921-11.304,9.025-13.583,14.914
		c-6.171,0.27-13.548,0.844-18.961,5.942c-5.058,4.762-6.735,11.796-6.601,18.209c-6.951,2.029-11.948,7.037-13.82,14.137
		c-2.275,8.624,0.666,18.194,7.097,24.468c-2.44,8.025-0.132,18.75,4.649,23.921c3.031,3.279,6.815,5.541,11.151,6.721
		l26.308,66.804c-0.441,1.816-0.04,4.194,2.684,6.995c0.035,0.035,0.08,0.078,0.116,0.114l0.21,0.534l0.235-0.093
		c6.345,6.069,29.922,22.604,66.535,29.332c9.084,1.669,19.665,2.829,31.528,2.829c30.114,0,68.481-7.482,111.518-33.12l0.076,0.03
		l30.771-79.086c3.9-1.683,7.459-4.261,10.276-7.556C420.865,212.7,423.057,205.328,421.944,198.246z M184.303,155.335
		c22.259-9.097,51.98-14.107,83.689-14.107c31.708,0,61.43,5.01,83.688,14.107c20.306,8.299,31.951,19.125,31.951,29.703
		s-11.646,21.404-31.951,29.703c-22.259,9.097-51.98,14.107-83.688,14.107c-31.708,0-61.43-5.01-83.689-14.107
		c-20.306-8.299-31.951-19.125-31.951-29.703S163.998,163.634,184.303,155.335z M174.372,299.012l-17.307-43.947
		c3.75,2.882,7.728,4.358,11.836,4.358c0.919,0,1.814-0.076,2.689-0.208l17.616,49.541
		C181.941,304.805,176.947,301.175,174.372,299.012z M203.651,315.535l-21.65-60.884c0.397-0.28,0.791-0.565,1.178-0.859
		c4.256,9.675,11.986,16.72,21.266,19.43l12.26,46.875C212,318.684,207.641,317.141,203.651,315.535z M230.597,323.598
		c-0.449-0.092-0.885-0.191-1.33-0.287l-12.828-49.043c6.686-0.739,12.884-3.625,18.134-8.332l10.95,59.975
		C240.17,325.334,235.179,324.535,230.597,323.598z M277.654,326.26c-7.211,0.596-14.044,0.724-20.451,0.491l-9.64-52.798
		c5.607,4.251,12.089,6.533,19.105,6.533c7.277,0,14.79-2.459,21.909-7.147L277.654,326.26z M314.98,319.25
		c-8.866,2.586-17.375,4.428-25.466,5.639l11.535-55.879c5.244,4.552,12.544,7.106,21.175,7.106c1.688,0,3.414-0.106,5.148-0.306
		L314.98,319.25z M327.986,314.99l12.241-42.911c8.995-4.724,12.966-12.888,15.885-21.072c0.558,0.144,1.124,0.292,1.696,0.442
		c1.838,0.482,3.703,0.966,5.604,1.374l-19.654,55.219l0.62,0.221C338.805,310.804,333.336,313.043,327.986,314.99z
		 M365.792,297.204c-2.571,1.484-5.131,2.925-7.664,4.276l17.035-47.859c3.088-0.377,5.954-1.293,8.662-2.768L365.792,297.204z"/>
	<path d="M245.194,164.858l55.05,25.33c0.768,0.354,1.573,0.521,2.367,0.521c2.145,0,4.197-1.225,5.153-3.301
		c1.309-2.844,0.063-6.211-2.78-7.52l-55.051-25.33c-2.844-1.308-6.211-0.064-7.52,2.78
		C241.104,160.182,242.349,163.549,245.194,164.858z"/>
	<path d="M228.18,185.636l24.633,14c0.884,0.503,1.847,0.742,2.796,0.742c1.973,0,3.89-1.031,4.934-2.869
		c1.547-2.722,0.595-6.183-2.127-7.73l-24.633-14c-2.722-1.548-6.183-0.594-7.73,2.127
		C224.505,180.628,225.458,184.089,228.18,185.636z"/>
</g>
</svg>
