<?xml version="1.0" encoding="iso-8859-1"?>
<!-- Generator: Adobe Illustrator 16.0.0, SVG Export Plug-In . SVG Version: 6.00 Build 0)  -->
<!DOCTYPE svg PUBLIC "-//W3C//DTD SVG 1.1//EN" "http://www.w3.org/Graphics/SVG/1.1/DTD/svg11.dtd">
<svg version="1.1" id="Layer_1" xmlns="http://www.w3.org/2000/svg" xmlns:xlink="http://www.w3.org/1999/xlink" x="0px" y="0px"
	 width="534.24px" height="589.68px" viewBox="0 0 534.24 589.68" style="enable-background:new 0 0 534.24 589.68;"
	 xml:space="preserve">
<g>
	<path style="fill:none;" d="M93.571,238.538c47.367,27.208,95.37,53.311,142.745,80.509c19.947,11.452,38.223,10.991,58.071-0.423
		c47.824-27.491,96.334-53.795,144.212-81.197c5.864-3.355,12.589-10.124,13.298-15.992c0.551-4.549-6.669-11.875-12.133-15.036
		c-49.648-28.713-99.594-56.918-149.666-84.891c-7.345-4.104-16.273-8.64-25.775-12.256c-10.954,4.476-21.918,10.327-32.114,15.968
		c-46.325,25.622-92.45,51.615-138.246,78.167c-6.982,4.047-16.023,11.452-16.445,17.81
		C77.154,226.695,86.723,234.603,93.571,238.538z M203.13,286.042c-17.519-9.735-34.622-20.217-53.846-31.646
		c14.813-8.052,26.334-15.157,38.61-20.545c4.539-1.992,11.749-1.689,16.195,0.587c15.245,7.807,29.806,16.953,47.171,27.071
		c-13.869,8.417-25.667,15.864-37.79,22.731C210.526,285.907,205.553,287.389,203.13,286.042z M211.213,220.446
		c13.86-8.01,26.246-14.036,38.704-21.611c5.745-3.494,10.162-6.78,14.998-8.097c3.197-0.871,9.416,2.88,14.574,6.152
		c12.795,8.117,25.172,15.301,39.668,23.253c-16.925,10.14-32.859,19.975-49.153,29.169c-2.755,1.555-7.845,1.723-10.527,0.198
		C243.71,240.532,228.338,230.867,211.213,220.446z M267.677,319.12c-4.022,2.011-32.048-10.025-47.412-24.518
		c20.344-12.627,33.974-21.39,47.412-26.557c3.018-1.16,27.215,12.765,41.887,26.806
		C293.301,305.889,279.734,313.092,267.677,319.12z M330.531,284.278c-3.524,1.894-9.656,2.28-13.053,0.475
		c-12.678-6.744-24.718-14.687-39.002-23.4c18.586-10.904,35.043-20.704,51.709-30.14c1.918-1.085,5.461-1.025,7.453,0.019
		c13.987,7.338,27.766,15.074,43.596,23.772C362.335,266.039,346.672,275.605,330.531,284.278z M437.701,221.288
		c-13.107,8.082-26.586,16.05-38.242,22.688c-3.369,1.919-8.904,3.976-11.57,2.524c-13.853-7.542-27.098-16.195-41.637-25.125
		c29.135-16.814,39.174-23.204,48.269-25.587C401.834,193.872,413.193,205.33,437.701,221.288z M367.127,178.434
		c4.057,2.58,8.705,4.958,14.107,8.358c-13.883,7.879-28.846,16.499-42.034,23.271c-3.302,1.694-8.948,2.165-11.99,0.465
		c-16.397-9.159-32.315-19.178-48.536-28.984c24.26-15.561,33.352-20.347,44.342-24.478
		C329.965,154.454,347.863,166.207,367.127,178.434z M265.185,122.254c10.009-3.715,28.116,12.072,47.153,24.104
		c-6.658,3.699-13.583,7.988-21.832,13.501c-9.144,6.108-20.094,14.627-24.136,14.976c-5.226,0.453-18.34-7.894-29.047-15.206
		c-5.713-3.902-11.89-7.312-18.771-11.443C238.686,135.543,251.897,127.186,265.185,122.254z M197.95,158.862
		c1.662-0.921,3.868-2.716,6.086-3.063c2.683-0.42,6.627,2.599,8.057,3.394c13.861,7.703,25.786,15.144,39.168,23.014
		c-25.112,16.193-40.739,25.448-52.448,30.818c-5.149,2.363-24.619-10.146-47.316-24.595c-0.319-0.204-0.403-0.776-0.892-1.786
		C166.311,177.337,181.937,167.748,197.95,158.862z M132.81,197.366c2.226-1.267,6.42-1.107,8.739,0.159
		c13.104,7.161,25.916,14.859,41.503,23.933c-12.167,7.726-20.281,14.028-30.093,19.439c-4.755,2.623-6.151,3.929-10.908,6.733
		c-5.833,3.438-12.485-3.895-18.113-7.201c-9.932-5.836-19.433-12.398-30.325-19.418
		C107.301,212.664,119.891,204.728,132.81,197.366z"/>
	<path d="M50.227,229.2c64.551,37.269,128.983,74.753,193.081,112.795c14.985,8.892,28.531,8.142,42.761-0.178
		c64.081-37.46,128.075-75.069,192.346-112.193c10.389-6.002,9.824-10.086,0.379-15.667
		c-64.809-38.294-128.621-79.528-195.533-114.021c-5.928-3.056-12.068-5.203-19.936-7.734c-7.183,2.923-14.608,5.528-21.865,9.061
		c-61.845,30.1-119.261,67.649-178.572,102.477c-4.627,2.716-9.662,6.033-13.613,9.434C43.415,218.207,40.261,223.447,50.227,229.2z
		 M93.962,203.386c45.796-26.551,91.921-52.544,138.246-78.167c10.196-5.641,21.16-11.492,32.114-15.968
		c9.502,3.616,18.431,8.151,25.775,12.256c50.072,27.972,100.018,56.178,149.666,84.891c5.464,3.161,12.684,10.487,12.133,15.036
		c-0.709,5.868-7.434,12.637-13.298,15.992c-47.878,27.402-96.388,53.706-144.212,81.197c-19.849,11.414-38.124,11.875-58.071,0.423
		c-47.375-27.198-95.377-53.301-142.745-80.509c-6.848-3.936-16.417-11.843-16.053-17.342
		C77.939,214.838,86.98,207.434,93.962,203.386z"/>
	<path d="M488.998,237.401c-23.041,13.165-50.106,31.194-72.588,43.916c-41.506,23.487-83.216,46.623-124.545,70.417
		c-18.936,10.901-36.644,9.879-55.287-0.783c-60.697-34.702-121.667-68.927-182.564-103.28c-2.701-1.521-5.717-2.482-8.724-3.762
		c-3.131,14.291-1.511,23.464,13.119,31.716c63.187,35.642,125.28,73.225,187.802,110.052c12.418,7.312,25.084,6.396,37.12-0.567
		c43.607-25.221,87.018-50.776,130.562-76.106c18.699-10.876,37.054-22.518,56.483-31.907
		C485.543,269.764,494.037,254.485,488.998,237.401z"/>
	<path d="M270.003,249.312c16.294-9.194,32.229-19.029,49.153-29.169c-14.496-7.952-26.873-15.137-39.668-23.253
		c-5.158-3.272-11.377-7.022-14.574-6.152c-4.836,1.316-9.253,4.603-14.998,8.097c-12.458,7.575-24.843,13.602-38.704,21.611
		c17.125,10.421,32.497,20.086,48.263,29.064C262.158,251.035,267.248,250.867,270.003,249.312z"/>
	<path d="M330.186,231.212c-16.666,9.436-33.123,19.236-51.709,30.14c14.284,8.714,26.324,16.656,39.002,23.4
		c3.396,1.806,9.528,1.419,13.053-0.475c16.141-8.673,31.804-18.24,50.703-29.274c-15.83-8.698-29.608-16.434-43.596-23.772
		C335.646,230.188,332.104,230.127,330.186,231.212z"/>
	<path d="M204.09,234.438c-4.446-2.276-11.657-2.579-16.195-0.587c-12.276,5.388-23.797,12.493-38.61,20.545
		c19.225,11.43,36.327,21.911,53.846,31.646c2.422,1.347,7.396-0.135,10.341-1.802c12.124-6.868,23.921-14.314,37.79-22.731
		C233.896,251.391,219.335,242.244,204.09,234.438z"/>
	<path d="M327.21,210.527c3.042,1.7,8.688,1.229,11.99-0.465c13.188-6.771,28.151-15.392,42.034-23.271
		c-5.402-3.4-10.051-5.778-14.107-8.358c-19.264-12.227-37.162-23.98-44.111-21.369c-10.99,4.13-20.082,8.917-44.342,24.478
		C294.895,191.35,310.812,201.368,327.21,210.527z"/>
	<path d="M198.813,213.025c11.709-5.37,27.336-14.625,52.448-30.818c-13.382-7.87-25.307-15.311-39.168-23.014
		c-1.429-0.795-5.374-3.813-8.057-3.394c-2.219,0.348-4.425,2.143-6.086,3.063c-16.014,8.886-31.639,18.475-47.345,27.781
		c0.489,1.01,0.573,1.582,0.892,1.786C174.194,202.879,193.664,215.388,198.813,213.025z"/>
	<path d="M266.37,174.835c4.042-0.349,14.992-8.868,24.136-14.976c8.249-5.513,15.174-9.802,21.832-13.501
		c-19.037-12.032-37.145-27.819-47.153-24.104c-13.288,4.932-26.499,13.289-46.633,25.933c6.881,4.131,13.058,7.541,18.771,11.443
		C248.03,166.941,261.145,175.288,266.37,174.835z"/>
	<path d="M267.677,268.045c-13.438,5.167-27.068,13.93-47.412,26.557c15.364,14.493,43.39,26.529,47.412,24.518
		c12.057-6.028,25.624-13.231,41.887-24.27C294.893,280.81,270.695,266.885,267.677,268.045z"/>
	<path d="M387.889,246.5c2.666,1.452,8.201-0.605,11.57-2.524c11.656-6.638,25.135-14.605,38.242-22.688
		c-24.508-15.958-35.867-27.416-43.181-25.5c-9.095,2.383-19.134,8.773-48.269,25.587
		C360.791,230.305,374.036,238.958,387.889,246.5z"/>
	<path d="M142.051,247.631c4.757-2.805,6.152-4.111,10.908-6.733c9.812-5.411,17.926-11.714,30.093-19.439
		c-15.587-9.074-28.398-16.772-41.503-23.933c-2.319-1.266-6.514-1.425-8.739-0.159c-12.919,7.361-25.509,15.298-39.196,23.646
		c10.892,7.02,20.393,13.582,30.325,19.418C129.566,243.736,136.218,251.069,142.051,247.631z"/>
</g>
</svg>
